<svg xmlns="http://www.w3.org/2000/svg" xmlns:xlink="http://www.w3.org/1999/xlink" width="1200" zoomAndPan="magnify" viewBox="0 0 900 576" height="768" preserveAspectRatio="xMidYMid meet" version="1.0"><defs><clipPath id="c785dbe4e8"><path d="M 415 434 L 456 434 L 456 548.664062 L 415 548.664062 Z M 415 434 " clip-rule="nonzero"/></clipPath><clipPath id="d5276ba435"><path d="M 435 434 L 495 434 L 495 548.664062 L 435 548.664062 Z M 435 434 " clip-rule="nonzero"/></clipPath><clipPath id="4e0fc362d2"><path d="M 474 434 L 515 434 L 515 548.664062 L 474 548.664062 Z M 474 434 " clip-rule="nonzero"/></clipPath><clipPath id="221accbd0f"><path d="M 97 27.414062 L 806 27.414062 L 806 499 L 97 499 Z M 97 27.414062 " clip-rule="nonzero"/></clipPath><clipPath id="bd264bec02"><path d="M 177 301 L 432 301 L 432 382 L 177 382 Z M 177 301 " clip-rule="nonzero"/></clipPath><clipPath id="66b8e50b35"><path d="M 186.925781 304.738281 L 177.882812 358.96875 L 192.15625 381.453125 L 414.519531 378.164062 L 431.996094 347.125 L 415.863281 301.230469 Z M 186.925781 304.738281 " clip-rule="nonzero"/></clipPath><clipPath id="1db5dc4328"><path d="M 182 303 L 223 303 L 223 322 L 182 322 Z M 182 303 " clip-rule="nonzero"/></clipPath><clipPath id="772c698b64"><path d="M 186.925781 304.738281 L 177.882812 358.96875 L 192.15625 381.453125 L 414.519531 378.164062 L 431.996094 347.125 L 415.863281 301.230469 Z M 186.925781 304.738281 " clip-rule="nonzero"/></clipPath><clipPath id="b9697d64ed"><path d="M 220 302 L 262 302 L 262 322 L 220 322 Z M 220 302 " clip-rule="nonzero"/></clipPath><clipPath id="6926d2ff45"><path d="M 186.925781 304.738281 L 177.882812 358.96875 L 192.15625 381.453125 L 414.519531 378.164062 L 431.996094 347.125 L 415.863281 301.230469 Z M 186.925781 304.738281 " clip-rule="nonzero"/></clipPath><clipPath id="d73e638bf2"><path d="M 261 302 L 302 302 L 302 321 L 261 321 Z M 261 302 " clip-rule="nonzero"/></clipPath><clipPath id="6704c5b15d"><path d="M 186.925781 304.738281 L 177.882812 358.96875 L 192.15625 381.453125 L 414.519531 378.164062 L 431.996094 347.125 L 415.863281 301.230469 Z M 186.925781 304.738281 " clip-rule="nonzero"/></clipPath><clipPath id="50d159207b"><path d="M 301 301 L 343 301 L 343 321 L 301 321 Z M 301 301 " clip-rule="nonzero"/></clipPath><clipPath id="ec1db1ca55"><path d="M 186.925781 304.738281 L 177.882812 358.96875 L 192.15625 381.453125 L 414.519531 378.164062 L 431.996094 347.125 L 415.863281 301.230469 Z M 186.925781 304.738281 " clip-rule="nonzero"/></clipPath><clipPath id="b7f7883e03"><path d="M 342 301 L 383 301 L 383 320 L 342 320 Z M 342 301 " clip-rule="nonzero"/></clipPath><clipPath id="d476f8f9e1"><path d="M 186.925781 304.738281 L 177.882812 358.96875 L 192.15625 381.453125 L 414.519531 378.164062 L 431.996094 347.125 L 415.863281 301.230469 Z M 186.925781 304.738281 " clip-rule="nonzero"/></clipPath><clipPath id="84f48e1891"><path d="M 382 301 L 424 301 L 424 319 L 382 319 Z M 382 301 " clip-rule="nonzero"/></clipPath><clipPath id="eca1e970d4"><path d="M 186.925781 304.738281 L 177.882812 358.96875 L 192.15625 381.453125 L 414.519531 378.164062 L 431.996094 347.125 L 415.863281 301.230469 Z M 186.925781 304.738281 " clip-rule="nonzero"/></clipPath><clipPath id="14b53b8eee"><path d="M 177 321 L 204 321 L 204 340 L 177 340 Z M 177 321 " clip-rule="nonzero"/></clipPath><clipPath id="e2d7f417f8"><path d="M 186.925781 304.738281 L 177.882812 358.96875 L 192.15625 381.453125 L 414.519531 378.164062 L 431.996094 347.125 L 415.863281 301.230469 Z M 186.925781 304.738281 " clip-rule="nonzero"/></clipPath><clipPath id="278d24d842"><path d="M 202 320 L 243 320 L 243 339 L 202 339 Z M 202 320 " clip-rule="nonzero"/></clipPath><clipPath id="6e4920825a"><path d="M 186.925781 304.738281 L 177.882812 358.96875 L 192.15625 381.453125 L 414.519531 378.164062 L 431.996094 347.125 L 415.863281 301.230469 Z M 186.925781 304.738281 " clip-rule="nonzero"/></clipPath><clipPath id="30fed823f2"><path d="M 242 319 L 284 319 L 284 339 L 242 339 Z M 242 319 " clip-rule="nonzero"/></clipPath><clipPath id="e2593350e8"><path d="M 186.925781 304.738281 L 177.882812 358.96875 L 192.15625 381.453125 L 414.519531 378.164062 L 431.996094 347.125 L 415.863281 301.230469 Z M 186.925781 304.738281 " clip-rule="nonzero"/></clipPath><clipPath id="6e4658a2bf"><path d="M 283 319 L 324 319 L 324 338 L 283 338 Z M 283 319 " clip-rule="nonzero"/></clipPath><clipPath id="1a33a8e785"><path d="M 186.925781 304.738281 L 177.882812 358.96875 L 192.15625 381.453125 L 414.519531 378.164062 L 431.996094 347.125 L 415.863281 301.230469 Z M 186.925781 304.738281 " clip-rule="nonzero"/></clipPath><clipPath id="cd2f13e803"><path d="M 323 318 L 364 318 L 364 338 L 323 338 Z M 323 318 " clip-rule="nonzero"/></clipPath><clipPath id="945aac7dde"><path d="M 186.925781 304.738281 L 177.882812 358.96875 L 192.15625 381.453125 L 414.519531 378.164062 L 431.996094 347.125 L 415.863281 301.230469 Z M 186.925781 304.738281 " clip-rule="nonzero"/></clipPath><clipPath id="35a0f96f3c"><path d="M 363 318 L 405 318 L 405 337 L 363 337 Z M 363 318 " clip-rule="nonzero"/></clipPath><clipPath id="9d9f4a6f81"><path d="M 186.925781 304.738281 L 177.882812 358.96875 L 192.15625 381.453125 L 414.519531 378.164062 L 431.996094 347.125 L 415.863281 301.230469 Z M 186.925781 304.738281 " clip-rule="nonzero"/></clipPath><clipPath id="03047be018"><path d="M 403 317 L 432 317 L 432 336 L 403 336 Z M 403 317 " clip-rule="nonzero"/></clipPath><clipPath id="f9b28d55dc"><path d="M 186.925781 304.738281 L 177.882812 358.96875 L 192.15625 381.453125 L 414.519531 378.164062 L 431.996094 347.125 L 415.863281 301.230469 Z M 186.925781 304.738281 " clip-rule="nonzero"/></clipPath><clipPath id="2ed19de2c3"><path d="M 177 355 L 208 355 L 208 375 L 177 375 Z M 177 355 " clip-rule="nonzero"/></clipPath><clipPath id="e88da8e074"><path d="M 186.925781 304.738281 L 177.882812 358.96875 L 192.15625 381.453125 L 414.519531 378.164062 L 431.996094 347.125 L 415.863281 301.230469 Z M 186.925781 304.738281 " clip-rule="nonzero"/></clipPath><clipPath id="92f1d03ec4"><path d="M 205 355 L 246 355 L 246 374 L 205 374 Z M 205 355 " clip-rule="nonzero"/></clipPath><clipPath id="fc8c508e16"><path d="M 186.925781 304.738281 L 177.882812 358.96875 L 192.15625 381.453125 L 414.519531 378.164062 L 431.996094 347.125 L 415.863281 301.230469 Z M 186.925781 304.738281 " clip-rule="nonzero"/></clipPath><clipPath id="6b38bf3f12"><path d="M 245 354 L 287 354 L 287 373 L 245 373 Z M 245 354 " clip-rule="nonzero"/></clipPath><clipPath id="263f8a4a38"><path d="M 186.925781 304.738281 L 177.882812 358.96875 L 192.15625 381.453125 L 414.519531 378.164062 L 431.996094 347.125 L 415.863281 301.230469 Z M 186.925781 304.738281 " clip-rule="nonzero"/></clipPath><clipPath id="a93ee26817"><path d="M 286 353 L 327 353 L 327 373 L 286 373 Z M 286 353 " clip-rule="nonzero"/></clipPath><clipPath id="368aae9a41"><path d="M 186.925781 304.738281 L 177.882812 358.96875 L 192.15625 381.453125 L 414.519531 378.164062 L 431.996094 347.125 L 415.863281 301.230469 Z M 186.925781 304.738281 " clip-rule="nonzero"/></clipPath><clipPath id="0325a98d92"><path d="M 326 353 L 368 353 L 368 372 L 326 372 Z M 326 353 " clip-rule="nonzero"/></clipPath><clipPath id="c20f7d8dd7"><path d="M 186.925781 304.738281 L 177.882812 358.96875 L 192.15625 381.453125 L 414.519531 378.164062 L 431.996094 347.125 L 415.863281 301.230469 Z M 186.925781 304.738281 " clip-rule="nonzero"/></clipPath><clipPath id="0c7e935a0c"><path d="M 367 352 L 408 352 L 408 372 L 367 372 Z M 367 352 " clip-rule="nonzero"/></clipPath><clipPath id="b616a197e8"><path d="M 186.925781 304.738281 L 177.882812 358.96875 L 192.15625 381.453125 L 414.519531 378.164062 L 431.996094 347.125 L 415.863281 301.230469 Z M 186.925781 304.738281 " clip-rule="nonzero"/></clipPath><clipPath id="414a627de6"><path d="M 406 351 L 432 351 L 432 371 L 406 371 Z M 406 351 " clip-rule="nonzero"/></clipPath><clipPath id="ff5545e926"><path d="M 186.925781 304.738281 L 177.882812 358.96875 L 192.15625 381.453125 L 414.519531 378.164062 L 431.996094 347.125 L 415.863281 301.230469 Z M 186.925781 304.738281 " clip-rule="nonzero"/></clipPath><clipPath id="b3be64d303"><path d="M 186 373 L 228 373 L 228 382 L 186 382 Z M 186 373 " clip-rule="nonzero"/></clipPath><clipPath id="de484b5735"><path d="M 186.925781 304.738281 L 177.882812 358.96875 L 192.15625 381.453125 L 414.519531 378.164062 L 431.996094 347.125 L 415.863281 301.230469 Z M 186.925781 304.738281 " clip-rule="nonzero"/></clipPath><clipPath id="fe9a75af7c"><path d="M 225 372 L 267 372 L 267 382 L 225 382 Z M 225 372 " clip-rule="nonzero"/></clipPath><clipPath id="e43f38cc61"><path d="M 186.925781 304.738281 L 177.882812 358.96875 L 192.15625 381.453125 L 414.519531 378.164062 L 431.996094 347.125 L 415.863281 301.230469 Z M 186.925781 304.738281 " clip-rule="nonzero"/></clipPath><clipPath id="ddb5e21471"><path d="M 266 372 L 307 372 L 307 382 L 266 382 Z M 266 372 " clip-rule="nonzero"/></clipPath><clipPath id="2021ede805"><path d="M 186.925781 304.738281 L 177.882812 358.96875 L 192.15625 381.453125 L 414.519531 378.164062 L 431.996094 347.125 L 415.863281 301.230469 Z M 186.925781 304.738281 " clip-rule="nonzero"/></clipPath><clipPath id="9c8950dfb5"><path d="M 306 371 L 348 371 L 348 382 L 306 382 Z M 306 371 " clip-rule="nonzero"/></clipPath><clipPath id="71eea22a3f"><path d="M 186.925781 304.738281 L 177.882812 358.96875 L 192.15625 381.453125 L 414.519531 378.164062 L 431.996094 347.125 L 415.863281 301.230469 Z M 186.925781 304.738281 " clip-rule="nonzero"/></clipPath><clipPath id="853cb9bda7"><path d="M 347 370 L 388 370 L 388 382 L 347 382 Z M 347 370 " clip-rule="nonzero"/></clipPath><clipPath id="81f71cd005"><path d="M 186.925781 304.738281 L 177.882812 358.96875 L 192.15625 381.453125 L 414.519531 378.164062 L 431.996094 347.125 L 415.863281 301.230469 Z M 186.925781 304.738281 " clip-rule="nonzero"/></clipPath><clipPath id="9da7e2561c"><path d="M 387 370 L 429 370 L 429 382 L 387 382 Z M 387 370 " clip-rule="nonzero"/></clipPath><clipPath id="9e597732b6"><path d="M 186.925781 304.738281 L 177.882812 358.96875 L 192.15625 381.453125 L 414.519531 378.164062 L 431.996094 347.125 L 415.863281 301.230469 Z M 186.925781 304.738281 " clip-rule="nonzero"/></clipPath><clipPath id="3cfca60989"><path d="M 177 338 L 186 338 L 186 358 L 177 358 Z M 177 338 " clip-rule="nonzero"/></clipPath><clipPath id="63dd70a4b0"><path d="M 186.925781 304.738281 L 177.882812 358.96875 L 192.15625 381.453125 L 414.519531 378.164062 L 431.996094 347.125 L 415.863281 301.230469 Z M 186.925781 304.738281 " clip-rule="nonzero"/></clipPath><clipPath id="075935a645"><path d="M 183 338 L 225 338 L 225 357 L 183 357 Z M 183 338 " clip-rule="nonzero"/></clipPath><clipPath id="9b470f1d60"><path d="M 186.925781 304.738281 L 177.882812 358.96875 L 192.15625 381.453125 L 414.519531 378.164062 L 431.996094 347.125 L 415.863281 301.230469 Z M 186.925781 304.738281 " clip-rule="nonzero"/></clipPath><clipPath id="6d804d88a0"><path d="M 224 337 L 265 337 L 265 356 L 224 356 Z M 224 337 " clip-rule="nonzero"/></clipPath><clipPath id="eeed10768b"><path d="M 186.925781 304.738281 L 177.882812 358.96875 L 192.15625 381.453125 L 414.519531 378.164062 L 431.996094 347.125 L 415.863281 301.230469 Z M 186.925781 304.738281 " clip-rule="nonzero"/></clipPath><clipPath id="26f1dbd239"><path d="M 264 336 L 306 336 L 306 356 L 264 356 Z M 264 336 " clip-rule="nonzero"/></clipPath><clipPath id="10e3333fbd"><path d="M 186.925781 304.738281 L 177.882812 358.96875 L 192.15625 381.453125 L 414.519531 378.164062 L 431.996094 347.125 L 415.863281 301.230469 Z M 186.925781 304.738281 " clip-rule="nonzero"/></clipPath><clipPath id="614d1f7815"><path d="M 305 336 L 346 336 L 346 355 L 305 355 Z M 305 336 " clip-rule="nonzero"/></clipPath><clipPath id="97ec76281e"><path d="M 186.925781 304.738281 L 177.882812 358.96875 L 192.15625 381.453125 L 414.519531 378.164062 L 431.996094 347.125 L 415.863281 301.230469 Z M 186.925781 304.738281 " clip-rule="nonzero"/></clipPath><clipPath id="164bc8e2b1"><path d="M 345 335 L 387 335 L 387 355 L 345 355 Z M 345 335 " clip-rule="nonzero"/></clipPath><clipPath id="33bb4b1e41"><path d="M 186.925781 304.738281 L 177.882812 358.96875 L 192.15625 381.453125 L 414.519531 378.164062 L 431.996094 347.125 L 415.863281 301.230469 Z M 186.925781 304.738281 " clip-rule="nonzero"/></clipPath><clipPath id="bf0c3e3ff9"><path d="M 384 334 L 426 334 L 426 354 L 384 354 Z M 384 334 " clip-rule="nonzero"/></clipPath><clipPath id="d96a5ada04"><path d="M 186.925781 304.738281 L 177.882812 358.96875 L 192.15625 381.453125 L 414.519531 378.164062 L 431.996094 347.125 L 415.863281 301.230469 Z M 186.925781 304.738281 " clip-rule="nonzero"/></clipPath><clipPath id="5313613715"><path d="M 425 334 L 432 334 L 432 354 L 425 354 Z M 425 334 " clip-rule="nonzero"/></clipPath><clipPath id="2aabe9cb15"><path d="M 186.925781 304.738281 L 177.882812 358.96875 L 192.15625 381.453125 L 414.519531 378.164062 L 431.996094 347.125 L 415.863281 301.230469 Z M 186.925781 304.738281 " clip-rule="nonzero"/></clipPath></defs><rect x="-90" width="1080" fill="#ffffff" y="-57.6" height="691.2" fill-opacity="1"/><rect x="-90" width="1080" fill="#ffffff" y="-57.6" height="691.2" fill-opacity="1"/><path fill="#000000" d="M 155.96875 215.632812 C 155.96875 215.632812 111.503906 215.667969 105.582031 200.195312 C 99.664062 184.722656 114.261719 175.433594 140.785156 176.53125 C 142.640625 176.566406 144.488281 176.710938 146.324219 176.976562 C 148.164062 177.238281 149.976562 177.617188 151.769531 178.105469 C 153.558594 178.597656 155.3125 179.199219 157.03125 179.90625 C 158.746094 180.617188 160.410156 181.433594 162.023438 182.351562 C 163.640625 183.269531 165.191406 184.285156 166.675781 185.398438 C 168.164062 186.511719 169.574219 187.710938 170.914062 189 C 172.25 190.289062 173.5 191.65625 174.667969 193.105469 C 175.832031 194.550781 176.90625 196.0625 177.882812 197.644531 Z M 155.96875 215.632812 " fill-opacity="1" fill-rule="nonzero"/><g clip-path="url(#c785dbe4e8)"><path fill="#000000" d="M 455.605469 491.390625 C 455.605469 493.261719 455.574219 495.128906 455.511719 496.988281 C 455.445312 498.851562 455.351562 500.699219 455.226562 502.53125 C 455.097656 504.367188 454.941406 506.179688 454.75 507.96875 C 454.5625 509.757812 454.34375 511.519531 454.09375 513.246094 C 453.84375 514.972656 453.566406 516.664062 453.261719 518.3125 C 452.953125 519.960938 452.621094 521.566406 452.257812 523.121094 C 451.894531 524.675781 451.507812 526.175781 451.097656 527.621094 C 450.683594 529.066406 450.246094 530.453125 449.785156 531.773438 C 449.328125 533.097656 448.84375 534.351562 448.339844 535.539062 C 447.839844 536.726562 447.316406 537.835938 446.773438 538.875 C 446.234375 539.914062 445.675781 540.875 445.101562 541.757812 C 444.527344 542.640625 443.941406 543.4375 443.339844 544.15625 C 442.738281 544.871094 442.125 545.5 441.503906 546.042969 C 440.882812 546.585938 440.25 547.039062 439.613281 547.40625 C 438.972656 547.769531 438.332031 548.042969 437.683594 548.226562 C 437.035156 548.410156 436.386719 548.5 435.734375 548.5 C 435.085938 548.5 434.4375 548.410156 433.789062 548.226562 C 433.140625 548.042969 432.496094 547.769531 431.859375 547.40625 C 431.222656 547.039062 430.589844 546.585938 429.96875 546.042969 C 429.34375 545.5 428.734375 544.871094 428.132812 544.15625 C 427.53125 543.4375 426.941406 542.640625 426.367188 541.757812 C 425.792969 540.875 425.238281 539.914062 424.695312 538.875 C 424.15625 537.835938 423.632812 536.726562 423.128906 535.539062 C 422.625 534.351562 422.144531 533.097656 421.683594 531.773438 C 421.226562 530.453125 420.789062 529.066406 420.375 527.621094 C 419.960938 526.175781 419.574219 524.675781 419.214844 523.121094 C 418.851562 521.566406 418.519531 519.960938 418.210938 518.3125 C 417.90625 516.664062 417.625 514.972656 417.378906 513.246094 C 417.128906 511.519531 416.910156 509.757812 416.71875 507.96875 C 416.53125 506.179688 416.375 504.367188 416.246094 502.53125 C 416.121094 500.699219 416.023438 498.851562 415.960938 496.988281 C 415.898438 495.128906 415.863281 493.261719 415.863281 491.390625 C 415.863281 489.519531 415.898438 487.65625 415.960938 485.792969 C 416.023438 483.933594 416.121094 482.082031 416.246094 480.25 C 416.375 478.414062 416.53125 476.601562 416.71875 474.8125 C 416.910156 473.023438 417.128906 471.265625 417.378906 469.535156 C 417.625 467.808594 417.90625 466.117188 418.210938 464.46875 C 418.519531 462.820312 418.851562 461.21875 419.214844 459.664062 C 419.574219 458.105469 419.960938 456.605469 420.375 455.160156 C 420.789062 453.714844 421.226562 452.332031 421.683594 451.007812 C 422.144531 449.683594 422.625 448.429688 423.128906 447.242188 C 423.632812 446.058594 424.15625 444.945312 424.695312 443.90625 C 425.238281 442.867188 425.792969 441.90625 426.367188 441.023438 C 426.941406 440.140625 427.53125 439.34375 428.132812 438.628906 C 428.734375 437.914062 429.34375 437.28125 429.96875 436.738281 C 430.589844 436.195312 431.222656 435.742188 431.859375 435.378906 C 432.496094 435.011719 433.140625 434.738281 433.789062 434.554688 C 434.4375 434.371094 435.085938 434.28125 435.734375 434.28125 C 436.386719 434.28125 437.035156 434.371094 437.683594 434.554688 C 438.332031 434.738281 438.972656 435.011719 439.613281 435.378906 C 440.25 435.742188 440.882812 436.195312 441.503906 436.738281 C 442.125 437.28125 442.738281 437.914062 443.339844 438.628906 C 443.941406 439.34375 444.527344 440.140625 445.101562 441.023438 C 445.675781 441.90625 446.234375 442.867188 446.773438 443.90625 C 447.316406 444.945312 447.839844 446.058594 448.339844 447.246094 C 448.84375 448.429688 449.328125 449.683594 449.785156 451.007812 C 450.246094 452.332031 450.683594 453.714844 451.097656 455.160156 C 451.507812 456.605469 451.894531 458.105469 452.257812 459.664062 C 452.621094 461.21875 452.953125 462.820312 453.261719 464.46875 C 453.566406 466.117188 453.84375 467.808594 454.09375 469.535156 C 454.34375 471.265625 454.5625 473.023438 454.75 474.8125 C 454.941406 476.601562 455.097656 478.414062 455.226562 480.25 C 455.351562 482.082031 455.445312 483.933594 455.511719 485.792969 C 455.574219 487.65625 455.605469 489.519531 455.605469 491.390625 Z M 455.605469 491.390625 " fill-opacity="1" fill-rule="nonzero"/></g><g clip-path="url(#d5276ba435)"><path fill="#000000" d="M 435.734375 434.28125 L 494.351562 434.28125 L 494.351562 548.5 L 435.734375 548.5 Z M 435.734375 434.28125 " fill-opacity="1" fill-rule="nonzero"/></g><g clip-path="url(#4e0fc362d2)"><path fill="#000000" d="M 514.222656 491.390625 C 514.222656 493.261719 514.191406 495.128906 514.128906 496.988281 C 514.0625 498.851562 513.96875 500.699219 513.84375 502.53125 C 513.714844 504.367188 513.558594 506.179688 513.367188 507.96875 C 513.179688 509.757812 512.960938 511.519531 512.710938 513.246094 C 512.460938 514.972656 512.183594 516.664062 511.878906 518.3125 C 511.570312 519.960938 511.238281 521.566406 510.875 523.121094 C 510.511719 524.675781 510.125 526.175781 509.714844 527.621094 C 509.300781 529.066406 508.863281 530.453125 508.402344 531.773438 C 507.945312 533.097656 507.460938 534.351562 506.957031 535.539062 C 506.457031 536.726562 505.933594 537.835938 505.394531 538.875 C 504.851562 539.914062 504.292969 540.875 503.71875 541.757812 C 503.144531 542.640625 502.558594 543.4375 501.957031 544.15625 C 501.355469 544.871094 500.742188 545.5 500.121094 546.042969 C 499.5 546.585938 498.867188 547.039062 498.230469 547.40625 C 497.589844 547.769531 496.949219 548.042969 496.300781 548.226562 C 495.652344 548.410156 495.003906 548.5 494.351562 548.5 C 493.703125 548.5 493.054688 548.410156 492.40625 548.226562 C 491.757812 548.042969 491.113281 547.769531 490.476562 547.40625 C 489.839844 547.039062 489.207031 546.585938 488.585938 546.042969 C 487.960938 545.5 487.351562 544.871094 486.75 544.15625 C 486.148438 543.4375 485.558594 542.640625 484.984375 541.757812 C 484.410156 540.875 483.855469 539.914062 483.3125 538.875 C 482.773438 537.835938 482.25 536.726562 481.746094 535.539062 C 481.242188 534.351562 480.761719 533.097656 480.300781 531.773438 C 479.84375 530.453125 479.40625 529.066406 478.992188 527.621094 C 478.578125 526.175781 478.191406 524.675781 477.832031 523.121094 C 477.46875 521.566406 477.136719 519.960938 476.828125 518.3125 C 476.523438 516.664062 476.242188 514.972656 475.996094 513.246094 C 475.746094 511.519531 475.527344 509.757812 475.339844 507.96875 C 475.148438 506.179688 474.992188 504.367188 474.863281 502.53125 C 474.738281 500.699219 474.640625 498.851562 474.578125 496.988281 C 474.515625 495.128906 474.480469 493.261719 474.480469 491.390625 C 474.480469 489.519531 474.515625 487.65625 474.578125 485.792969 C 474.640625 483.933594 474.738281 482.082031 474.863281 480.25 C 474.992188 478.414062 475.148438 476.601562 475.339844 474.8125 C 475.527344 473.023438 475.746094 471.265625 475.996094 469.535156 C 476.242188 467.808594 476.523438 466.117188 476.828125 464.46875 C 477.136719 462.820312 477.46875 461.21875 477.832031 459.664062 C 478.191406 458.105469 478.578125 456.605469 478.992188 455.160156 C 479.40625 453.714844 479.84375 452.332031 480.300781 451.007812 C 480.761719 449.683594 481.242188 448.429688 481.746094 447.242188 C 482.25 446.058594 482.773438 444.945312 483.3125 443.90625 C 483.855469 442.867188 484.410156 441.90625 484.984375 441.023438 C 485.558594 440.140625 486.148438 439.34375 486.75 438.628906 C 487.351562 437.914062 487.960938 437.28125 488.585938 436.738281 C 489.207031 436.195312 489.839844 435.742188 490.476562 435.378906 C 491.113281 435.011719 491.757812 434.738281 492.40625 434.554688 C 493.054688 434.371094 493.703125 434.28125 494.351562 434.28125 C 495.003906 434.28125 495.652344 434.371094 496.300781 434.554688 C 496.949219 434.738281 497.589844 435.011719 498.230469 435.378906 C 498.867188 435.742188 499.5 436.195312 500.121094 436.738281 C 500.742188 437.28125 501.355469 437.914062 501.957031 438.628906 C 502.558594 439.34375 503.144531 440.140625 503.71875 441.023438 C 504.292969 441.90625 504.851562 442.867188 505.394531 443.90625 C 505.933594 444.945312 506.457031 446.058594 506.957031 447.246094 C 507.460938 448.429688 507.945312 449.683594 508.402344 451.007812 C 508.863281 452.332031 509.300781 453.714844 509.714844 455.160156 C 510.125 456.605469 510.511719 458.105469 510.875 459.664062 C 511.238281 461.21875 511.570312 462.820312 511.878906 464.46875 C 512.183594 466.117188 512.460938 467.808594 512.710938 469.535156 C 512.960938 471.265625 513.179688 473.023438 513.367188 474.8125 C 513.558594 476.601562 513.714844 478.414062 513.84375 480.25 C 513.96875 482.082031 514.0625 483.933594 514.128906 485.792969 C 514.191406 487.65625 514.222656 489.519531 514.222656 491.390625 Z M 514.222656 491.390625 " fill-opacity="1" fill-rule="nonzero"/></g><path fill="#ffffff" d="M 505.964844 491.390625 C 505.964844 492.492188 505.949219 493.589844 505.921875 494.6875 C 505.894531 495.78125 505.851562 496.871094 505.792969 497.949219 C 505.738281 499.03125 505.667969 500.097656 505.582031 501.152344 C 505.5 502.207031 505.402344 503.242188 505.292969 504.257812 C 505.179688 505.277344 505.058594 506.269531 504.921875 507.242188 C 504.785156 508.214844 504.636719 509.15625 504.472656 510.070312 C 504.3125 510.988281 504.140625 511.871094 503.957031 512.722656 C 503.773438 513.574219 503.578125 514.390625 503.375 515.167969 C 503.171875 515.945312 502.957031 516.683594 502.734375 517.382812 C 502.507812 518.082031 502.277344 518.738281 502.035156 519.347656 C 501.796875 519.960938 501.546875 520.527344 501.292969 521.046875 C 501.035156 521.566406 500.777344 522.035156 500.507812 522.457031 C 500.242188 522.878906 499.96875 523.25 499.691406 523.566406 C 499.414062 523.886719 499.132812 524.15625 498.851562 524.371094 C 498.566406 524.585938 498.28125 524.746094 497.992188 524.855469 C 497.703125 524.960938 497.414062 525.015625 497.125 525.015625 C 496.835938 525.015625 496.546875 524.960938 496.257812 524.855469 C 495.972656 524.746094 495.6875 524.585938 495.402344 524.371094 C 495.117188 524.15625 494.835938 523.886719 494.558594 523.566406 C 494.285156 523.25 494.011719 522.878906 493.742188 522.457031 C 493.476562 522.035156 493.214844 521.566406 492.960938 521.046875 C 492.703125 520.527344 492.457031 519.960938 492.214844 519.347656 C 491.976562 518.738281 491.742188 518.082031 491.519531 517.382812 C 491.296875 516.683594 491.082031 515.945312 490.875 515.167969 C 490.671875 514.390625 490.476562 513.574219 490.292969 512.722656 C 490.109375 511.871094 489.9375 510.988281 489.777344 510.070312 C 489.617188 509.15625 489.46875 508.214844 489.332031 507.242188 C 489.195312 506.269531 489.070312 505.277344 488.960938 504.257812 C 488.851562 503.242188 488.753906 502.207031 488.667969 501.152344 C 488.585938 500.097656 488.515625 499.03125 488.457031 497.949219 C 488.402344 496.871094 488.359375 495.78125 488.332031 494.6875 C 488.300781 493.589844 488.289062 492.492188 488.289062 491.390625 C 488.289062 490.289062 488.300781 489.191406 488.332031 488.09375 C 488.359375 487 488.402344 485.910156 488.457031 484.832031 C 488.515625 483.75 488.585938 482.683594 488.667969 481.628906 C 488.753906 480.578125 488.851562 479.539062 488.960938 478.523438 C 489.070312 477.507812 489.195312 476.511719 489.332031 475.539062 C 489.46875 474.570312 489.617188 473.625 489.777344 472.710938 C 489.9375 471.792969 490.109375 470.910156 490.292969 470.058594 C 490.476562 469.207031 490.671875 468.394531 490.875 467.613281 C 491.082031 466.835938 491.296875 466.097656 491.519531 465.398438 C 491.742188 464.699219 491.976562 464.042969 492.214844 463.433594 C 492.457031 462.820312 492.703125 462.253906 492.960938 461.738281 C 493.214844 461.21875 493.476562 460.746094 493.742188 460.324219 C 494.011719 459.90625 494.285156 459.535156 494.558594 459.214844 C 494.835938 458.894531 495.117188 458.628906 495.402344 458.414062 C 495.6875 458.199219 495.972656 458.035156 496.257812 457.929688 C 496.546875 457.820312 496.835938 457.765625 497.125 457.765625 C 497.414062 457.765625 497.703125 457.820312 497.992188 457.929688 C 498.28125 458.035156 498.566406 458.199219 498.851562 458.414062 C 499.132812 458.628906 499.414062 458.894531 499.691406 459.214844 C 499.96875 459.535156 500.242188 459.90625 500.507812 460.324219 C 500.777344 460.746094 501.035156 461.21875 501.292969 461.738281 C 501.546875 462.253906 501.796875 462.820312 502.035156 463.433594 C 502.277344 464.042969 502.507812 464.699219 502.734375 465.398438 C 502.957031 466.097656 503.171875 466.835938 503.375 467.613281 C 503.578125 468.394531 503.773438 469.207031 503.957031 470.058594 C 504.140625 470.910156 504.3125 471.792969 504.472656 472.710938 C 504.636719 473.625 504.785156 474.570312 504.921875 475.539062 C 505.058594 476.511719 505.179688 477.507812 505.292969 478.523438 C 505.402344 479.539062 505.5 480.578125 505.582031 481.628906 C 505.667969 482.683594 505.738281 483.75 505.792969 484.832031 C 505.851562 485.910156 505.894531 487 505.921875 488.09375 C 505.949219 489.191406 505.964844 490.289062 505.964844 491.390625 Z M 505.964844 491.390625 " fill-opacity="1" fill-rule="nonzero"/><path fill="#000000" d="M 192.15625 451.46875 C 192.15625 454.273438 192.117188 457.066406 192.035156 459.855469 C 191.953125 462.644531 191.832031 465.414062 191.667969 468.160156 C 191.503906 470.910156 191.300781 473.625 191.058594 476.304688 C 190.816406 478.984375 190.535156 481.621094 190.214844 484.210938 C 189.894531 486.796875 189.535156 489.328125 189.140625 491.800781 C 188.746094 494.269531 188.316406 496.671875 187.851562 499 C 187.386719 501.332031 186.890625 503.578125 186.359375 505.742188 C 185.828125 507.910156 185.269531 509.984375 184.675781 511.964844 C 184.085938 513.945312 183.464844 515.824219 182.820312 517.601562 C 182.171875 519.378906 181.503906 521.046875 180.804688 522.605469 C 180.109375 524.160156 179.394531 525.601562 178.65625 526.921875 C 177.917969 528.242188 177.164062 529.4375 176.390625 530.511719 C 175.617188 531.582031 174.832031 532.523438 174.03125 533.339844 C 173.230469 534.152344 172.421875 534.832031 171.597656 535.378906 C 170.777344 535.925781 169.953125 536.335938 169.121094 536.609375 C 168.289062 536.886719 167.453125 537.023438 166.617188 537.023438 C 165.78125 537.023438 164.945312 536.886719 164.113281 536.609375 C 163.28125 536.335938 162.453125 535.925781 161.632812 535.378906 C 160.8125 534.832031 160.003906 534.152344 159.203125 533.339844 C 158.402344 532.523438 157.617188 531.582031 156.84375 530.511719 C 156.070312 529.4375 155.316406 528.242188 154.578125 526.921875 C 153.839844 525.601562 153.121094 524.160156 152.425781 522.605469 C 151.730469 521.046875 151.058594 519.378906 150.414062 517.601562 C 149.765625 515.824219 149.148438 513.945312 148.558594 511.964844 C 147.964844 509.984375 147.402344 507.910156 146.875 505.742188 C 146.34375 503.578125 145.84375 501.332031 145.378906 499 C 144.914062 496.671875 144.484375 494.269531 144.089844 491.800781 C 143.699219 489.328125 143.339844 486.796875 143.019531 484.210938 C 142.699219 481.621094 142.417969 478.984375 142.175781 476.304688 C 141.933594 473.625 141.730469 470.910156 141.566406 468.160156 C 141.402344 465.414062 141.28125 462.644531 141.199219 459.855469 C 141.117188 457.066406 141.074219 454.273438 141.074219 451.46875 C 141.074219 448.667969 141.117188 445.875 141.199219 443.085938 C 141.28125 440.296875 141.402344 437.527344 141.566406 434.78125 C 141.730469 432.03125 141.933594 429.316406 142.175781 426.636719 C 142.417969 423.953125 142.699219 421.320312 143.019531 418.730469 C 143.339844 416.140625 143.699219 413.613281 144.09375 411.140625 C 144.484375 408.671875 144.914062 406.269531 145.378906 403.941406 C 145.84375 401.609375 146.34375 399.363281 146.875 397.195312 C 147.402344 395.03125 147.964844 392.957031 148.558594 390.976562 C 149.148438 388.996094 149.765625 387.113281 150.414062 385.335938 C 151.058594 383.558594 151.730469 381.894531 152.425781 380.335938 C 153.121094 378.78125 153.839844 377.339844 154.578125 376.019531 C 155.316406 374.699219 156.070312 373.503906 156.84375 372.429688 C 157.617188 371.359375 158.402344 370.414062 159.203125 369.601562 C 160.003906 368.789062 160.8125 368.109375 161.632812 367.5625 C 162.453125 367.015625 163.28125 366.605469 164.113281 366.328125 C 164.945312 366.054688 165.78125 365.917969 166.617188 365.917969 C 167.453125 365.917969 168.289062 366.054688 169.121094 366.328125 C 169.953125 366.605469 170.777344 367.015625 171.597656 367.5625 C 172.421875 368.109375 173.230469 368.789062 174.03125 369.601562 C 174.832031 370.414062 175.617188 371.359375 176.390625 372.429688 C 177.164062 373.503906 177.917969 374.699219 178.65625 376.019531 C 179.394531 377.339844 180.109375 378.78125 180.804688 380.335938 C 181.503906 381.894531 182.171875 383.558594 182.820312 385.335938 C 183.464844 387.113281 184.085938 388.996094 184.675781 390.976562 C 185.269531 392.957031 185.828125 395.03125 186.359375 397.195312 C 186.890625 399.363281 187.386719 401.609375 187.851562 403.941406 C 188.316406 406.269531 188.746094 408.671875 189.140625 411.140625 C 189.535156 413.613281 189.894531 416.140625 190.214844 418.730469 C 190.535156 421.320312 190.816406 423.953125 191.058594 426.636719 C 191.300781 429.316406 191.503906 432.03125 191.667969 434.78125 C 191.832031 437.527344 191.953125 440.296875 192.035156 443.085938 C 192.117188 445.875 192.15625 448.667969 192.15625 451.46875 Z M 192.15625 451.46875 " fill-opacity="1" fill-rule="nonzero"/><path fill="#000000" d="M 166.617188 365.925781 L 241.953125 365.925781 L 241.953125 537.023438 L 166.617188 537.023438 Z M 166.617188 365.925781 " fill-opacity="1" fill-rule="nonzero"/><path fill="#000000" d="M 267.492188 451.46875 C 267.492188 454.273438 267.453125 457.066406 267.371094 459.855469 C 267.289062 462.644531 267.164062 465.414062 267 468.160156 C 266.839844 470.910156 266.636719 473.625 266.394531 476.304688 C 266.148438 478.984375 265.867188 481.621094 265.546875 484.210938 C 265.226562 486.796875 264.871094 489.328125 264.476562 491.800781 C 264.082031 494.269531 263.652344 496.671875 263.1875 499 C 262.722656 501.332031 262.226562 503.578125 261.695312 505.742188 C 261.164062 507.910156 260.601562 509.984375 260.011719 511.964844 C 259.421875 513.945312 258.800781 515.824219 258.15625 517.601562 C 257.507812 519.378906 256.835938 521.046875 256.140625 522.605469 C 255.445312 524.160156 254.730469 525.601562 253.992188 526.921875 C 253.253906 528.242188 252.5 529.4375 251.726562 530.511719 C 250.953125 531.582031 250.167969 532.523438 249.367188 533.339844 C 248.566406 534.152344 247.753906 534.832031 246.933594 535.378906 C 246.113281 535.925781 245.289062 536.335938 244.457031 536.609375 C 243.621094 536.886719 242.789062 537.023438 241.953125 537.023438 C 241.113281 537.023438 240.28125 536.886719 239.449219 536.609375 C 238.617188 536.335938 237.789062 535.925781 236.96875 535.378906 C 236.148438 534.832031 235.339844 534.152344 234.539062 533.339844 C 233.738281 532.523438 232.949219 531.582031 232.175781 530.511719 C 231.40625 529.4375 230.648438 528.242188 229.910156 526.921875 C 229.175781 525.601562 228.457031 524.160156 227.761719 522.605469 C 227.066406 521.046875 226.394531 519.378906 225.75 517.601562 C 225.101562 515.824219 224.484375 513.945312 223.890625 511.964844 C 223.300781 509.984375 222.738281 507.910156 222.207031 505.742188 C 221.675781 503.578125 221.179688 501.332031 220.714844 499 C 220.25 496.671875 219.820312 494.269531 219.425781 491.800781 C 219.03125 489.328125 218.675781 486.796875 218.355469 484.210938 C 218.035156 481.621094 217.753906 478.984375 217.511719 476.304688 C 217.269531 473.625 217.066406 470.910156 216.902344 468.160156 C 216.738281 465.414062 216.617188 462.644531 216.535156 459.855469 C 216.453125 457.066406 216.410156 454.273438 216.410156 451.46875 C 216.410156 448.667969 216.453125 445.875 216.535156 443.085938 C 216.617188 440.296875 216.738281 437.527344 216.902344 434.78125 C 217.066406 432.03125 217.269531 429.316406 217.511719 426.636719 C 217.753906 423.953125 218.035156 421.320312 218.355469 418.730469 C 218.675781 416.140625 219.03125 413.613281 219.425781 411.140625 C 219.820312 408.671875 220.25 406.269531 220.714844 403.941406 C 221.179688 401.609375 221.675781 399.363281 222.207031 397.195312 C 222.738281 395.03125 223.300781 392.957031 223.890625 390.976562 C 224.484375 388.996094 225.101562 387.113281 225.75 385.335938 C 226.394531 383.558594 227.066406 381.894531 227.761719 380.335938 C 228.457031 378.78125 229.175781 377.339844 229.910156 376.019531 C 230.648438 374.699219 231.40625 373.503906 232.175781 372.429688 C 232.949219 371.359375 233.738281 370.414062 234.539062 369.601562 C 235.339844 368.789062 236.148438 368.109375 236.96875 367.5625 C 237.789062 367.015625 238.617188 366.605469 239.449219 366.328125 C 240.28125 366.054688 241.113281 365.917969 241.953125 365.917969 C 242.789062 365.917969 243.621094 366.054688 244.457031 366.328125 C 245.289062 366.605469 246.113281 367.015625 246.933594 367.5625 C 247.753906 368.109375 248.566406 368.789062 249.367188 369.601562 C 250.167969 370.414062 250.953125 371.359375 251.726562 372.429688 C 252.5 373.503906 253.253906 374.699219 253.992188 376.019531 C 254.730469 377.339844 255.445312 378.78125 256.140625 380.335938 C 256.835938 381.894531 257.507812 383.558594 258.15625 385.335938 C 258.800781 387.113281 259.421875 388.996094 260.011719 390.976562 C 260.601562 392.957031 261.164062 395.03125 261.695312 397.195312 C 262.226562 399.363281 262.722656 401.609375 263.1875 403.941406 C 263.652344 406.269531 264.082031 408.671875 264.476562 411.140625 C 264.871094 413.613281 265.226562 416.140625 265.546875 418.730469 C 265.867188 421.320312 266.148438 423.953125 266.394531 426.636719 C 266.636719 429.316406 266.839844 432.03125 267 434.78125 C 267.164062 437.527344 267.289062 440.296875 267.371094 443.085938 C 267.453125 445.875 267.492188 448.667969 267.492188 451.46875 Z M 267.492188 451.46875 " fill-opacity="1" fill-rule="nonzero"/><path fill="#ffffff" d="M 256.875 451.46875 C 256.875 453.121094 256.859375 454.765625 256.820312 456.40625 C 256.785156 458.046875 256.730469 459.679688 256.660156 461.296875 C 256.585938 462.914062 256.496094 464.511719 256.386719 466.089844 C 256.28125 467.667969 256.152344 469.222656 256.011719 470.746094 C 255.871094 472.269531 255.710938 473.757812 255.535156 475.214844 C 255.359375 476.667969 255.167969 478.082031 254.960938 479.453125 C 254.753906 480.824219 254.535156 482.148438 254.296875 483.421875 C 254.0625 484.699219 253.8125 485.917969 253.546875 487.085938 C 253.285156 488.253906 253.011719 489.359375 252.722656 490.40625 C 252.433594 491.453125 252.136719 492.433594 251.828125 493.347656 C 251.519531 494.265625 251.199219 495.113281 250.871094 495.890625 C 250.542969 496.667969 250.207031 497.371094 249.863281 498.003906 C 249.519531 498.636719 249.167969 499.191406 248.8125 499.667969 C 248.457031 500.148438 248.097656 500.546875 247.730469 500.871094 C 247.367188 501.191406 247 501.433594 246.628906 501.59375 C 246.257812 501.757812 245.886719 501.839844 245.515625 501.839844 C 245.140625 501.839844 244.769531 501.757812 244.402344 501.59375 C 244.03125 501.433594 243.664062 501.191406 243.296875 500.871094 C 242.933594 500.546875 242.574219 500.148438 242.214844 499.667969 C 241.859375 499.191406 241.511719 498.636719 241.167969 498.003906 C 240.824219 497.371094 240.488281 496.667969 240.160156 495.890625 C 239.832031 495.113281 239.511719 494.265625 239.203125 493.347656 C 238.894531 492.433594 238.59375 491.453125 238.304688 490.40625 C 238.019531 489.359375 237.742188 488.253906 237.480469 487.085938 C 237.21875 485.917969 236.96875 484.699219 236.730469 483.421875 C 236.496094 482.148438 236.273438 480.824219 236.066406 479.453125 C 235.859375 478.082031 235.667969 476.667969 235.496094 475.214844 C 235.320312 473.757812 235.160156 472.269531 235.015625 470.746094 C 234.875 469.222656 234.75 467.667969 234.640625 466.089844 C 234.535156 464.511719 234.445312 462.914062 234.371094 461.296875 C 234.296875 459.679688 234.242188 458.046875 234.207031 456.40625 C 234.171875 454.765625 234.152344 453.121094 234.152344 451.46875 C 234.152344 449.820312 234.171875 448.175781 234.207031 446.535156 C 234.242188 444.890625 234.296875 443.261719 234.371094 441.644531 C 234.445312 440.027344 234.535156 438.425781 234.640625 436.847656 C 234.75 435.269531 234.875 433.71875 235.015625 432.195312 C 235.160156 430.671875 235.320312 429.183594 235.496094 427.726562 C 235.667969 426.273438 235.859375 424.859375 236.066406 423.488281 C 236.273438 422.117188 236.496094 420.792969 236.730469 419.515625 C 236.96875 418.242188 237.21875 417.019531 237.480469 415.855469 C 237.742188 414.6875 238.019531 413.582031 238.304688 412.535156 C 238.59375 411.488281 238.894531 410.507812 239.203125 409.589844 C 239.511719 408.675781 239.832031 407.828125 240.160156 407.050781 C 240.488281 406.273438 240.824219 405.566406 241.167969 404.9375 C 241.511719 404.304688 241.859375 403.75 242.214844 403.269531 C 242.574219 402.792969 242.933594 402.390625 243.296875 402.070312 C 243.664062 401.75 244.03125 401.507812 244.402344 401.34375 C 244.769531 401.183594 245.140625 401.101562 245.515625 401.101562 C 245.886719 401.101562 246.257812 401.183594 246.628906 401.34375 C 247 401.507812 247.367188 401.75 247.730469 402.070312 C 248.097656 402.390625 248.457031 402.792969 248.8125 403.269531 C 249.167969 403.75 249.519531 404.304688 249.863281 404.9375 C 250.207031 405.566406 250.542969 406.273438 250.871094 407.050781 C 251.199219 407.828125 251.519531 408.675781 251.828125 409.589844 C 252.136719 410.507812 252.433594 411.488281 252.722656 412.535156 C 253.011719 413.582031 253.285156 414.6875 253.546875 415.855469 C 253.8125 417.019531 254.0625 418.242188 254.296875 419.515625 C 254.535156 420.792969 254.753906 422.117188 254.960938 423.488281 C 255.167969 424.859375 255.359375 426.273438 255.535156 427.726562 C 255.710938 429.183594 255.871094 430.671875 256.011719 432.195312 C 256.152344 433.71875 256.28125 435.269531 256.386719 436.847656 C 256.496094 438.425781 256.585938 440.027344 256.660156 441.644531 C 256.730469 443.261719 256.785156 444.890625 256.820312 446.535156 C 256.859375 448.175781 256.875 449.820312 256.875 451.46875 Z M 256.875 451.46875 " fill-opacity="1" fill-rule="nonzero"/><g clip-path="url(#221accbd0f)"><path fill="#1655b2" d="M 805.273438 205.96875 L 803.492188 276.542969 L 798.007812 498.472656 L 593.25 498.472656 L 571.59375 473.09375 L 570.59375 471.882812 L 563.753906 471.667969 L 119.972656 459.835938 L 106.933594 366.585938 L 109.425781 284.984375 C 108.214844 276.503906 94.394531 260.078125 97.671875 252.378906 C 100.257812 246.066406 104.03125 240.578125 109 235.910156 L 152.105469 195.703125 L 185.945312 57.1875 C 185.933594 57.101562 185.960938 57.03125 186.015625 56.96875 C 186.339844 55.695312 186.765625 54.457031 187.289062 53.25 C 187.816406 52.042969 188.433594 50.886719 189.144531 49.78125 C 189.855469 48.675781 190.648438 47.632812 191.527344 46.65625 C 192.40625 45.679688 193.359375 44.777344 194.382812 43.953125 C 195.40625 43.128906 196.492188 42.394531 197.632812 41.746094 C 198.777344 41.097656 199.964844 40.542969 201.199219 40.085938 C 202.429688 39.628906 203.691406 39.273438 204.980469 39.019531 C 206.269531 38.769531 207.574219 38.621094 208.886719 38.578125 L 579.855469 27.597656 C 584.355469 27.476562 588.796875 27.929688 593.179688 28.957031 C 597.007812 29.820312 600.683594 31.113281 604.210938 32.835938 C 607.734375 34.558594 611.015625 36.660156 614.054688 39.148438 L 784.96875 188.285156 Z M 805.273438 205.96875 " fill-opacity="1" fill-rule="nonzero"/></g><path fill="#1655b2" d="M 805.273438 205.96875 L 803.492188 276.542969 L 793.730469 331.867188 C 793.730469 331.867188 638.492188 388.257812 599.164062 401.089844 C 559.765625 413.996094 536.609375 347.265625 536.609375 347.265625 L 557.273438 232.488281 L 573.015625 215.664062 L 593.179688 28.957031 C 597.007812 29.820312 600.683594 31.113281 604.210938 32.835938 C 607.734375 34.558594 611.015625 36.660156 614.054688 39.148438 L 784.96875 188.285156 Z M 805.273438 205.96875 " fill-opacity="1" fill-rule="nonzero"/><path fill="#000000" d="M 796.140625 445.34375 L 806.449219 459.230469 L 806.449219 472.042969 L 797.988281 498.457031 L 793.71875 451.105469 Z M 796.140625 445.34375 " fill-opacity="1" fill-rule="nonzero"/><path fill="#002149" d="M 805.257812 205.945312 L 797.992188 498.453125 L 593.234375 498.453125 L 571.578125 473.074219 L 570.578125 471.863281 L 563.742188 471.644531 L 555.546875 416.253906 C 555.546875 416.253906 688.5625 369.0625 735.226562 328.566406 C 767.5 300.546875 780.179688 229.542969 784.953125 188.265625 Z M 805.257812 205.945312 " fill-opacity="1" fill-rule="nonzero"/><path fill="#000000" d="M 791.296875 498.453125 L 767.429688 498.453125 L 751.183594 484.195312 L 751.042969 436.570312 C 751.042969 436.570312 754.535156 421.460938 777.117188 433.007812 C 792.148438 440.707031 792.648438 475.921875 791.296875 498.453125 Z M 791.296875 498.453125 " fill-opacity="1" fill-rule="nonzero"/><path fill="#000000" d="M 665.191406 498.453125 L 593.234375 498.453125 L 584.503906 477.195312 L 605.347656 368.773438 C 605.625 367.933594 605.949219 367.109375 606.324219 366.300781 C 606.695312 365.496094 607.109375 364.714844 607.570312 363.957031 C 608.03125 363.195312 608.535156 362.464844 609.078125 361.765625 C 609.621094 361.0625 610.203125 360.394531 610.820312 359.757812 C 611.441406 359.125 612.09375 358.523438 612.78125 357.964844 C 613.46875 357.402344 614.1875 356.882812 614.933594 356.402344 C 615.679688 355.921875 616.449219 355.484375 617.246094 355.09375 C 618.039062 354.703125 618.855469 354.355469 619.691406 354.054688 C 620.527344 353.757812 621.375 353.503906 622.238281 353.300781 C 623.101562 353.097656 623.976562 352.945312 624.855469 352.839844 C 625.738281 352.738281 626.621094 352.683594 627.507812 352.679688 C 628.394531 352.675781 629.28125 352.722656 630.160156 352.820312 C 631.042969 352.917969 631.917969 353.0625 632.78125 353.257812 C 633.648438 353.453125 634.5 353.699219 635.335938 353.992188 C 636.171875 354.285156 636.992188 354.625 637.789062 355.011719 C 638.589844 355.394531 639.363281 355.824219 640.113281 356.300781 C 663.484375 368.0625 663.554688 457.175781 665.191406 498.453125 Z M 665.191406 498.453125 " fill-opacity="1" fill-rule="nonzero"/><path fill="#000000" d="M 580.839844 464.820312 C 579.34375 507.167969 568.585938 539.890625 555.546875 539.890625 C 542.511719 539.890625 531.753906 507.167969 530.257812 464.820312 Z M 580.839844 464.820312 " fill-opacity="1" fill-rule="nonzero"/><path fill="#000000" d="M 630.855469 368.792969 L 630.855469 539.886719 L 555.546875 539.886719 L 555.546875 464.820312 L 581.054688 464.820312 C 581.054688 464.820312 595.019531 394.882812 605.347656 368.792969 Z M 630.855469 368.792969 " fill-opacity="1" fill-rule="nonzero"/><path fill="#000000" d="M 656.421875 454.355469 C 656.421875 457.15625 656.378906 459.953125 656.296875 462.738281 C 656.214844 465.527344 656.09375 468.296875 655.929688 471.046875 C 655.765625 473.792969 655.5625 476.507812 655.320312 479.1875 C 655.078125 481.871094 654.796875 484.503906 654.476562 487.09375 C 654.15625 489.683594 653.800781 492.210938 653.40625 494.683594 C 653.011719 497.15625 652.582031 499.554688 652.117188 501.886719 C 651.652344 504.214844 651.15625 506.460938 650.625 508.628906 C 650.09375 510.792969 649.53125 512.867188 648.941406 514.847656 C 648.347656 516.832031 647.730469 518.710938 647.082031 520.488281 C 646.4375 522.265625 645.765625 523.933594 645.070312 525.488281 C 644.375 527.046875 643.65625 528.484375 642.921875 529.804688 C 642.183594 531.125 641.425781 532.324219 640.65625 533.394531 C 639.882812 534.46875 639.09375 535.410156 638.292969 536.222656 C 637.496094 537.035156 636.683594 537.714844 635.863281 538.261719 C 635.042969 538.808594 634.214844 539.21875 633.382812 539.496094 C 632.550781 539.769531 631.71875 539.90625 630.878906 539.90625 C 630.042969 539.90625 629.210938 539.769531 628.378906 539.496094 C 627.542969 539.21875 626.71875 538.808594 625.898438 538.261719 C 625.078125 537.714844 624.265625 537.035156 623.464844 536.222656 C 622.664062 535.410156 621.878906 534.46875 621.105469 533.394531 C 620.332031 532.324219 619.578125 531.125 618.839844 529.804688 C 618.101562 528.484375 617.386719 527.046875 616.691406 525.488281 C 615.996094 523.933594 615.324219 522.265625 614.675781 520.488281 C 614.03125 518.710938 613.410156 516.832031 612.820312 514.847656 C 612.230469 512.867188 611.667969 510.792969 611.136719 508.628906 C 610.605469 506.460938 610.109375 504.214844 609.644531 501.886719 C 609.179688 499.554688 608.75 497.15625 608.355469 494.683594 C 607.960938 492.210938 607.605469 489.683594 607.285156 487.09375 C 606.964844 484.503906 606.683594 481.871094 606.441406 479.1875 C 606.195312 476.507812 605.992188 473.792969 605.832031 471.046875 C 605.667969 468.296875 605.542969 465.527344 605.460938 462.738281 C 605.378906 459.953125 605.339844 457.15625 605.339844 454.355469 C 605.339844 451.550781 605.378906 448.757812 605.460938 445.96875 C 605.542969 443.179688 605.667969 440.414062 605.832031 437.664062 C 605.992188 434.917969 606.195312 432.203125 606.441406 429.519531 C 606.683594 426.839844 606.964844 424.203125 607.285156 421.613281 C 607.605469 419.027344 607.960938 416.496094 608.355469 414.027344 C 608.75 411.554688 609.179688 409.152344 609.644531 406.824219 C 610.109375 404.496094 610.605469 402.246094 611.136719 400.082031 C 611.667969 397.914062 612.230469 395.839844 612.820312 393.859375 C 613.410156 391.878906 614.03125 390 614.675781 388.222656 C 615.324219 386.445312 615.996094 384.777344 616.691406 383.21875 C 617.386719 381.664062 618.101562 380.226562 618.839844 378.902344 C 619.578125 377.582031 620.332031 376.386719 621.105469 375.316406 C 621.878906 374.242188 622.664062 373.300781 623.464844 372.484375 C 624.265625 371.671875 625.078125 370.992188 625.898438 370.445312 C 626.71875 369.898438 627.542969 369.488281 628.378906 369.214844 C 629.210938 368.941406 630.042969 368.800781 630.878906 368.800781 C 631.71875 368.800781 632.550781 368.941406 633.382812 369.214844 C 634.214844 369.488281 635.042969 369.898438 635.863281 370.445312 C 636.683594 370.992188 637.496094 371.671875 638.292969 372.484375 C 639.09375 373.300781 639.882812 374.242188 640.65625 375.316406 C 641.425781 376.386719 642.183594 377.582031 642.921875 378.902344 C 643.65625 380.226562 644.375 381.664062 645.070312 383.21875 C 645.765625 384.777344 646.4375 386.445312 647.082031 388.222656 C 647.730469 390 648.347656 391.878906 648.941406 393.859375 C 649.53125 395.839844 650.09375 397.914062 650.625 400.082031 C 651.15625 402.246094 651.652344 404.496094 652.117188 406.824219 C 652.582031 409.152344 653.011719 411.554688 653.40625 414.027344 C 653.800781 416.496094 654.15625 419.027344 654.476562 421.613281 C 654.796875 424.203125 655.078125 426.839844 655.320312 429.519531 C 655.5625 432.203125 655.765625 434.917969 655.929688 437.664062 C 656.09375 440.414062 656.214844 443.179688 656.296875 445.96875 C 656.378906 448.757812 656.421875 451.550781 656.421875 454.355469 Z M 656.421875 454.355469 " fill-opacity="1" fill-rule="nonzero"/><path fill="#ffffff" d="M 645.8125 454.355469 C 645.8125 456.003906 645.792969 457.648438 645.757812 459.292969 C 645.722656 460.933594 645.667969 462.5625 645.59375 464.179688 C 645.523438 465.800781 645.433594 467.398438 645.324219 468.976562 C 645.214844 470.554688 645.089844 472.105469 644.949219 473.628906 C 644.804688 475.152344 644.648438 476.644531 644.472656 478.097656 C 644.296875 479.554688 644.105469 480.964844 643.898438 482.335938 C 643.691406 483.710938 643.46875 485.03125 643.234375 486.308594 C 642.996094 487.582031 642.75 488.804688 642.484375 489.96875 C 642.222656 491.136719 641.945312 492.242188 641.660156 493.289062 C 641.371094 494.335938 641.074219 495.316406 640.761719 496.234375 C 640.453125 497.152344 640.136719 497.996094 639.808594 498.773438 C 639.480469 499.554688 639.144531 500.257812 638.800781 500.886719 C 638.457031 501.519531 638.105469 502.074219 637.75 502.554688 C 637.394531 503.03125 637.03125 503.433594 636.667969 503.753906 C 636.300781 504.078125 635.933594 504.316406 635.566406 504.480469 C 635.195312 504.640625 634.824219 504.722656 634.449219 504.722656 C 634.078125 504.722656 633.707031 504.640625 633.335938 504.480469 C 632.96875 504.316406 632.597656 504.078125 632.234375 503.753906 C 631.871094 503.433594 631.507812 503.03125 631.152344 502.554688 C 630.796875 502.074219 630.445312 501.519531 630.101562 500.886719 C 629.757812 500.257812 629.421875 499.554688 629.09375 498.773438 C 628.765625 497.996094 628.449219 497.152344 628.136719 496.234375 C 627.828125 495.316406 627.53125 494.335938 627.242188 493.289062 C 626.957031 492.242188 626.679688 491.136719 626.417969 489.96875 C 626.152344 488.804688 625.902344 487.582031 625.667969 486.308594 C 625.433594 485.03125 625.210938 483.710938 625.003906 482.335938 C 624.796875 480.964844 624.605469 479.550781 624.429688 478.097656 C 624.253906 476.644531 624.097656 475.152344 623.953125 473.628906 C 623.8125 472.105469 623.6875 470.554688 623.578125 468.976562 C 623.46875 467.398438 623.378906 465.800781 623.308594 464.179688 C 623.234375 462.5625 623.179688 460.933594 623.144531 459.292969 C 623.105469 457.648438 623.089844 456.003906 623.089844 454.355469 C 623.089844 452.703125 623.105469 451.058594 623.144531 449.417969 C 623.179688 447.777344 623.234375 446.144531 623.308594 444.527344 C 623.378906 442.910156 623.46875 441.3125 623.578125 439.734375 C 623.6875 438.15625 623.8125 436.605469 623.953125 435.078125 C 624.097656 433.554688 624.253906 432.066406 624.429688 430.609375 C 624.605469 429.15625 624.796875 427.742188 625.003906 426.371094 C 625.210938 425 625.433594 423.675781 625.667969 422.402344 C 625.902344 421.125 626.152344 419.90625 626.417969 418.738281 C 626.679688 417.574219 626.957031 416.464844 627.242188 415.417969 C 627.53125 414.375 627.828125 413.390625 628.136719 412.476562 C 628.449219 411.558594 628.765625 410.710938 629.09375 409.933594 C 629.421875 409.15625 629.757812 408.453125 630.101562 407.820312 C 630.445312 407.1875 630.796875 406.632812 631.152344 406.15625 C 631.507812 405.675781 631.871094 405.277344 632.234375 404.953125 C 632.597656 404.632812 632.96875 404.390625 633.335938 404.230469 C 633.707031 404.066406 634.078125 403.988281 634.449219 403.988281 C 634.824219 403.988281 635.195312 404.066406 635.566406 404.230469 C 635.933594 404.390625 636.300781 404.632812 636.667969 404.953125 C 637.03125 405.277344 637.394531 405.675781 637.75 406.15625 C 638.105469 406.632812 638.457031 407.1875 638.800781 407.820312 C 639.144531 408.453125 639.480469 409.15625 639.808594 409.933594 C 640.136719 410.710938 640.453125 411.558594 640.761719 412.476562 C 641.074219 413.390625 641.371094 414.375 641.660156 415.417969 C 641.945312 416.464844 642.222656 417.574219 642.484375 418.738281 C 642.75 419.90625 642.996094 421.125 643.234375 422.402344 C 643.46875 423.675781 643.691406 425 643.898438 426.371094 C 644.105469 427.742188 644.296875 429.15625 644.472656 430.609375 C 644.648438 432.066406 644.804688 433.554688 644.949219 435.078125 C 645.089844 436.605469 645.214844 438.15625 645.324219 439.734375 C 645.433594 441.3125 645.523438 442.910156 645.59375 444.527344 C 645.667969 446.144531 645.722656 447.777344 645.757812 449.417969 C 645.792969 451.058594 645.8125 452.703125 645.8125 454.355469 Z M 645.8125 454.355469 " fill-opacity="1" fill-rule="nonzero"/><path fill="#000000" d="M 640.128906 456.097656 C 640.128906 457.007812 640.117188 457.917969 640.101562 458.824219 C 640.082031 459.734375 640.054688 460.632812 640.019531 461.527344 C 639.984375 462.421875 639.9375 463.304688 639.882812 464.175781 C 639.828125 465.050781 639.765625 465.90625 639.695312 466.75 C 639.625 467.589844 639.546875 468.414062 639.457031 469.21875 C 639.371094 470.023438 639.273438 470.804688 639.171875 471.5625 C 639.066406 472.320312 638.957031 473.050781 638.839844 473.753906 C 638.722656 474.460938 638.597656 475.132812 638.464844 475.777344 C 638.332031 476.421875 638.195312 477.035156 638.050781 477.613281 C 637.910156 478.191406 637.757812 478.734375 637.605469 479.238281 C 637.449219 479.746094 637.292969 480.214844 637.128906 480.644531 C 636.964844 481.074219 636.796875 481.464844 636.625 481.8125 C 636.453125 482.160156 636.277344 482.46875 636.097656 482.734375 C 635.921875 482.996094 635.742188 483.21875 635.558594 483.394531 C 635.375 483.574219 635.191406 483.707031 635.007812 483.796875 C 634.824219 483.886719 634.636719 483.929688 634.449219 483.929688 C 634.265625 483.929688 634.078125 483.886719 633.894531 483.796875 C 633.710938 483.707031 633.527344 483.574219 633.34375 483.394531 C 633.160156 483.21875 632.980469 482.996094 632.804688 482.734375 C 632.625 482.46875 632.449219 482.160156 632.277344 481.8125 C 632.105469 481.464844 631.9375 481.074219 631.773438 480.644531 C 631.609375 480.214844 631.449219 479.746094 631.296875 479.238281 C 631.140625 478.734375 630.992188 478.191406 630.847656 477.613281 C 630.707031 477.035156 630.566406 476.421875 630.4375 475.777344 C 630.304688 475.132812 630.179688 474.460938 630.0625 473.753906 C 629.945312 473.050781 629.832031 472.320312 629.730469 471.5625 C 629.628906 470.804688 629.53125 470.023438 629.445312 469.21875 C 629.355469 468.414062 629.277344 467.589844 629.207031 466.75 C 629.132812 465.90625 629.070312 465.050781 629.019531 464.175781 C 628.964844 463.304688 628.917969 462.421875 628.882812 461.527344 C 628.847656 460.632812 628.820312 459.734375 628.800781 458.824219 C 628.78125 457.917969 628.773438 457.007812 628.773438 456.097656 C 628.773438 455.183594 628.78125 454.277344 628.800781 453.367188 C 628.820312 452.460938 628.847656 451.5625 628.882812 450.667969 C 628.917969 449.773438 628.964844 448.890625 629.019531 448.015625 C 629.070312 447.144531 629.132812 446.289062 629.207031 445.445312 C 629.277344 444.601562 629.355469 443.78125 629.445312 442.976562 C 629.53125 442.171875 629.628906 441.390625 629.730469 440.632812 C 629.832031 439.875 629.945312 439.144531 630.0625 438.4375 C 630.179688 437.734375 630.304688 437.058594 630.4375 436.414062 C 630.566406 435.769531 630.707031 435.160156 630.847656 434.582031 C 630.992188 434.003906 631.140625 433.460938 631.296875 432.953125 C 631.449219 432.445312 631.609375 431.980469 631.773438 431.550781 C 631.9375 431.121094 632.105469 430.730469 632.277344 430.382812 C 632.449219 430.03125 632.625 429.726562 632.804688 429.460938 C 632.980469 429.195312 633.160156 428.976562 633.34375 428.796875 C 633.527344 428.621094 633.710938 428.484375 633.894531 428.398438 C 634.078125 428.308594 634.265625 428.261719 634.449219 428.261719 C 634.636719 428.261719 634.824219 428.308594 635.007812 428.398438 C 635.191406 428.484375 635.375 428.621094 635.558594 428.796875 C 635.742188 428.976562 635.921875 429.195312 636.097656 429.460938 C 636.277344 429.726562 636.453125 430.03125 636.625 430.382812 C 636.796875 430.730469 636.964844 431.121094 637.128906 431.550781 C 637.292969 431.980469 637.449219 432.445312 637.605469 432.953125 C 637.757812 433.460938 637.910156 434.003906 638.050781 434.582031 C 638.195312 435.160156 638.332031 435.769531 638.464844 436.414062 C 638.597656 437.058594 638.722656 437.734375 638.839844 438.4375 C 638.957031 439.144531 639.066406 439.875 639.171875 440.632812 C 639.273438 441.390625 639.371094 442.171875 639.457031 442.976562 C 639.546875 443.78125 639.625 444.601562 639.695312 445.445312 C 639.765625 446.289062 639.828125 447.144531 639.882812 448.015625 C 639.9375 448.890625 639.984375 449.773438 640.019531 450.667969 C 640.054688 451.5625 640.082031 452.460938 640.101562 453.367188 C 640.117188 454.277344 640.128906 455.183594 640.128906 456.097656 Z M 640.128906 456.097656 " fill-opacity="1" fill-rule="nonzero"/><path fill="#000000" d="M 735.238281 498.441406 C 734.273438 525.734375 727.339844 546.824219 718.9375 546.824219 C 710.535156 546.824219 703.601562 525.734375 702.636719 498.441406 Z M 735.238281 498.441406 " fill-opacity="1" fill-rule="nonzero"/><path fill="#000000" d="M 767.472656 436.546875 L 767.472656 546.824219 L 718.9375 546.824219 L 718.9375 498.441406 L 735.375 498.441406 C 739.414062 477.511719 744.632812 456.878906 751.035156 436.546875 Z M 767.472656 436.546875 " fill-opacity="1" fill-rule="nonzero"/><path fill="#000000" d="M 783.957031 491.691406 C 783.957031 493.496094 783.929688 495.300781 783.878906 497.097656 C 783.824219 498.894531 783.746094 500.675781 783.640625 502.449219 C 783.535156 504.21875 783.40625 505.96875 783.25 507.699219 C 783.09375 509.425781 782.910156 511.125 782.703125 512.792969 C 782.496094 514.460938 782.269531 516.09375 782.011719 517.683594 C 781.757812 519.277344 781.484375 520.824219 781.183594 522.324219 C 780.882812 523.828125 780.5625 525.277344 780.222656 526.671875 C 779.878906 528.070312 779.515625 529.40625 779.136719 530.683594 C 778.753906 531.960938 778.355469 533.171875 777.9375 534.316406 C 777.523438 535.460938 777.089844 536.535156 776.640625 537.539062 C 776.191406 538.542969 775.730469 539.46875 775.253906 540.320312 C 774.78125 541.171875 774.292969 541.945312 773.796875 542.636719 C 773.296875 543.328125 772.789062 543.933594 772.273438 544.457031 C 771.757812 544.984375 771.234375 545.421875 770.707031 545.773438 C 770.179688 546.125 769.644531 546.390625 769.109375 546.566406 C 768.574219 546.742188 768.035156 546.832031 767.496094 546.832031 C 766.957031 546.832031 766.417969 546.742188 765.882812 546.566406 C 765.347656 546.390625 764.8125 546.125 764.285156 545.773438 C 763.753906 545.421875 763.234375 544.980469 762.71875 544.457031 C 762.203125 543.933594 761.695312 543.328125 761.195312 542.636719 C 760.699219 541.945312 760.210938 541.171875 759.734375 540.320312 C 759.261719 539.46875 758.796875 538.542969 758.351562 537.539062 C 757.902344 536.535156 757.46875 535.460938 757.054688 534.316406 C 756.636719 533.171875 756.238281 531.960938 755.855469 530.683594 C 755.476562 529.40625 755.113281 528.070312 754.769531 526.671875 C 754.429688 525.277344 754.109375 523.828125 753.808594 522.324219 C 753.507812 520.824219 753.230469 519.277344 752.976562 517.683594 C 752.722656 516.09375 752.492188 514.460938 752.289062 512.792969 C 752.082031 511.125 751.898438 509.425781 751.742188 507.699219 C 751.585938 505.96875 751.457031 504.21875 751.351562 502.449219 C 751.246094 500.675781 751.167969 498.894531 751.113281 497.097656 C 751.0625 495.300781 751.035156 493.496094 751.035156 491.691406 C 751.035156 489.886719 751.0625 488.082031 751.113281 486.285156 C 751.167969 484.488281 751.246094 482.707031 751.351562 480.933594 C 751.457031 479.164062 751.585938 477.414062 751.742188 475.683594 C 751.898438 473.957031 752.082031 472.257812 752.289062 470.589844 C 752.492188 468.921875 752.722656 467.289062 752.976562 465.699219 C 753.230469 464.105469 753.507812 462.558594 753.808594 461.054688 C 754.109375 459.554688 754.429688 458.105469 754.769531 456.710938 C 755.113281 455.3125 755.476562 453.976562 755.855469 452.699219 C 756.238281 451.421875 756.636719 450.210938 757.054688 449.066406 C 757.46875 447.921875 757.902344 446.847656 758.351562 445.84375 C 758.796875 444.839844 759.261719 443.914062 759.734375 443.0625 C 760.210938 442.210938 760.699219 441.4375 761.195312 440.746094 C 761.695312 440.054688 762.203125 439.449219 762.71875 438.925781 C 763.234375 438.398438 763.753906 437.960938 764.285156 437.609375 C 764.8125 437.257812 765.347656 436.992188 765.882812 436.816406 C 766.417969 436.636719 766.957031 436.550781 767.496094 436.550781 C 768.035156 436.550781 768.574219 436.636719 769.109375 436.816406 C 769.644531 436.992188 770.179688 437.257812 770.707031 437.609375 C 771.234375 437.960938 771.757812 438.398438 772.273438 438.925781 C 772.789062 439.449219 773.296875 440.054688 773.796875 440.746094 C 774.292969 441.4375 774.78125 442.210938 775.253906 443.0625 C 775.730469 443.914062 776.191406 444.839844 776.640625 445.84375 C 777.089844 446.847656 777.523438 447.921875 777.9375 449.066406 C 778.355469 450.210938 778.753906 451.421875 779.136719 452.699219 C 779.515625 453.976562 779.878906 455.3125 780.222656 456.710938 C 780.5625 458.105469 780.882812 459.554688 781.183594 461.054688 C 781.484375 462.558594 781.757812 464.105469 782.011719 465.699219 C 782.269531 467.289062 782.496094 468.921875 782.703125 470.589844 C 782.910156 472.257812 783.09375 473.957031 783.25 475.683594 C 783.40625 477.414062 783.535156 479.164062 783.640625 480.933594 C 783.746094 482.707031 783.824219 484.488281 783.878906 486.285156 C 783.929688 488.082031 783.957031 489.886719 783.957031 491.691406 Z M 783.957031 491.691406 " fill-opacity="1" fill-rule="nonzero"/><path fill="#ffffff" d="M 777.117188 491.691406 C 777.117188 492.753906 777.105469 493.816406 777.082031 494.875 C 777.058594 495.929688 777.023438 496.980469 776.976562 498.023438 C 776.929688 499.066406 776.871094 500.097656 776.800781 501.113281 C 776.730469 502.132812 776.652344 503.132812 776.558594 504.113281 C 776.46875 505.097656 776.363281 506.054688 776.25 506.992188 C 776.140625 507.929688 776.015625 508.839844 775.882812 509.726562 C 775.75 510.609375 775.605469 511.460938 775.453125 512.285156 C 775.300781 513.105469 775.140625 513.894531 774.972656 514.644531 C 774.800781 515.398438 774.625 516.109375 774.4375 516.785156 C 774.253906 517.457031 774.0625 518.089844 773.863281 518.683594 C 773.664062 519.273438 773.457031 519.816406 773.246094 520.320312 C 773.035156 520.820312 772.816406 521.273438 772.597656 521.679688 C 772.375 522.089844 772.148438 522.445312 771.917969 522.753906 C 771.691406 523.0625 771.457031 523.320312 771.222656 523.527344 C 770.988281 523.734375 770.75 523.890625 770.511719 523.996094 C 770.273438 524.101562 770.03125 524.152344 769.792969 524.152344 C 769.554688 524.152344 769.3125 524.101562 769.074219 523.996094 C 768.835938 523.890625 768.601562 523.734375 768.363281 523.527344 C 768.128906 523.320312 767.898438 523.0625 767.667969 522.753906 C 767.4375 522.445312 767.210938 522.089844 766.992188 521.679688 C 766.769531 521.273438 766.550781 520.820312 766.339844 520.320312 C 766.128906 519.816406 765.925781 519.273438 765.722656 518.683594 C 765.523438 518.089844 765.332031 517.457031 765.148438 516.785156 C 764.960938 516.109375 764.785156 515.398438 764.613281 514.644531 C 764.445312 513.894531 764.285156 513.105469 764.132812 512.285156 C 763.980469 511.460938 763.835938 510.609375 763.703125 509.726562 C 763.570312 508.839844 763.449219 507.929688 763.335938 506.992188 C 763.222656 506.054688 763.117188 505.097656 763.027344 504.113281 C 762.933594 503.132812 762.855469 502.132812 762.785156 501.113281 C 762.714844 500.097656 762.65625 499.066406 762.609375 498.023438 C 762.5625 496.980469 762.527344 495.929688 762.503906 494.875 C 762.480469 493.816406 762.46875 492.753906 762.46875 491.691406 C 762.46875 490.628906 762.480469 489.566406 762.503906 488.507812 C 762.527344 487.453125 762.5625 486.402344 762.609375 485.359375 C 762.65625 484.316406 762.714844 483.285156 762.785156 482.269531 C 762.855469 481.25 762.933594 480.25 763.027344 479.269531 C 763.117188 478.285156 763.222656 477.328125 763.335938 476.390625 C 763.449219 475.453125 763.570312 474.539062 763.703125 473.65625 C 763.835938 472.773438 763.980469 471.921875 764.132812 471.097656 C 764.285156 470.277344 764.445312 469.488281 764.613281 468.738281 C 764.785156 467.984375 764.960938 467.273438 765.148438 466.597656 C 765.332031 465.925781 765.523438 465.292969 765.722656 464.699219 C 765.925781 464.109375 766.128906 463.566406 766.339844 463.0625 C 766.550781 462.5625 766.769531 462.109375 766.992188 461.703125 C 767.210938 461.292969 767.4375 460.9375 767.667969 460.628906 C 767.898438 460.320312 768.128906 460.0625 768.363281 459.855469 C 768.601562 459.648438 768.835938 459.492188 769.074219 459.386719 C 769.3125 459.28125 769.554688 459.230469 769.792969 459.230469 C 770.03125 459.230469 770.273438 459.28125 770.511719 459.386719 C 770.75 459.492188 770.988281 459.648438 771.222656 459.855469 C 771.457031 460.0625 771.691406 460.320312 771.917969 460.628906 C 772.148438 460.9375 772.375 461.292969 772.597656 461.703125 C 772.816406 462.109375 773.035156 462.5625 773.246094 463.0625 C 773.457031 463.566406 773.664062 464.109375 773.863281 464.699219 C 774.0625 465.292969 774.253906 465.925781 774.4375 466.597656 C 774.625 467.273438 774.800781 467.984375 774.972656 468.738281 C 775.140625 469.488281 775.300781 470.277344 775.453125 471.097656 C 775.605469 471.921875 775.75 472.773438 775.882812 473.65625 C 776.015625 474.539062 776.140625 475.453125 776.25 476.390625 C 776.363281 477.328125 776.46875 478.285156 776.558594 479.269531 C 776.652344 480.25 776.730469 481.25 776.800781 482.269531 C 776.871094 483.285156 776.929688 484.316406 776.976562 485.359375 C 777.023438 486.402344 777.058594 487.453125 777.082031 488.507812 C 777.105469 489.566406 777.117188 490.628906 777.117188 491.691406 Z M 777.117188 491.691406 " fill-opacity="1" fill-rule="nonzero"/><path fill="#000000" d="M 773.75 491.539062 C 773.75 492.691406 773.726562 493.832031 773.675781 494.960938 C 773.625 496.089844 773.550781 497.1875 773.449219 498.253906 C 773.351562 499.316406 773.230469 500.328125 773.085938 501.285156 C 772.941406 502.246094 772.777344 503.132812 772.59375 503.945312 C 772.40625 504.761719 772.207031 505.488281 771.992188 506.128906 C 771.777344 506.769531 771.546875 507.308594 771.308594 507.75 C 771.066406 508.191406 770.820312 508.523438 770.566406 508.75 C 770.308594 508.972656 770.054688 509.085938 769.792969 509.085938 C 769.535156 509.085938 769.277344 508.972656 769.019531 508.75 C 768.765625 508.523438 768.519531 508.191406 768.277344 507.75 C 768.039062 507.308594 767.808594 506.769531 767.59375 506.128906 C 767.378906 505.488281 767.179688 504.761719 766.996094 503.945312 C 766.8125 503.132812 766.648438 502.246094 766.503906 501.285156 C 766.359375 500.328125 766.234375 499.316406 766.136719 498.253906 C 766.035156 497.1875 765.960938 496.089844 765.910156 494.960938 C 765.859375 493.832031 765.835938 492.691406 765.835938 491.539062 C 765.835938 490.386719 765.859375 489.246094 765.910156 488.113281 C 765.960938 486.984375 766.035156 485.886719 766.136719 484.820312 C 766.234375 483.757812 766.359375 482.746094 766.503906 481.789062 C 766.648438 480.832031 766.8125 479.945312 766.996094 479.128906 C 767.179688 478.3125 767.378906 477.585938 767.59375 476.945312 C 767.808594 476.304688 768.039062 475.765625 768.277344 475.324219 C 768.519531 474.882812 768.765625 474.550781 769.019531 474.328125 C 769.277344 474.101562 769.535156 473.988281 769.792969 473.988281 C 770.054688 473.988281 770.308594 474.101562 770.566406 474.328125 C 770.820312 474.550781 771.066406 474.882812 771.308594 475.324219 C 771.546875 475.765625 771.777344 476.304688 771.992188 476.945312 C 772.207031 477.585938 772.40625 478.3125 772.59375 479.128906 C 772.777344 479.945312 772.941406 480.832031 773.085938 481.789062 C 773.230469 482.746094 773.351562 483.757812 773.449219 484.820312 C 773.550781 485.886719 773.625 486.984375 773.675781 488.113281 C 773.726562 489.246094 773.75 490.386719 773.75 491.539062 Z M 773.75 491.539062 " fill-opacity="1" fill-rule="nonzero"/><path fill="#000000" d="M 583.332031 40.335938 L 567.589844 183.5625 L 505.179688 185.414062 L 423.601562 187.769531 L 377.933594 189.121094 L 377.863281 189.121094 L 301.277344 191.332031 L 150.449219 195.621094 L 185.929688 57.164062 C 185.921875 57.082031 185.945312 57.007812 186.003906 56.949219 L 219.34375 55.523438 L 219.414062 55.523438 L 286.597656 52.742188 L 323.859375 51.171875 L 394.675781 48.253906 Z M 583.332031 40.335938 " fill-opacity="1" fill-rule="nonzero"/><path fill="#000000" d="M 597.847656 52.488281 L 584.503906 188.917969 L 601.242188 195.949219 Z M 597.847656 52.488281 " fill-opacity="1" fill-rule="nonzero"/><path fill="#ffffff" d="M 377.863281 189.125 L 301.277344 191.328125 L 219.417969 55.523438 L 286.601562 52.742188 Z M 377.863281 189.125 " fill-opacity="0.5" fill-rule="nonzero"/><path fill="#ffffff" d="M 505.179688 185.414062 L 423.605469 187.769531 L 323.855469 51.175781 L 394.675781 48.253906 Z M 505.179688 185.414062 " fill-opacity="0.5" fill-rule="nonzero"/><path fill="#000000" d="M 691.269531 135.015625 L 691.269531 241.519531 L 623.089844 209.007812 L 622.589844 196.035156 L 617.8125 73.207031 L 688.847656 133.015625 Z M 691.269531 135.015625 " fill-opacity="1" fill-rule="nonzero"/><path fill="#000000" d="M 743.207031 176.578125 L 743.207031 268.46875 L 702.667969 248.082031 L 702.667969 143.355469 L 732.730469 167.953125 Z M 743.207031 176.578125 " fill-opacity="1" fill-rule="nonzero"/><path fill="#000000" d="M 791.792969 216.636719 L 791.792969 293.566406 L 753.960938 272.53125 L 753.894531 256.777344 L 753.390625 184.269531 L 790.441406 215.503906 Z M 791.792969 216.636719 " fill-opacity="1" fill-rule="nonzero"/><path fill="#1655b2" d="M 664.710938 183.121094 C 659.167969 202.613281 603.910156 207.75 603.910156 207.75 L 591.765625 196.824219 L 581.007812 187.117188 C 581.007812 187.117188 607.496094 155.882812 625.914062 155.882812 C 649.0625 155.882812 661.53125 154.25 665.035156 177.984375 C 665.300781 179.71875 665.191406 181.433594 664.710938 183.121094 Z M 664.710938 183.121094 " fill-opacity="1" fill-rule="nonzero"/><path fill="#ffc000" d="M 154.296875 289.785156 L 146.390625 330.417969 L 140.476562 360.933594 L 106.917969 366.566406 L 102.074219 331.84375 L 96.160156 289.925781 L 94.378906 277.097656 C 93.789062 272.902344 93.769531 268.703125 94.328125 264.503906 C 94.882812 260.300781 95.992188 256.253906 97.660156 252.355469 Z M 154.296875 289.785156 " fill-opacity="1" fill-rule="nonzero"/><path fill="#ffc000" d="M 557.257812 232.464844 L 549.210938 278.59375 L 538.308594 341.261719 L 513.015625 357.800781 L 464.285156 357.9375 L 460.648438 332.132812 L 454.238281 286.363281 L 515.9375 267.328125 Z M 557.257812 232.464844 " fill-opacity="1" fill-rule="nonzero"/><path fill="#ffffff" d="M 177.882812 295.199219 L 162.21875 363.816406 L 190.320312 395.839844 L 421.484375 391.605469 L 446.316406 357.417969 L 426.898438 289.976562 Z M 177.882812 295.199219 " fill-opacity="1" fill-rule="nonzero"/><path fill="#002149" d="M 108.519531 449.933594 L 113.949219 404.410156 L 162.21875 404.410156 L 177.882812 425.445312 L 444.164062 415.839844 L 459.550781 398.914062 L 538.753906 395.195312 L 555.546875 416.234375 L 589.417969 426.6875 L 577.382812 479.539062 L 119.933594 486.023438 Z M 108.519531 449.933594 " fill-opacity="1" fill-rule="nonzero"/><path fill="#1655b2" d="M 192.15625 451.46875 L 192.15625 464.867188 L 446.316406 464.824219 L 446.316406 443.074219 Z M 192.15625 451.46875 " fill-opacity="1" fill-rule="nonzero"/><g clip-path="url(#bd264bec02)"><g clip-path="url(#66b8e50b35)"><path fill="#000000" d="M 186.925781 304.738281 L 177.882812 358.96875 L 192.15625 381.453125 L 414.519531 378.164062 L 431.996094 347.125 L 415.863281 301.230469 Z M 186.925781 304.738281 " fill-opacity="0.5" fill-rule="nonzero"/></g></g><g clip-path="url(#1db5dc4328)"><g clip-path="url(#772c698b64)"><path fill="#000000" d="M 213.738281 303.445312 L 190.316406 303.796875 L 182.125 312.582031 L 190.585938 321.925781 L 215.828125 321.550781 L 222.589844 311.976562 Z M 211.472656 318.066406 L 194.386719 318.320312 L 188.671875 312.644531 L 194.21875 307.289062 L 210.066406 307.050781 L 216.046875 312.238281 Z M 211.472656 318.066406 " fill-opacity="1" fill-rule="nonzero"/></g></g><g clip-path="url(#b9697d64ed)"><g clip-path="url(#6926d2ff45)"><path fill="#000000" d="M 252.578125 302.863281 L 229.15625 303.214844 L 220.96875 312.003906 L 229.425781 321.347656 L 254.671875 320.96875 L 261.429688 311.398438 Z M 250.3125 317.484375 L 233.226562 317.738281 L 227.515625 312.066406 L 233.0625 306.707031 L 248.90625 306.46875 L 254.886719 311.65625 Z M 250.3125 317.484375 " fill-opacity="1" fill-rule="nonzero"/></g></g><g clip-path="url(#d73e638bf2)"><g clip-path="url(#6704c5b15d)"><path fill="#000000" d="M 293.039062 302.257812 L 269.617188 302.609375 L 261.429688 311.398438 L 269.886719 320.742188 L 295.132812 320.363281 L 301.890625 310.792969 Z M 290.777344 316.878906 L 273.6875 317.132812 L 267.976562 311.460938 L 273.523438 306.101562 L 289.371094 305.863281 L 295.347656 311.050781 Z M 290.777344 316.878906 " fill-opacity="1" fill-rule="nonzero"/></g></g><g clip-path="url(#50d159207b)"><g clip-path="url(#ec1db1ca55)"><path fill="#000000" d="M 333.5 301.652344 L 310.078125 302.003906 L 301.890625 310.792969 L 310.351562 320.136719 L 335.59375 319.757812 L 342.351562 310.1875 Z M 331.238281 316.273438 L 314.148438 316.527344 L 308.4375 310.855469 L 313.984375 305.496094 L 329.832031 305.257812 L 335.808594 310.445312 Z M 331.238281 316.273438 " fill-opacity="1" fill-rule="nonzero"/></g></g><g clip-path="url(#b7f7883e03)"><g clip-path="url(#d476f8f9e1)"><path fill="#000000" d="M 373.964844 301.046875 L 350.539062 301.398438 L 342.351562 310.1875 L 350.8125 319.53125 L 376.054688 319.152344 L 382.8125 309.582031 Z M 371.699219 315.667969 L 354.609375 315.921875 L 348.898438 310.25 L 354.445312 304.890625 L 370.292969 304.652344 L 376.269531 309.839844 Z M 371.699219 315.667969 " fill-opacity="1" fill-rule="nonzero"/></g></g><g clip-path="url(#84f48e1891)"><g clip-path="url(#eca1e970d4)"><path fill="#000000" d="M 414.425781 300.445312 L 391.003906 300.792969 L 382.8125 309.582031 L 391.273438 318.925781 L 416.515625 318.546875 L 423.273438 308.976562 Z M 412.160156 315.0625 L 395.074219 315.320312 L 389.359375 309.644531 L 394.90625 304.285156 L 410.753906 304.046875 L 416.734375 309.234375 Z M 412.160156 315.0625 " fill-opacity="1" fill-rule="nonzero"/></g></g><g clip-path="url(#14b53b8eee)"><g clip-path="url(#e2d7f417f8)"><path fill="#000000" d="M 194.867188 321.03125 L 171.441406 321.382812 L 163.253906 330.167969 L 171.714844 339.511719 L 196.957031 339.132812 L 203.714844 329.5625 Z M 192.601562 335.652344 L 175.511719 335.90625 L 169.800781 330.230469 L 175.347656 324.871094 L 191.195312 324.636719 L 197.171875 329.820312 Z M 192.601562 335.652344 " fill-opacity="1" fill-rule="nonzero"/></g></g><g clip-path="url(#278d24d842)"><g clip-path="url(#6e4920825a)"><path fill="#000000" d="M 233.707031 320.449219 L 210.285156 320.800781 L 202.09375 329.585938 L 210.554688 338.929688 L 235.796875 338.554688 L 242.554688 328.980469 Z M 231.441406 335.070312 L 214.355469 335.324219 L 208.640625 329.648438 L 214.1875 324.292969 L 230.035156 324.054688 L 236.015625 329.242188 Z M 231.441406 335.070312 " fill-opacity="1" fill-rule="nonzero"/></g></g><g clip-path="url(#30fed823f2)"><g clip-path="url(#e2593350e8)"><path fill="#000000" d="M 274.167969 319.84375 L 250.746094 320.195312 L 242.558594 328.980469 L 251.015625 338.324219 L 276.261719 337.949219 L 283.019531 328.375 Z M 271.902344 334.464844 L 254.816406 334.71875 L 249.105469 329.042969 L 254.652344 323.6875 L 270.496094 323.449219 L 276.476562 328.636719 Z M 271.902344 334.464844 " fill-opacity="1" fill-rule="nonzero"/></g></g><g clip-path="url(#6e4658a2bf)"><g clip-path="url(#1a33a8e785)"><path fill="#000000" d="M 314.628906 319.238281 L 291.207031 319.589844 L 283.019531 328.375 L 291.476562 337.71875 L 316.722656 337.34375 L 323.480469 327.769531 Z M 312.363281 333.859375 L 295.277344 334.113281 L 289.566406 328.4375 L 295.113281 323.082031 L 310.957031 322.84375 L 316.9375 328.03125 Z M 312.363281 333.859375 " fill-opacity="1" fill-rule="nonzero"/></g></g><g clip-path="url(#cd2f13e803)"><g clip-path="url(#945aac7dde)"><path fill="#000000" d="M 355.089844 318.632812 L 331.667969 318.984375 L 323.480469 327.769531 L 331.9375 337.113281 L 357.183594 336.738281 L 363.941406 327.164062 Z M 352.828125 333.253906 L 335.738281 333.507812 L 330.027344 327.832031 L 335.574219 322.476562 L 351.421875 322.238281 L 357.398438 327.425781 Z M 352.828125 333.253906 " fill-opacity="1" fill-rule="nonzero"/></g></g><g clip-path="url(#35a0f96f3c)"><g clip-path="url(#9d9f4a6f81)"><path fill="#000000" d="M 395.550781 318.027344 L 372.128906 318.378906 L 363.941406 327.164062 L 372.402344 336.507812 L 397.644531 336.132812 L 404.402344 326.558594 Z M 393.289062 332.648438 L 376.199219 332.902344 L 370.488281 327.226562 L 376.035156 321.871094 L 391.882812 321.632812 L 397.859375 326.820312 Z M 393.289062 332.648438 " fill-opacity="1" fill-rule="nonzero"/></g></g><g clip-path="url(#03047be018)"><g clip-path="url(#f9b28d55dc)"><path fill="#000000" d="M 434.65625 317.132812 L 411.234375 317.484375 L 403.042969 326.273438 L 411.503906 335.617188 L 436.746094 335.238281 L 443.503906 325.667969 Z M 432.390625 331.753906 L 415.304688 332.007812 L 409.589844 326.335938 L 415.136719 320.976562 L 430.984375 320.738281 L 436.964844 325.925781 Z M 432.390625 331.753906 " fill-opacity="1" fill-rule="nonzero"/></g></g><g clip-path="url(#2ed19de2c3)"><g clip-path="url(#e88da8e074)"><path fill="#000000" d="M 198.226562 355.59375 L 174.804688 355.945312 L 166.617188 364.734375 L 175.074219 374.078125 L 200.320312 373.699219 L 207.078125 364.128906 Z M 195.960938 370.214844 L 178.875 370.46875 L 173.164062 364.796875 L 178.710938 359.4375 L 194.558594 359.199219 L 200.535156 364.386719 Z M 195.960938 370.214844 " fill-opacity="1" fill-rule="nonzero"/></g></g><g clip-path="url(#92f1d03ec4)"><g clip-path="url(#fc8c508e16)"><path fill="#000000" d="M 237.070312 355.015625 L 213.644531 355.363281 L 205.457031 364.152344 L 213.917969 373.496094 L 239.160156 373.117188 L 245.917969 363.546875 Z M 234.804688 369.632812 L 217.714844 369.890625 L 212.003906 364.214844 L 217.550781 358.855469 L 233.398438 358.617188 L 239.375 363.804688 Z M 234.804688 369.632812 " fill-opacity="1" fill-rule="nonzero"/></g></g><g clip-path="url(#6b38bf3f12)"><g clip-path="url(#263f8a4a38)"><path fill="#000000" d="M 277.53125 354.410156 L 254.109375 354.757812 L 245.917969 363.546875 L 254.378906 372.890625 L 279.621094 372.511719 L 286.378906 362.941406 Z M 275.265625 369.027344 L 258.179688 369.285156 L 252.464844 363.609375 L 258.011719 358.25 L 273.859375 358.011719 L 279.839844 363.199219 Z M 275.265625 369.027344 " fill-opacity="1" fill-rule="nonzero"/></g></g><g clip-path="url(#a93ee26817)"><g clip-path="url(#368aae9a41)"><path fill="#000000" d="M 317.992188 353.804688 L 294.570312 354.152344 L 286.378906 362.941406 L 294.839844 372.285156 L 320.082031 371.90625 L 326.84375 362.335938 Z M 315.726562 368.421875 L 298.640625 368.679688 L 292.925781 363.003906 L 298.476562 357.644531 L 314.320312 357.40625 L 320.300781 362.59375 Z M 315.726562 368.421875 " fill-opacity="1" fill-rule="nonzero"/></g></g><g clip-path="url(#0325a98d92)"><g clip-path="url(#c20f7d8dd7)"><path fill="#000000" d="M 358.453125 353.199219 L 335.03125 353.546875 L 326.84375 362.335938 L 335.300781 371.679688 L 360.546875 371.300781 L 367.304688 361.730469 Z M 356.1875 367.816406 L 339.101562 368.074219 L 333.390625 362.398438 L 338.9375 357.039062 L 354.78125 356.800781 L 360.761719 361.988281 Z M 356.1875 367.816406 " fill-opacity="1" fill-rule="nonzero"/></g></g><g clip-path="url(#0c7e935a0c)"><g clip-path="url(#b616a197e8)"><path fill="#000000" d="M 398.914062 352.59375 L 375.492188 352.941406 L 367.304688 361.730469 L 375.761719 371.074219 L 401.007812 370.695312 L 407.765625 361.125 Z M 396.648438 367.210938 L 379.5625 367.46875 L 373.851562 361.792969 L 379.398438 356.433594 L 395.242188 356.195312 L 401.222656 361.382812 Z M 396.648438 367.210938 " fill-opacity="1" fill-rule="nonzero"/></g></g><g clip-path="url(#414a627de6)"><g clip-path="url(#ff5545e926)"><path fill="#000000" d="M 438.019531 351.699219 L 414.59375 352.050781 L 406.40625 360.835938 L 414.867188 370.179688 L 440.109375 369.800781 L 446.867188 360.230469 Z M 435.753906 366.316406 L 418.664062 366.574219 L 412.953125 360.898438 L 418.5 355.539062 L 434.347656 355.304688 L 440.324219 360.488281 Z M 435.753906 366.316406 " fill-opacity="1" fill-rule="nonzero"/></g></g><g clip-path="url(#b3be64d303)"><g clip-path="url(#de484b5735)"><path fill="#000000" d="M 218.539062 373.238281 L 195.117188 373.589844 L 186.929688 382.378906 L 195.386719 391.722656 L 220.632812 391.34375 L 227.390625 381.773438 Z M 216.277344 387.859375 L 199.1875 388.113281 L 193.476562 382.441406 L 199.023438 377.082031 L 214.871094 376.84375 L 220.847656 382.03125 Z M 216.277344 387.859375 " fill-opacity="1" fill-rule="nonzero"/></g></g><g clip-path="url(#fe9a75af7c)"><g clip-path="url(#e43f38cc61)"><path fill="#000000" d="M 257.382812 372.660156 L 233.957031 373.007812 L 225.769531 381.796875 L 234.230469 391.140625 L 259.472656 390.761719 L 266.230469 381.191406 Z M 255.117188 387.277344 L 238.03125 387.535156 L 232.316406 381.859375 L 237.863281 376.5 L 253.710938 376.261719 L 259.691406 381.449219 Z M 255.117188 387.277344 " fill-opacity="1" fill-rule="nonzero"/></g></g><g clip-path="url(#ddb5e21471)"><g clip-path="url(#2021ede805)"><path fill="#000000" d="M 297.84375 372.054688 L 274.421875 372.402344 L 266.230469 381.191406 L 274.691406 390.535156 L 299.933594 390.15625 L 306.691406 380.585938 Z M 295.578125 386.671875 L 278.492188 386.929688 L 272.777344 381.253906 L 278.324219 375.894531 L 294.171875 375.65625 L 300.152344 380.84375 Z M 295.578125 386.671875 " fill-opacity="1" fill-rule="nonzero"/></g></g><g clip-path="url(#9c8950dfb5)"><g clip-path="url(#71eea22a3f)"><path fill="#000000" d="M 338.304688 371.449219 L 314.882812 371.796875 L 306.691406 380.585938 L 315.152344 389.929688 L 340.398438 389.550781 L 347.15625 379.980469 Z M 336.039062 386.066406 L 318.953125 386.324219 L 313.242188 380.648438 L 318.789062 375.289062 L 334.632812 375.050781 L 340.613281 380.238281 Z M 336.039062 386.066406 " fill-opacity="1" fill-rule="nonzero"/></g></g><g clip-path="url(#853cb9bda7)"><g clip-path="url(#81f71cd005)"><path fill="#000000" d="M 378.765625 370.84375 L 355.34375 371.191406 L 347.15625 379.980469 L 355.613281 389.324219 L 380.859375 388.945312 L 387.617188 379.375 Z M 376.5 385.460938 L 359.414062 385.71875 L 353.703125 380.042969 L 359.25 374.683594 L 375.09375 374.445312 L 381.074219 379.632812 Z M 376.5 385.460938 " fill-opacity="1" fill-rule="nonzero"/></g></g><g clip-path="url(#9da7e2561c)"><g clip-path="url(#9e597732b6)"><path fill="#000000" d="M 419.226562 370.238281 L 395.804688 370.585938 L 387.617188 379.375 L 396.074219 388.71875 L 421.320312 388.339844 L 428.078125 378.769531 Z M 416.960938 384.855469 L 399.875 385.113281 L 394.164062 379.4375 L 399.710938 374.078125 L 415.554688 373.839844 L 421.535156 379.027344 Z M 416.960938 384.855469 " fill-opacity="1" fill-rule="nonzero"/></g></g><g clip-path="url(#3cfca60989)"><g clip-path="url(#63dd70a4b0)"><path fill="#000000" d="M 176.675781 338.617188 L 153.253906 338.964844 L 145.0625 347.753906 L 153.523438 357.097656 L 178.769531 356.71875 L 185.527344 347.148438 Z M 174.410156 353.234375 L 157.324219 353.492188 L 151.609375 347.816406 L 157.160156 342.457031 L 173.003906 342.21875 L 178.984375 347.40625 Z M 174.410156 353.234375 " fill-opacity="1" fill-rule="nonzero"/></g></g><g clip-path="url(#075935a645)"><g clip-path="url(#9b470f1d60)"><path fill="#000000" d="M 215.515625 338.035156 L 192.09375 338.386719 L 183.90625 347.171875 L 192.363281 356.515625 L 217.609375 356.136719 L 224.367188 346.566406 Z M 213.25 352.652344 L 196.164062 352.910156 L 190.453125 347.234375 L 196 341.875 L 211.84375 341.640625 L 217.824219 346.824219 Z M 213.25 352.652344 " fill-opacity="1" fill-rule="nonzero"/></g></g><g clip-path="url(#6d804d88a0)"><g clip-path="url(#eeed10768b)"><path fill="#000000" d="M 255.976562 337.429688 L 232.554688 337.78125 L 224.367188 346.566406 L 232.824219 355.910156 L 258.070312 355.53125 L 264.828125 345.960938 Z M 253.714844 352.046875 L 236.625 352.304688 L 230.914062 346.628906 L 236.460938 341.269531 L 252.308594 341.035156 L 258.285156 346.21875 Z M 253.714844 352.046875 " fill-opacity="1" fill-rule="nonzero"/></g></g><g clip-path="url(#26f1dbd239)"><g clip-path="url(#10e3333fbd)"><path fill="#000000" d="M 296.4375 336.824219 L 273.015625 337.175781 L 264.828125 345.960938 L 273.289062 355.304688 L 298.53125 354.925781 L 305.289062 345.355469 Z M 294.175781 351.441406 L 277.085938 351.699219 L 271.375 346.023438 L 276.921875 340.664062 L 292.769531 340.429688 L 298.746094 345.613281 Z M 294.175781 351.441406 " fill-opacity="1" fill-rule="nonzero"/></g></g><g clip-path="url(#614d1f7815)"><g clip-path="url(#97ec76281e)"><path fill="#000000" d="M 336.902344 336.21875 L 313.476562 336.570312 L 305.289062 345.355469 L 313.75 354.699219 L 338.992188 354.320312 L 345.75 344.75 Z M 334.636719 350.835938 L 317.546875 351.09375 L 311.835938 345.417969 L 317.382812 340.058594 L 333.230469 339.824219 L 339.207031 345.007812 Z M 334.636719 350.835938 " fill-opacity="1" fill-rule="nonzero"/></g></g><g clip-path="url(#164bc8e2b1)"><g clip-path="url(#33bb4b1e41)"><path fill="#000000" d="M 377.363281 335.613281 L 353.941406 335.964844 L 345.75 344.75 L 354.210938 354.09375 L 379.453125 353.714844 L 386.210938 344.144531 Z M 375.097656 350.234375 L 358.011719 350.488281 L 352.296875 344.8125 L 357.84375 339.453125 L 373.691406 339.21875 L 379.671875 344.402344 Z M 375.097656 350.234375 " fill-opacity="1" fill-rule="nonzero"/></g></g><g clip-path="url(#bf0c3e3ff9)"><g clip-path="url(#d96a5ada04)"><path fill="#000000" d="M 416.464844 334.71875 L 393.042969 335.070312 L 384.855469 343.855469 L 393.3125 353.199219 L 418.558594 352.824219 L 425.316406 343.25 Z M 414.199219 349.339844 L 397.113281 349.59375 L 391.402344 343.917969 L 396.949219 338.5625 L 412.792969 338.324219 L 418.773438 343.511719 Z M 414.199219 349.339844 " fill-opacity="1" fill-rule="nonzero"/></g></g><g clip-path="url(#5313613715)"><g clip-path="url(#2aabe9cb15)"><path fill="#000000" d="M 456.925781 334.71875 L 433.503906 335.070312 L 425.316406 343.855469 L 433.773438 353.199219 L 459.019531 352.820312 L 465.777344 343.25 Z M 454.664062 349.335938 L 437.574219 349.59375 L 431.863281 343.917969 L 437.410156 338.558594 L 453.257812 338.324219 L 459.234375 343.507812 Z M 454.664062 349.335938 " fill-opacity="1" fill-rule="nonzero"/></g></g><path fill="#ffc000" d="M 557.257812 232.464844 L 538.308594 341.261719 L 515.9375 267.328125 Z M 557.257812 232.464844 " fill-opacity="1" fill-rule="nonzero"/></svg>