<svg xmlns="http://www.w3.org/2000/svg" xmlns:xlink="http://www.w3.org/1999/xlink" width="1200" zoomAndPan="magnify" viewBox="0 0 900 576" height="768" preserveAspectRatio="xMidYMid meet" version="1.0"><defs><clipPath id="c50870cd06"><path d="M 613 304.039062 L 827 304.039062 L 827 446 L 613 446 Z M 613 304.039062 " clip-rule="nonzero"/></clipPath><clipPath id="26bb9c0d37"><path d="M 745 304.039062 L 827 304.039062 L 827 417 L 745 417 Z M 745 304.039062 " clip-rule="nonzero"/></clipPath><clipPath id="5afe6387d0"><path d="M 637 385.328125 L 715 385.328125 L 715 410 L 637 410 Z M 637 385.328125 " clip-rule="nonzero"/></clipPath><clipPath id="3773855253"><path d="M 640.371094 387.039062 L 637.652344 403.269531 L 641.945312 409.996094 L 708.792969 409.011719 L 714.050781 399.722656 L 709.199219 385.988281 Z M 640.371094 387.039062 " clip-rule="nonzero"/></clipPath><clipPath id="8f1672b549"><path d="M 638 386 L 652 386 L 652 393 L 638 393 Z M 638 386 " clip-rule="nonzero"/></clipPath><clipPath id="b7da00305a"><path d="M 640.371094 387.039062 L 637.652344 403.269531 L 641.945312 409.996094 L 708.792969 409.011719 L 714.050781 399.722656 L 709.199219 385.988281 Z M 640.371094 387.039062 " clip-rule="nonzero"/></clipPath><clipPath id="93feeb0525"><path d="M 650 386 L 663 386 L 663 393 L 650 393 Z M 650 386 " clip-rule="nonzero"/></clipPath><clipPath id="50cc2ec96d"><path d="M 640.371094 387.039062 L 637.652344 403.269531 L 641.945312 409.996094 L 708.792969 409.011719 L 714.050781 399.722656 L 709.199219 385.988281 Z M 640.371094 387.039062 " clip-rule="nonzero"/></clipPath><clipPath id="a09b13b1d5"><path d="M 662 386 L 675 386 L 675 392 L 662 392 Z M 662 386 " clip-rule="nonzero"/></clipPath><clipPath id="7c0d846e97"><path d="M 640.371094 387.039062 L 637.652344 403.269531 L 641.945312 409.996094 L 708.792969 409.011719 L 714.050781 399.722656 L 709.199219 385.988281 Z M 640.371094 387.039062 " clip-rule="nonzero"/></clipPath><clipPath id="ab8225ae27"><path d="M 674 386 L 688 386 L 688 392 L 674 392 Z M 674 386 " clip-rule="nonzero"/></clipPath><clipPath id="38d6e8d52d"><path d="M 640.371094 387.039062 L 637.652344 403.269531 L 641.945312 409.996094 L 708.792969 409.011719 L 714.050781 399.722656 L 709.199219 385.988281 Z M 640.371094 387.039062 " clip-rule="nonzero"/></clipPath><clipPath id="631a43b63d"><path d="M 687 385.328125 L 700 385.328125 L 700 392 L 687 392 Z M 687 385.328125 " clip-rule="nonzero"/></clipPath><clipPath id="41ed43c1f1"><path d="M 640.371094 387.039062 L 637.652344 403.269531 L 641.945312 409.996094 L 708.792969 409.011719 L 714.050781 399.722656 L 709.199219 385.988281 Z M 640.371094 387.039062 " clip-rule="nonzero"/></clipPath><clipPath id="b9b2896fe4"><path d="M 699 385.328125 L 712 385.328125 L 712 392 L 699 392 Z M 699 385.328125 " clip-rule="nonzero"/></clipPath><clipPath id="6bdbd71ebe"><path d="M 640.371094 387.039062 L 637.652344 403.269531 L 641.945312 409.996094 L 708.792969 409.011719 L 714.050781 399.722656 L 709.199219 385.988281 Z M 640.371094 387.039062 " clip-rule="nonzero"/></clipPath><clipPath id="a445937c79"><path d="M 637 391 L 646 391 L 646 398 L 637 398 Z M 637 391 " clip-rule="nonzero"/></clipPath><clipPath id="720e66d20e"><path d="M 640.371094 387.039062 L 637.652344 403.269531 L 641.945312 409.996094 L 708.792969 409.011719 L 714.050781 399.722656 L 709.199219 385.988281 Z M 640.371094 387.039062 " clip-rule="nonzero"/></clipPath><clipPath id="6c45c16531"><path d="M 644 391 L 658 391 L 658 398 L 644 398 Z M 644 391 " clip-rule="nonzero"/></clipPath><clipPath id="a61a48e977"><path d="M 640.371094 387.039062 L 637.652344 403.269531 L 641.945312 409.996094 L 708.792969 409.011719 L 714.050781 399.722656 L 709.199219 385.988281 Z M 640.371094 387.039062 " clip-rule="nonzero"/></clipPath><clipPath id="13bc1ef814"><path d="M 657 391 L 670 391 L 670 398 L 657 398 Z M 657 391 " clip-rule="nonzero"/></clipPath><clipPath id="ef3e262cb1"><path d="M 640.371094 387.039062 L 637.652344 403.269531 L 641.945312 409.996094 L 708.792969 409.011719 L 714.050781 399.722656 L 709.199219 385.988281 Z M 640.371094 387.039062 " clip-rule="nonzero"/></clipPath><clipPath id="40431cc920"><path d="M 669 391 L 682 391 L 682 397 L 669 397 Z M 669 391 " clip-rule="nonzero"/></clipPath><clipPath id="650b8360eb"><path d="M 640.371094 387.039062 L 637.652344 403.269531 L 641.945312 409.996094 L 708.792969 409.011719 L 714.050781 399.722656 L 709.199219 385.988281 Z M 640.371094 387.039062 " clip-rule="nonzero"/></clipPath><clipPath id="f94ff9e582"><path d="M 681 391 L 694 391 L 694 397 L 681 397 Z M 681 391 " clip-rule="nonzero"/></clipPath><clipPath id="95c9f5e96e"><path d="M 640.371094 387.039062 L 637.652344 403.269531 L 641.945312 409.996094 L 708.792969 409.011719 L 714.050781 399.722656 L 709.199219 385.988281 Z M 640.371094 387.039062 " clip-rule="nonzero"/></clipPath><clipPath id="4570484403"><path d="M 693 391 L 706 391 L 706 397 L 693 397 Z M 693 391 " clip-rule="nonzero"/></clipPath><clipPath id="482ec7bea9"><path d="M 640.371094 387.039062 L 637.652344 403.269531 L 641.945312 409.996094 L 708.792969 409.011719 L 714.050781 399.722656 L 709.199219 385.988281 Z M 640.371094 387.039062 " clip-rule="nonzero"/></clipPath><clipPath id="af3687f2bf"><path d="M 705 390 L 715 390 L 715 397 L 705 397 Z M 705 390 " clip-rule="nonzero"/></clipPath><clipPath id="1d37b58426"><path d="M 640.371094 387.039062 L 637.652344 403.269531 L 641.945312 409.996094 L 708.792969 409.011719 L 714.050781 399.722656 L 709.199219 385.988281 Z M 640.371094 387.039062 " clip-rule="nonzero"/></clipPath><clipPath id="a944ec4eaa"><path d="M 637 402 L 647 402 L 647 408 L 637 408 Z M 637 402 " clip-rule="nonzero"/></clipPath><clipPath id="b0e8e57671"><path d="M 640.371094 387.039062 L 637.652344 403.269531 L 641.945312 409.996094 L 708.792969 409.011719 L 714.050781 399.722656 L 709.199219 385.988281 Z M 640.371094 387.039062 " clip-rule="nonzero"/></clipPath><clipPath id="6ee6299d6f"><path d="M 645 402 L 659 402 L 659 408 L 645 408 Z M 645 402 " clip-rule="nonzero"/></clipPath><clipPath id="b40103d2fd"><path d="M 640.371094 387.039062 L 637.652344 403.269531 L 641.945312 409.996094 L 708.792969 409.011719 L 714.050781 399.722656 L 709.199219 385.988281 Z M 640.371094 387.039062 " clip-rule="nonzero"/></clipPath><clipPath id="bcd43a2240"><path d="M 658 401 L 671 401 L 671 408 L 658 408 Z M 658 401 " clip-rule="nonzero"/></clipPath><clipPath id="23d0c650a2"><path d="M 640.371094 387.039062 L 637.652344 403.269531 L 641.945312 409.996094 L 708.792969 409.011719 L 714.050781 399.722656 L 709.199219 385.988281 Z M 640.371094 387.039062 " clip-rule="nonzero"/></clipPath><clipPath id="b4ce38d4cf"><path d="M 670 401 L 683 401 L 683 408 L 670 408 Z M 670 401 " clip-rule="nonzero"/></clipPath><clipPath id="df32334731"><path d="M 640.371094 387.039062 L 637.652344 403.269531 L 641.945312 409.996094 L 708.792969 409.011719 L 714.050781 399.722656 L 709.199219 385.988281 Z M 640.371094 387.039062 " clip-rule="nonzero"/></clipPath><clipPath id="328d799c04"><path d="M 682 401 L 695 401 L 695 408 L 682 408 Z M 682 401 " clip-rule="nonzero"/></clipPath><clipPath id="1b8f87cc86"><path d="M 640.371094 387.039062 L 637.652344 403.269531 L 641.945312 409.996094 L 708.792969 409.011719 L 714.050781 399.722656 L 709.199219 385.988281 Z M 640.371094 387.039062 " clip-rule="nonzero"/></clipPath><clipPath id="6e350bc736"><path d="M 694 401 L 707 401 L 707 407 L 694 407 Z M 694 401 " clip-rule="nonzero"/></clipPath><clipPath id="379f4aab6c"><path d="M 640.371094 387.039062 L 637.652344 403.269531 L 641.945312 409.996094 L 708.792969 409.011719 L 714.050781 399.722656 L 709.199219 385.988281 Z M 640.371094 387.039062 " clip-rule="nonzero"/></clipPath><clipPath id="54a6721511"><path d="M 706 401 L 715 401 L 715 407 L 706 407 Z M 706 401 " clip-rule="nonzero"/></clipPath><clipPath id="5874a92c2b"><path d="M 640.371094 387.039062 L 637.652344 403.269531 L 641.945312 409.996094 L 708.792969 409.011719 L 714.050781 399.722656 L 709.199219 385.988281 Z M 640.371094 387.039062 " clip-rule="nonzero"/></clipPath><clipPath id="2b37ffe5c1"><path d="M 640 407 L 653 407 L 653 410 L 640 410 Z M 640 407 " clip-rule="nonzero"/></clipPath><clipPath id="2f9fa04454"><path d="M 640.371094 387.039062 L 637.652344 403.269531 L 641.945312 409.996094 L 708.792969 409.011719 L 714.050781 399.722656 L 709.199219 385.988281 Z M 640.371094 387.039062 " clip-rule="nonzero"/></clipPath><clipPath id="88fdb44ea2"><path d="M 652 407 L 665 407 L 665 410 L 652 410 Z M 652 407 " clip-rule="nonzero"/></clipPath><clipPath id="8275cd7e96"><path d="M 640.371094 387.039062 L 637.652344 403.269531 L 641.945312 409.996094 L 708.792969 409.011719 L 714.050781 399.722656 L 709.199219 385.988281 Z M 640.371094 387.039062 " clip-rule="nonzero"/></clipPath><clipPath id="ac8d872f6c"><path d="M 664 407 L 677 407 L 677 410 L 664 410 Z M 664 407 " clip-rule="nonzero"/></clipPath><clipPath id="8daf74ec04"><path d="M 640.371094 387.039062 L 637.652344 403.269531 L 641.945312 409.996094 L 708.792969 409.011719 L 714.050781 399.722656 L 709.199219 385.988281 Z M 640.371094 387.039062 " clip-rule="nonzero"/></clipPath><clipPath id="d397c3bda0"><path d="M 676 407 L 689 407 L 689 410 L 676 410 Z M 676 407 " clip-rule="nonzero"/></clipPath><clipPath id="5b356e0130"><path d="M 640.371094 387.039062 L 637.652344 403.269531 L 641.945312 409.996094 L 708.792969 409.011719 L 714.050781 399.722656 L 709.199219 385.988281 Z M 640.371094 387.039062 " clip-rule="nonzero"/></clipPath><clipPath id="2549a88d62"><path d="M 688 406 L 701 406 L 701 410 L 688 410 Z M 688 406 " clip-rule="nonzero"/></clipPath><clipPath id="88d81db67d"><path d="M 640.371094 387.039062 L 637.652344 403.269531 L 641.945312 409.996094 L 708.792969 409.011719 L 714.050781 399.722656 L 709.199219 385.988281 Z M 640.371094 387.039062 " clip-rule="nonzero"/></clipPath><clipPath id="494ccb5560"><path d="M 700 406 L 713 406 L 713 410 L 700 410 Z M 700 406 " clip-rule="nonzero"/></clipPath><clipPath id="beb9265c9e"><path d="M 640.371094 387.039062 L 637.652344 403.269531 L 641.945312 409.996094 L 708.792969 409.011719 L 714.050781 399.722656 L 709.199219 385.988281 Z M 640.371094 387.039062 " clip-rule="nonzero"/></clipPath><clipPath id="9e418f6b1f"><path d="M 637 397 L 640 397 L 640 403 L 637 403 Z M 637 397 " clip-rule="nonzero"/></clipPath><clipPath id="fe9341bc4c"><path d="M 640.371094 387.039062 L 637.652344 403.269531 L 641.945312 409.996094 L 708.792969 409.011719 L 714.050781 399.722656 L 709.199219 385.988281 Z M 640.371094 387.039062 " clip-rule="nonzero"/></clipPath><clipPath id="522a0f078a"><path d="M 639 397 L 652 397 L 652 403 L 639 403 Z M 639 397 " clip-rule="nonzero"/></clipPath><clipPath id="a7b4d72d1e"><path d="M 640.371094 387.039062 L 637.652344 403.269531 L 641.945312 409.996094 L 708.792969 409.011719 L 714.050781 399.722656 L 709.199219 385.988281 Z M 640.371094 387.039062 " clip-rule="nonzero"/></clipPath><clipPath id="d218471d20"><path d="M 651 396 L 664 396 L 664 403 L 651 403 Z M 651 396 " clip-rule="nonzero"/></clipPath><clipPath id="0ebba485b9"><path d="M 640.371094 387.039062 L 637.652344 403.269531 L 641.945312 409.996094 L 708.792969 409.011719 L 714.050781 399.722656 L 709.199219 385.988281 Z M 640.371094 387.039062 " clip-rule="nonzero"/></clipPath><clipPath id="e669d8592c"><path d="M 663 396 L 676 396 L 676 403 L 663 403 Z M 663 396 " clip-rule="nonzero"/></clipPath><clipPath id="d83c089aa7"><path d="M 640.371094 387.039062 L 637.652344 403.269531 L 641.945312 409.996094 L 708.792969 409.011719 L 714.050781 399.722656 L 709.199219 385.988281 Z M 640.371094 387.039062 " clip-rule="nonzero"/></clipPath><clipPath id="67377e4934"><path d="M 675 396 L 689 396 L 689 402 L 675 402 Z M 675 396 " clip-rule="nonzero"/></clipPath><clipPath id="d74d5931ab"><path d="M 640.371094 387.039062 L 637.652344 403.269531 L 641.945312 409.996094 L 708.792969 409.011719 L 714.050781 399.722656 L 709.199219 385.988281 Z M 640.371094 387.039062 " clip-rule="nonzero"/></clipPath><clipPath id="06bd7088a5"><path d="M 688 396 L 701 396 L 701 402 L 688 402 Z M 688 396 " clip-rule="nonzero"/></clipPath><clipPath id="fec5ff9d75"><path d="M 640.371094 387.039062 L 637.652344 403.269531 L 641.945312 409.996094 L 708.792969 409.011719 L 714.050781 399.722656 L 709.199219 385.988281 Z M 640.371094 387.039062 " clip-rule="nonzero"/></clipPath><clipPath id="fc6bb465eb"><path d="M 699 396 L 713 396 L 713 402 L 699 402 Z M 699 396 " clip-rule="nonzero"/></clipPath><clipPath id="2ff2633f43"><path d="M 640.371094 387.039062 L 637.652344 403.269531 L 641.945312 409.996094 L 708.792969 409.011719 L 714.050781 399.722656 L 709.199219 385.988281 Z M 640.371094 387.039062 " clip-rule="nonzero"/></clipPath><clipPath id="84426af711"><path d="M 712 396 L 715 396 L 715 402 L 712 402 Z M 712 396 " clip-rule="nonzero"/></clipPath><clipPath id="41c63237e7"><path d="M 640.371094 387.039062 L 637.652344 403.269531 L 641.945312 409.996094 L 708.792969 409.011719 L 714.050781 399.722656 L 709.199219 385.988281 Z M 640.371094 387.039062 " clip-rule="nonzero"/></clipPath><clipPath id="c1377e2e1a"><path d="M 0 0 L 506.707031 0 L 506.707031 576 L 0 576 Z M 0 0 " clip-rule="nonzero"/></clipPath><clipPath id="f3a77e165f"><path d="M 203.042969 -14.960938 C 35.335938 -14.960938 -100.621094 122.902344 -100.621094 292.96875 C -100.621094 463.03125 35.335938 600.894531 203.042969 600.894531 C 370.753906 600.894531 506.707031 463.03125 506.707031 292.96875 C 506.707031 122.902344 370.753906 -14.960938 203.042969 -14.960938 Z M 203.042969 -14.960938 " clip-rule="nonzero"/></clipPath><clipPath id="263dd92ead"><path d="M 28 107.058594 L 51 107.058594 L 51 328 L 28 328 Z M 28 107.058594 " clip-rule="nonzero"/></clipPath><clipPath id="b2fe853df6"><path d="M 47 107.058594 L 178 107.058594 L 178 332 L 47 332 Z M 47 107.058594 " clip-rule="nonzero"/></clipPath><clipPath id="45325cd7c7"><path d="M 0 354.136719 L 442.5625 354.136719 L 442.5625 478.945312 L 0 478.945312 Z M 0 354.136719 " clip-rule="nonzero"/></clipPath><clipPath id="a10dad5367"><path d="M 178.257812 349.4375 L 442.5625 349.4375 L 442.5625 478.945312 L 178.257812 478.945312 Z M 178.257812 349.4375 " clip-rule="nonzero"/></clipPath></defs><path fill="#000000" d="M 631.066406 360.371094 C 631.066406 360.371094 617.699219 360.378906 615.917969 355.75 C 614.140625 351.121094 618.527344 348.339844 626.5 348.667969 C 627.621094 348.6875 628.722656 348.84375 629.804688 349.140625 C 630.882812 349.433594 631.914062 349.859375 632.886719 350.410156 C 633.859375 350.960938 634.75 351.625 635.558594 352.398438 C 636.367188 353.175781 637.0625 354.039062 637.652344 354.988281 Z M 631.066406 360.371094 " fill-opacity="1" fill-rule="nonzero"/><path fill="#000000" d="M 721.148438 442.898438 C 721.148438 444.023438 721.109375 445.132812 721.03125 446.234375 C 720.957031 447.335938 720.84375 448.402344 720.691406 449.441406 C 720.542969 450.476562 720.359375 451.460938 720.140625 452.394531 C 719.921875 453.328125 719.675781 454.191406 719.398438 454.984375 C 719.121094 455.78125 718.816406 456.488281 718.492188 457.113281 C 718.164062 457.734375 717.820312 458.261719 717.457031 458.691406 C 717.097656 459.121094 716.722656 459.445312 716.339844 459.664062 C 715.953125 459.882812 715.566406 459.992188 715.171875 459.992188 C 714.78125 459.992188 714.390625 459.882812 714.007812 459.664062 C 713.621094 459.445312 713.25 459.121094 712.886719 458.691406 C 712.523438 458.261719 712.179688 457.734375 711.855469 457.113281 C 711.527344 456.488281 711.226562 455.78125 710.949219 454.984375 C 710.671875 454.191406 710.421875 453.328125 710.207031 452.394531 C 709.988281 451.460938 709.804688 450.476562 709.652344 449.441406 C 709.503906 448.402344 709.390625 447.335938 709.3125 446.234375 C 709.238281 445.132812 709.199219 444.023438 709.199219 442.898438 C 709.199219 441.777344 709.238281 440.667969 709.3125 439.566406 C 709.390625 438.464844 709.503906 437.394531 709.652344 436.359375 C 709.804688 435.320312 709.988281 434.335938 710.207031 433.402344 C 710.421875 432.472656 710.671875 431.609375 710.949219 430.8125 C 711.226562 430.019531 711.527344 429.3125 711.855469 428.6875 C 712.179688 428.066406 712.523438 427.539062 712.886719 427.109375 C 713.25 426.679688 713.621094 426.355469 714.007812 426.136719 C 714.390625 425.917969 714.78125 425.808594 715.171875 425.808594 C 715.566406 425.808594 715.953125 425.917969 716.339844 426.136719 C 716.722656 426.355469 717.097656 426.679688 717.457031 427.109375 C 717.820312 427.539062 718.164062 428.066406 718.492188 428.6875 C 718.816406 429.3125 719.121094 430.019531 719.398438 430.8125 C 719.675781 431.609375 719.921875 432.472656 720.140625 433.402344 C 720.359375 434.335938 720.542969 435.320312 720.691406 436.359375 C 720.84375 437.394531 720.957031 438.464844 721.03125 439.566406 C 721.109375 440.667969 721.148438 441.777344 721.148438 442.898438 Z M 721.148438 442.898438 " fill-opacity="1" fill-rule="nonzero"/><path fill="#000000" d="M 715.171875 425.808594 L 732.796875 425.808594 L 732.796875 459.992188 L 715.171875 459.992188 Z M 715.171875 425.808594 " fill-opacity="1" fill-rule="nonzero"/><path fill="#000000" d="M 738.769531 442.898438 C 738.769531 444.023438 738.730469 445.132812 738.652344 446.234375 C 738.578125 447.335938 738.464844 448.402344 738.3125 449.441406 C 738.164062 450.476562 737.980469 451.460938 737.761719 452.394531 C 737.542969 453.328125 737.296875 454.191406 737.019531 454.984375 C 736.742188 455.78125 736.441406 456.488281 736.113281 457.113281 C 735.789062 457.734375 735.445312 458.261719 735.082031 458.691406 C 734.71875 459.121094 734.34375 459.445312 733.960938 459.664062 C 733.574219 459.882812 733.1875 459.992188 732.796875 459.992188 C 732.402344 459.992188 732.015625 459.882812 731.628906 459.664062 C 731.246094 459.445312 730.871094 459.121094 730.507812 458.691406 C 730.148438 458.261719 729.800781 457.734375 729.476562 457.113281 C 729.148438 456.488281 728.847656 455.78125 728.570312 454.984375 C 728.292969 454.191406 728.046875 453.328125 727.828125 452.394531 C 727.609375 451.460938 727.425781 450.476562 727.277344 449.441406 C 727.125 448.402344 727.011719 447.335938 726.9375 446.234375 C 726.859375 445.132812 726.820312 444.023438 726.820312 442.898438 C 726.820312 441.777344 726.859375 440.667969 726.9375 439.566406 C 727.011719 438.464844 727.125 437.394531 727.277344 436.359375 C 727.425781 435.320312 727.609375 434.335938 727.828125 433.402344 C 728.046875 432.472656 728.292969 431.609375 728.570312 430.8125 C 728.847656 430.019531 729.148438 429.3125 729.476562 428.6875 C 729.800781 428.066406 730.148438 427.539062 730.507812 427.109375 C 730.871094 426.679688 731.246094 426.355469 731.628906 426.136719 C 732.015625 425.917969 732.402344 425.808594 732.796875 425.808594 C 733.1875 425.808594 733.574219 425.917969 733.960938 426.136719 C 734.34375 426.355469 734.71875 426.679688 735.082031 427.109375 C 735.445312 427.539062 735.789062 428.066406 736.113281 428.6875 C 736.441406 429.3125 736.742188 430.019531 737.019531 430.8125 C 737.296875 431.609375 737.542969 432.472656 737.761719 433.402344 C 737.980469 434.335938 738.164062 435.320312 738.3125 436.359375 C 738.464844 437.394531 738.578125 438.464844 738.652344 439.566406 C 738.730469 440.667969 738.769531 441.777344 738.769531 442.898438 Z M 738.769531 442.898438 " fill-opacity="1" fill-rule="nonzero"/><path fill="#ffffff" d="M 736.285156 442.898438 C 736.285156 443.5625 736.269531 444.214844 736.234375 444.863281 C 736.199219 445.511719 736.148438 446.140625 736.082031 446.75 C 736.015625 447.363281 735.933594 447.941406 735.835938 448.492188 C 735.742188 449.039062 735.628906 449.546875 735.507812 450.015625 C 735.382812 450.484375 735.25 450.898438 735.105469 451.265625 C 734.960938 451.632812 734.804688 451.945312 734.644531 452.195312 C 734.484375 452.449219 734.316406 452.640625 734.148438 452.769531 C 733.976562 452.898438 733.804688 452.964844 733.628906 452.964844 C 733.453125 452.964844 733.28125 452.898438 733.109375 452.769531 C 732.9375 452.640625 732.773438 452.449219 732.613281 452.195312 C 732.449219 451.945312 732.296875 451.632812 732.152344 451.265625 C 732.007812 450.898438 731.875 450.484375 731.75 450.015625 C 731.625 449.546875 731.515625 449.039062 731.417969 448.492188 C 731.324219 447.941406 731.242188 447.363281 731.175781 446.75 C 731.105469 446.140625 731.058594 445.511719 731.023438 444.863281 C 730.988281 444.214844 730.972656 443.5625 730.972656 442.898438 C 730.972656 442.238281 730.988281 441.585938 731.023438 440.9375 C 731.058594 440.289062 731.105469 439.660156 731.175781 439.046875 C 731.242188 438.4375 731.324219 437.859375 731.417969 437.308594 C 731.515625 436.757812 731.625 436.25 731.75 435.785156 C 731.875 435.316406 732.007812 434.898438 732.152344 434.53125 C 732.296875 434.164062 732.449219 433.855469 732.613281 433.601562 C 732.773438 433.351562 732.9375 433.160156 733.109375 433.03125 C 733.28125 432.902344 733.453125 432.835938 733.628906 432.835938 C 733.804688 432.835938 733.976562 432.902344 734.148438 433.03125 C 734.316406 433.160156 734.484375 433.351562 734.644531 433.601562 C 734.804688 433.855469 734.960938 434.164062 735.105469 434.53125 C 735.25 434.898438 735.382812 435.316406 735.507812 435.785156 C 735.628906 436.25 735.742188 436.757812 735.835938 437.308594 C 735.933594 437.859375 736.015625 438.4375 736.082031 439.046875 C 736.148438 439.660156 736.199219 440.289062 736.234375 440.9375 C 736.269531 441.585938 736.285156 442.238281 736.285156 442.898438 Z M 736.285156 442.898438 " fill-opacity="1" fill-rule="nonzero"/><path fill="#000000" d="M 641.945312 430.953125 C 641.945312 431.789062 641.933594 432.628906 641.910156 433.460938 C 641.882812 434.296875 641.847656 435.125 641.796875 435.949219 C 641.75 436.769531 641.6875 437.582031 641.613281 438.382812 C 641.542969 439.1875 641.457031 439.976562 641.359375 440.75 C 641.265625 441.523438 641.15625 442.28125 641.039062 443.023438 C 640.921875 443.761719 640.789062 444.480469 640.652344 445.175781 C 640.511719 445.875 640.363281 446.546875 640.203125 447.195312 C 640.042969 447.84375 639.875 448.464844 639.695312 449.058594 C 639.519531 449.648438 639.332031 450.210938 639.136719 450.746094 C 638.945312 451.277344 638.742188 451.777344 638.53125 452.242188 C 638.324219 452.707031 638.109375 453.136719 637.886719 453.53125 C 637.664062 453.929688 637.4375 454.285156 637.207031 454.605469 C 636.972656 454.929688 636.738281 455.210938 636.496094 455.453125 C 636.253906 455.699219 636.011719 455.902344 635.765625 456.0625 C 635.519531 456.226562 635.269531 456.351562 635.019531 456.433594 C 634.769531 456.515625 634.519531 456.554688 634.265625 456.554688 C 634.015625 456.554688 633.765625 456.515625 633.515625 456.433594 C 633.265625 456.351562 633.015625 456.226562 632.769531 456.0625 C 632.523438 455.902344 632.277344 455.699219 632.039062 455.453125 C 631.796875 455.210938 631.5625 454.929688 631.328125 454.605469 C 631.097656 454.285156 630.871094 453.929688 630.648438 453.53125 C 630.425781 453.136719 630.210938 452.707031 630 452.242188 C 629.792969 451.777344 629.589844 451.277344 629.394531 450.746094 C 629.203125 450.210938 629.015625 449.648438 628.835938 449.058594 C 628.660156 448.464844 628.492188 447.84375 628.332031 447.195312 C 628.171875 446.546875 628.023438 445.875 627.882812 445.175781 C 627.742188 444.480469 627.613281 443.761719 627.496094 443.023438 C 627.375 442.28125 627.269531 441.523438 627.171875 440.75 C 627.078125 439.976562 626.992188 439.1875 626.917969 438.386719 C 626.847656 437.582031 626.785156 436.769531 626.734375 435.949219 C 626.6875 435.125 626.648438 434.296875 626.625 433.460938 C 626.601562 432.628906 626.589844 431.789062 626.589844 430.953125 C 626.589844 430.113281 626.601562 429.277344 626.625 428.441406 C 626.648438 427.609375 626.6875 426.78125 626.734375 425.957031 C 626.785156 425.132812 626.847656 424.320312 626.917969 423.519531 C 626.992188 422.71875 627.078125 421.929688 627.171875 421.152344 C 627.269531 420.378906 627.375 419.621094 627.496094 418.882812 C 627.613281 418.144531 627.742188 417.425781 627.882812 416.726562 C 628.023438 416.03125 628.171875 415.355469 628.332031 414.710938 C 628.492188 414.0625 628.660156 413.441406 628.835938 412.847656 C 629.015625 412.253906 629.203125 411.691406 629.394531 411.160156 C 629.589844 410.628906 629.792969 410.128906 630 409.664062 C 630.210938 409.199219 630.425781 408.765625 630.648438 408.371094 C 630.871094 407.976562 631.097656 407.617188 631.328125 407.296875 C 631.5625 406.976562 631.796875 406.695312 632.039062 406.449219 C 632.277344 406.207031 632.523438 406.003906 632.769531 405.839844 C 633.015625 405.675781 633.265625 405.554688 633.515625 405.472656 C 633.765625 405.390625 634.015625 405.347656 634.265625 405.347656 C 634.519531 405.347656 634.769531 405.390625 635.019531 405.472656 C 635.269531 405.554688 635.519531 405.675781 635.765625 405.839844 C 636.011719 406.003906 636.253906 406.207031 636.496094 406.449219 C 636.738281 406.695312 636.972656 406.976562 637.207031 407.296875 C 637.4375 407.617188 637.664062 407.976562 637.886719 408.371094 C 638.109375 408.765625 638.324219 409.199219 638.53125 409.664062 C 638.742188 410.128906 638.945312 410.628906 639.136719 411.160156 C 639.332031 411.691406 639.519531 412.253906 639.695312 412.847656 C 639.875 413.441406 640.042969 414.0625 640.203125 414.710938 C 640.363281 415.355469 640.511719 416.03125 640.652344 416.726562 C 640.789062 417.425781 640.921875 418.144531 641.039062 418.882812 C 641.15625 419.621094 641.265625 420.378906 641.359375 421.152344 C 641.457031 421.929688 641.542969 422.71875 641.613281 423.519531 C 641.6875 424.320312 641.75 425.132812 641.796875 425.957031 C 641.847656 426.78125 641.882812 427.609375 641.910156 428.441406 C 641.933594 429.277344 641.945312 430.113281 641.945312 430.953125 Z M 641.945312 430.953125 " fill-opacity="1" fill-rule="nonzero"/><path fill="#000000" d="M 634.265625 405.351562 L 656.914062 405.351562 L 656.914062 456.554688 L 634.265625 456.554688 Z M 634.265625 405.351562 " fill-opacity="1" fill-rule="nonzero"/><path fill="#000000" d="M 664.59375 430.953125 C 664.59375 431.789062 664.582031 432.628906 664.554688 433.460938 C 664.53125 434.296875 664.496094 435.125 664.445312 435.949219 C 664.398438 436.769531 664.335938 437.582031 664.261719 438.382812 C 664.191406 439.1875 664.105469 439.976562 664.007812 440.75 C 663.914062 441.523438 663.804688 442.28125 663.6875 443.023438 C 663.566406 443.761719 663.4375 444.480469 663.300781 445.175781 C 663.160156 445.875 663.011719 446.546875 662.851562 447.195312 C 662.691406 447.84375 662.523438 448.464844 662.34375 449.058594 C 662.167969 449.648438 661.980469 450.210938 661.785156 450.746094 C 661.589844 451.277344 661.390625 451.777344 661.179688 452.242188 C 660.972656 452.707031 660.757812 453.136719 660.535156 453.53125 C 660.3125 453.929688 660.085938 454.285156 659.851562 454.605469 C 659.621094 454.929688 659.382812 455.210938 659.144531 455.453125 C 658.902344 455.699219 658.660156 455.902344 658.414062 456.0625 C 658.167969 456.226562 657.917969 456.351562 657.667969 456.433594 C 657.417969 456.515625 657.167969 456.554688 656.914062 456.554688 C 656.664062 456.554688 656.414062 456.515625 656.164062 456.433594 C 655.914062 456.351562 655.664062 456.226562 655.417969 456.0625 C 655.171875 455.902344 654.925781 455.699219 654.6875 455.453125 C 654.445312 455.210938 654.207031 454.929688 653.976562 454.605469 C 653.746094 454.285156 653.515625 453.929688 653.296875 453.53125 C 653.074219 453.136719 652.859375 452.707031 652.648438 452.242188 C 652.441406 451.777344 652.238281 451.277344 652.042969 450.746094 C 651.847656 450.210938 651.664062 449.648438 651.484375 449.058594 C 651.308594 448.464844 651.140625 447.84375 650.980469 447.195312 C 650.820312 446.546875 650.671875 445.875 650.53125 445.175781 C 650.390625 444.480469 650.261719 443.761719 650.144531 443.023438 C 650.023438 442.28125 649.917969 441.523438 649.820312 440.75 C 649.726562 439.976562 649.640625 439.1875 649.566406 438.386719 C 649.496094 437.582031 649.433594 436.769531 649.382812 435.949219 C 649.335938 435.125 649.296875 434.296875 649.273438 433.460938 C 649.25 432.628906 649.238281 431.789062 649.238281 430.953125 C 649.238281 430.113281 649.25 429.277344 649.273438 428.441406 C 649.296875 427.609375 649.335938 426.78125 649.382812 425.957031 C 649.433594 425.132812 649.496094 424.320312 649.566406 423.519531 C 649.640625 422.71875 649.726562 421.929688 649.820312 421.152344 C 649.917969 420.378906 650.023438 419.621094 650.144531 418.882812 C 650.261719 418.144531 650.390625 417.425781 650.53125 416.726562 C 650.671875 416.03125 650.820312 415.355469 650.980469 414.710938 C 651.140625 414.0625 651.308594 413.441406 651.484375 412.847656 C 651.664062 412.253906 651.847656 411.691406 652.042969 411.160156 C 652.238281 410.628906 652.441406 410.128906 652.648438 409.664062 C 652.859375 409.199219 653.074219 408.765625 653.296875 408.371094 C 653.515625 407.976562 653.746094 407.617188 653.976562 407.296875 C 654.207031 406.976562 654.445312 406.695312 654.6875 406.449219 C 654.925781 406.207031 655.171875 406.003906 655.417969 405.839844 C 655.664062 405.675781 655.914062 405.554688 656.164062 405.472656 C 656.414062 405.390625 656.664062 405.347656 656.914062 405.347656 C 657.167969 405.347656 657.417969 405.390625 657.667969 405.472656 C 657.917969 405.554688 658.167969 405.675781 658.414062 405.839844 C 658.660156 406.003906 658.902344 406.207031 659.144531 406.449219 C 659.382812 406.695312 659.621094 406.976562 659.851562 407.296875 C 660.085938 407.617188 660.3125 407.976562 660.535156 408.371094 C 660.757812 408.765625 660.972656 409.199219 661.179688 409.664062 C 661.390625 410.128906 661.589844 410.628906 661.785156 411.160156 C 661.980469 411.691406 662.167969 412.253906 662.34375 412.847656 C 662.523438 413.441406 662.691406 414.0625 662.851562 414.710938 C 663.011719 415.355469 663.160156 416.03125 663.300781 416.726562 C 663.4375 417.425781 663.566406 418.144531 663.6875 418.882812 C 663.804688 419.621094 663.914062 420.378906 664.007812 421.152344 C 664.105469 421.929688 664.191406 422.71875 664.261719 423.519531 C 664.335938 424.320312 664.398438 425.132812 664.445312 425.957031 C 664.496094 426.78125 664.53125 427.609375 664.554688 428.441406 C 664.582031 429.277344 664.59375 430.113281 664.59375 430.953125 Z M 664.59375 430.953125 " fill-opacity="1" fill-rule="nonzero"/><path fill="#ffffff" d="M 661.402344 430.953125 C 661.402344 431.941406 661.378906 432.921875 661.335938 433.894531 C 661.292969 434.863281 661.226562 435.804688 661.140625 436.722656 C 661.054688 437.636719 660.949219 438.503906 660.828125 439.328125 C 660.703125 440.148438 660.558594 440.910156 660.402344 441.609375 C 660.242188 442.3125 660.070312 442.9375 659.882812 443.484375 C 659.699219 444.035156 659.5 444.5 659.292969 444.878906 C 659.085938 445.257812 658.871094 445.542969 658.652344 445.738281 C 658.433594 445.929688 658.210938 446.027344 657.984375 446.027344 C 657.761719 446.027344 657.539062 445.929688 657.320312 445.738281 C 657.101562 445.542969 656.886719 445.257812 656.679688 444.878906 C 656.472656 444.5 656.273438 444.035156 656.089844 443.484375 C 655.902344 442.9375 655.730469 442.3125 655.570312 441.609375 C 655.414062 440.910156 655.269531 440.148438 655.144531 439.328125 C 655.019531 438.503906 654.917969 437.636719 654.832031 436.722656 C 654.746094 435.804688 654.679688 434.863281 654.636719 433.894531 C 654.59375 432.921875 654.570312 431.941406 654.570312 430.953125 C 654.570312 429.960938 654.59375 428.980469 654.636719 428.011719 C 654.679688 427.039062 654.746094 426.097656 654.832031 425.183594 C 654.917969 424.269531 655.019531 423.402344 655.144531 422.578125 C 655.269531 421.753906 655.414062 420.992188 655.570312 420.292969 C 655.730469 419.59375 655.902344 418.96875 656.089844 418.417969 C 656.273438 417.867188 656.472656 417.40625 656.679688 417.027344 C 656.886719 416.648438 657.101562 416.359375 657.320312 416.167969 C 657.539062 415.976562 657.761719 415.878906 657.984375 415.878906 C 658.210938 415.878906 658.433594 415.976562 658.652344 416.167969 C 658.871094 416.359375 659.085938 416.648438 659.292969 417.027344 C 659.5 417.40625 659.699219 417.867188 659.882812 418.417969 C 660.070312 418.96875 660.242188 419.59375 660.402344 420.292969 C 660.558594 420.992188 660.703125 421.753906 660.828125 422.578125 C 660.949219 423.402344 661.054688 424.269531 661.140625 425.183594 C 661.226562 426.097656 661.292969 427.039062 661.335938 428.011719 C 661.378906 428.980469 661.402344 429.960938 661.402344 430.953125 Z M 661.402344 430.953125 " fill-opacity="1" fill-rule="nonzero"/><g clip-path="url(#c50870cd06)"><path fill="#1655b2" d="M 826.269531 357.476562 L 825.734375 378.601562 L 824.082031 445.019531 L 762.527344 445.019531 L 756.015625 437.425781 L 755.714844 437.0625 L 753.660156 436.996094 L 620.246094 433.457031 L 616.324219 405.546875 L 617.074219 381.125 C 616.710938 378.585938 612.554688 373.671875 613.539062 371.367188 C 614.316406 369.480469 615.453125 367.835938 616.945312 366.4375 L 629.902344 354.40625 L 640.078125 312.949219 C 640.074219 312.925781 640.082031 312.902344 640.097656 312.886719 C 640.296875 312.117188 640.609375 311.402344 641.039062 310.734375 C 641.46875 310.066406 641.996094 309.488281 642.613281 308.992188 C 643.234375 308.496094 643.917969 308.109375 644.664062 307.832031 C 645.410156 307.558594 646.179688 307.40625 646.972656 307.382812 L 758.5 304.09375 C 759.851562 304.058594 761.1875 304.195312 762.503906 304.5 C 764.839844 305.027344 766.929688 306.042969 768.78125 307.550781 L 820.164062 352.1875 Z M 826.269531 357.476562 " fill-opacity="1" fill-rule="nonzero"/></g><g clip-path="url(#26bb9c0d37)"><path fill="#1655b2" d="M 826.269531 357.476562 L 825.734375 378.601562 L 822.796875 395.15625 C 822.796875 395.15625 776.128906 412.035156 764.304688 415.875 C 752.460938 419.738281 745.5 399.765625 745.5 399.765625 L 751.710938 365.414062 L 756.445312 360.378906 L 762.503906 304.5 C 764.839844 305.027344 766.929688 306.042969 768.78125 307.550781 L 820.164062 352.1875 Z M 826.269531 357.476562 " fill-opacity="1" fill-rule="nonzero"/></g><path fill="#000000" d="M 823.523438 429.117188 L 826.621094 433.273438 L 826.621094 437.109375 L 824.078125 445.015625 L 822.792969 430.84375 Z M 823.523438 429.117188 " fill-opacity="1" fill-rule="nonzero"/><path fill="#002149" d="M 826.261719 357.472656 L 824.078125 445.011719 L 762.523438 445.011719 L 756.011719 437.417969 L 755.710938 437.054688 L 753.65625 436.992188 L 751.191406 420.414062 C 751.191406 420.414062 791.179688 406.289062 805.210938 394.167969 C 814.910156 385.785156 818.722656 364.535156 820.160156 352.179688 Z M 826.261719 357.472656 " fill-opacity="1" fill-rule="nonzero"/><path fill="#000000" d="M 822.066406 445.011719 L 814.890625 445.011719 L 810.007812 440.746094 L 809.964844 426.492188 C 809.964844 426.492188 811.015625 421.972656 817.804688 425.425781 C 822.324219 427.730469 822.472656 438.269531 822.066406 445.011719 Z M 822.066406 445.011719 " fill-opacity="1" fill-rule="nonzero"/><path fill="#000000" d="M 784.15625 445.011719 L 762.523438 445.011719 L 759.898438 438.652344 L 766.164062 406.203125 C 766.332031 405.695312 766.554688 405.214844 766.832031 404.761719 C 767.109375 404.304688 767.4375 403.886719 767.808594 403.503906 C 768.183594 403.125 768.59375 402.789062 769.042969 402.5 C 769.496094 402.210938 769.972656 401.976562 770.476562 401.796875 C 770.980469 401.617188 771.496094 401.496094 772.027344 401.433594 C 772.558594 401.371094 773.089844 401.371094 773.625 401.429688 C 774.15625 401.484375 774.675781 401.601562 775.179688 401.777344 C 775.683594 401.953125 776.164062 402.183594 776.617188 402.46875 C 783.640625 405.988281 783.664062 432.660156 784.15625 445.011719 Z M 784.15625 445.011719 " fill-opacity="1" fill-rule="nonzero"/><path fill="#000000" d="M 758.796875 434.949219 C 758.347656 447.621094 755.113281 457.414062 751.191406 457.414062 C 747.273438 457.414062 744.039062 447.621094 743.589844 434.949219 Z M 758.796875 434.949219 " fill-opacity="1" fill-rule="nonzero"/><path fill="#000000" d="M 773.832031 406.207031 L 773.832031 457.414062 L 751.191406 457.414062 L 751.191406 434.949219 L 758.859375 434.949219 C 758.859375 434.949219 763.058594 414.015625 766.164062 406.207031 Z M 773.832031 406.207031 " fill-opacity="1" fill-rule="nonzero"/><path fill="#000000" d="M 781.519531 431.816406 C 781.519531 432.652344 781.503906 433.492188 781.480469 434.324219 C 781.457031 435.160156 781.417969 435.988281 781.371094 436.8125 C 781.320312 437.632812 781.261719 438.445312 781.1875 439.246094 C 781.113281 440.050781 781.03125 440.839844 780.933594 441.613281 C 780.835938 442.386719 780.730469 443.144531 780.609375 443.886719 C 780.492188 444.625 780.363281 445.34375 780.222656 446.039062 C 780.085938 446.738281 779.933594 447.410156 779.773438 448.058594 C 779.617188 448.707031 779.445312 449.328125 779.269531 449.921875 C 779.089844 450.511719 778.90625 451.074219 778.710938 451.609375 C 778.515625 452.140625 778.316406 452.640625 778.105469 453.105469 C 777.894531 453.570312 777.679688 454 777.460938 454.394531 C 777.238281 454.792969 777.011719 455.148438 776.777344 455.46875 C 776.546875 455.792969 776.308594 456.074219 776.070312 456.316406 C 775.828125 456.5625 775.585938 456.765625 775.335938 456.925781 C 775.089844 457.089844 774.84375 457.214844 774.59375 457.296875 C 774.34375 457.378906 774.089844 457.417969 773.839844 457.417969 C 773.589844 457.417969 773.335938 457.378906 773.085938 457.296875 C 772.835938 457.214844 772.589844 457.089844 772.339844 456.925781 C 772.09375 456.765625 771.851562 456.5625 771.609375 456.316406 C 771.371094 456.074219 771.132812 455.792969 770.902344 455.46875 C 770.667969 455.148438 770.441406 454.792969 770.21875 454.394531 C 770 454 769.78125 453.570312 769.574219 453.105469 C 769.363281 452.640625 769.164062 452.140625 768.96875 451.609375 C 768.773438 451.074219 768.589844 450.511719 768.410156 449.921875 C 768.230469 449.328125 768.0625 448.707031 767.902344 448.058594 C 767.746094 447.410156 767.59375 446.738281 767.457031 446.039062 C 767.316406 445.34375 767.1875 444.625 767.066406 443.886719 C 766.949219 443.144531 766.84375 442.386719 766.746094 441.613281 C 766.648438 440.839844 766.566406 440.050781 766.492188 439.246094 C 766.417969 438.445312 766.359375 437.632812 766.308594 436.8125 C 766.257812 435.988281 766.222656 435.160156 766.199219 434.324219 C 766.171875 433.492188 766.160156 432.652344 766.160156 431.816406 C 766.160156 430.976562 766.171875 430.140625 766.199219 429.304688 C 766.222656 428.472656 766.257812 427.644531 766.308594 426.820312 C 766.359375 425.996094 766.417969 425.183594 766.492188 424.382812 C 766.566406 423.582031 766.648438 422.792969 766.746094 422.015625 C 766.84375 421.242188 766.949219 420.484375 767.066406 419.746094 C 767.1875 419.007812 767.316406 418.289062 767.457031 417.589844 C 767.59375 416.894531 767.746094 416.21875 767.902344 415.574219 C 768.0625 414.925781 768.230469 414.304688 768.410156 413.710938 C 768.589844 413.117188 768.773438 412.554688 768.96875 412.023438 C 769.164062 411.492188 769.363281 410.992188 769.574219 410.527344 C 769.78125 410.0625 770 409.628906 770.21875 409.234375 C 770.441406 408.839844 770.667969 408.480469 770.902344 408.160156 C 771.132812 407.839844 771.371094 407.558594 771.609375 407.3125 C 771.851562 407.070312 772.09375 406.867188 772.339844 406.703125 C 772.589844 406.539062 772.835938 406.417969 773.085938 406.335938 C 773.335938 406.253906 773.589844 406.210938 773.839844 406.210938 C 774.089844 406.210938 774.34375 406.253906 774.59375 406.335938 C 774.84375 406.417969 775.089844 406.539062 775.335938 406.703125 C 775.585938 406.867188 775.828125 407.070312 776.070312 407.3125 C 776.308594 407.558594 776.546875 407.839844 776.777344 408.160156 C 777.011719 408.480469 777.238281 408.839844 777.460938 409.234375 C 777.679688 409.628906 777.894531 410.0625 778.105469 410.527344 C 778.316406 410.992188 778.515625 411.492188 778.710938 412.023438 C 778.90625 412.554688 779.089844 413.117188 779.269531 413.710938 C 779.445312 414.304688 779.617188 414.925781 779.773438 415.574219 C 779.933594 416.21875 780.085938 416.894531 780.222656 417.589844 C 780.363281 418.289062 780.492188 419.007812 780.609375 419.746094 C 780.730469 420.484375 780.835938 421.242188 780.933594 422.015625 C 781.03125 422.792969 781.113281 423.582031 781.1875 424.382812 C 781.261719 425.183594 781.320312 425.996094 781.371094 426.820312 C 781.417969 427.644531 781.457031 428.472656 781.480469 429.304688 C 781.503906 430.140625 781.519531 430.976562 781.519531 431.816406 Z M 781.519531 431.816406 " fill-opacity="1" fill-rule="nonzero"/><path fill="#ffffff" d="M 778.328125 431.816406 C 778.328125 432.804688 778.308594 433.785156 778.261719 434.757812 C 778.21875 435.726562 778.15625 436.667969 778.070312 437.585938 C 777.984375 438.5 777.878906 439.367188 777.753906 440.191406 C 777.628906 441.011719 777.488281 441.773438 777.328125 442.472656 C 777.167969 443.175781 776.996094 443.800781 776.8125 444.347656 C 776.625 444.898438 776.425781 445.363281 776.21875 445.742188 C 776.011719 446.121094 775.800781 446.40625 775.578125 446.601562 C 775.359375 446.792969 775.136719 446.890625 774.914062 446.890625 C 774.6875 446.890625 774.464844 446.792969 774.246094 446.601562 C 774.027344 446.40625 773.8125 446.121094 773.605469 445.742188 C 773.398438 445.363281 773.203125 444.898438 773.015625 444.347656 C 772.828125 443.800781 772.65625 443.175781 772.496094 442.472656 C 772.339844 441.773438 772.199219 441.011719 772.074219 440.191406 C 771.949219 439.367188 771.84375 438.5 771.757812 437.585938 C 771.671875 436.667969 771.605469 435.726562 771.5625 434.757812 C 771.519531 433.785156 771.496094 432.804688 771.496094 431.816406 C 771.496094 430.824219 771.519531 429.84375 771.5625 428.875 C 771.605469 427.902344 771.671875 426.960938 771.757812 426.046875 C 771.84375 425.132812 771.949219 424.265625 772.074219 423.441406 C 772.199219 422.617188 772.339844 421.855469 772.496094 421.15625 C 772.65625 420.457031 772.828125 419.832031 773.015625 419.28125 C 773.203125 418.730469 773.398438 418.269531 773.605469 417.890625 C 773.8125 417.511719 774.027344 417.222656 774.246094 417.03125 C 774.464844 416.839844 774.6875 416.742188 774.914062 416.742188 C 775.136719 416.742188 775.359375 416.839844 775.578125 417.03125 C 775.800781 417.222656 776.011719 417.511719 776.21875 417.890625 C 776.425781 418.269531 776.625 418.730469 776.8125 419.28125 C 776.996094 419.832031 777.167969 420.457031 777.328125 421.15625 C 777.488281 421.855469 777.628906 422.617188 777.753906 423.441406 C 777.878906 424.265625 777.984375 425.132812 778.070312 426.046875 C 778.15625 426.960938 778.21875 427.902344 778.261719 428.875 C 778.308594 429.84375 778.328125 430.824219 778.328125 431.816406 Z M 778.328125 431.816406 " fill-opacity="1" fill-rule="nonzero"/><path fill="#000000" d="M 776.621094 432.335938 C 776.621094 432.882812 776.609375 433.425781 776.585938 433.960938 C 776.566406 434.5 776.53125 435.019531 776.488281 435.523438 C 776.445312 436.03125 776.394531 436.511719 776.332031 436.964844 C 776.269531 437.417969 776.199219 437.839844 776.121094 438.226562 C 776.039062 438.613281 775.953125 438.960938 775.859375 439.261719 C 775.769531 439.566406 775.667969 439.824219 775.566406 440.03125 C 775.460938 440.242188 775.355469 440.402344 775.246094 440.507812 C 775.136719 440.613281 775.023438 440.667969 774.914062 440.667969 C 774.800781 440.667969 774.691406 440.613281 774.578125 440.507812 C 774.46875 440.402344 774.363281 440.242188 774.257812 440.03125 C 774.15625 439.824219 774.058594 439.566406 773.964844 439.261719 C 773.871094 438.960938 773.785156 438.613281 773.707031 438.226562 C 773.625 437.839844 773.554688 437.417969 773.492188 436.964844 C 773.429688 436.511719 773.378906 436.03125 773.335938 435.523438 C 773.292969 435.019531 773.261719 434.5 773.238281 433.960938 C 773.21875 433.425781 773.207031 432.882812 773.207031 432.335938 C 773.207031 431.789062 773.21875 431.25 773.238281 430.710938 C 773.261719 430.175781 773.292969 429.65625 773.335938 429.148438 C 773.378906 428.644531 773.429688 428.164062 773.492188 427.707031 C 773.554688 427.253906 773.625 426.832031 773.707031 426.445312 C 773.785156 426.058594 773.871094 425.714844 773.964844 425.410156 C 774.058594 425.105469 774.15625 424.851562 774.257812 424.640625 C 774.363281 424.429688 774.46875 424.273438 774.578125 424.167969 C 774.691406 424.058594 774.800781 424.007812 774.914062 424.007812 C 775.023438 424.007812 775.136719 424.058594 775.246094 424.167969 C 775.355469 424.273438 775.460938 424.429688 775.566406 424.640625 C 775.667969 424.851562 775.769531 425.105469 775.859375 425.410156 C 775.953125 425.714844 776.039062 426.058594 776.121094 426.445312 C 776.199219 426.832031 776.269531 427.253906 776.332031 427.707031 C 776.394531 428.164062 776.445312 428.644531 776.488281 429.148438 C 776.53125 429.65625 776.566406 430.175781 776.585938 430.710938 C 776.609375 431.25 776.621094 431.789062 776.621094 432.335938 Z M 776.621094 432.335938 " fill-opacity="1" fill-rule="nonzero"/><path fill="#000000" d="M 805.210938 445.011719 C 804.921875 453.179688 802.839844 459.488281 800.3125 459.488281 C 797.785156 459.488281 795.703125 453.179688 795.410156 445.011719 Z M 805.210938 445.011719 " fill-opacity="1" fill-rule="nonzero"/><path fill="#000000" d="M 814.902344 426.484375 L 814.902344 459.488281 L 800.3125 459.488281 L 800.3125 445.011719 L 805.253906 445.011719 C 806.46875 438.746094 808.035156 432.570312 809.960938 426.484375 Z M 814.902344 426.484375 " fill-opacity="1" fill-rule="nonzero"/><path fill="#000000" d="M 819.859375 442.988281 C 819.859375 444.074219 819.828125 445.144531 819.765625 446.210938 C 819.699219 447.273438 819.605469 448.304688 819.484375 449.304688 C 819.359375 450.304688 819.207031 451.257812 819.023438 452.15625 C 818.84375 453.058594 818.640625 453.894531 818.410156 454.660156 C 818.179688 455.425781 817.929688 456.109375 817.660156 456.710938 C 817.390625 457.3125 817.105469 457.820312 816.804688 458.234375 C 816.503906 458.652344 816.195312 458.964844 815.875 459.175781 C 815.558594 459.386719 815.234375 459.492188 814.910156 459.492188 C 814.585938 459.492188 814.265625 459.386719 813.945312 459.175781 C 813.625 458.964844 813.316406 458.652344 813.015625 458.234375 C 812.714844 457.820312 812.429688 457.3125 812.160156 456.710938 C 811.890625 456.109375 811.640625 455.425781 811.410156 454.660156 C 811.179688 453.894531 810.976562 453.058594 810.796875 452.15625 C 810.613281 451.257812 810.460938 450.304688 810.339844 449.304688 C 810.214844 448.304688 810.121094 447.273438 810.058594 446.210938 C 809.992188 445.144531 809.960938 444.074219 809.960938 442.988281 C 809.960938 441.90625 809.992188 440.832031 810.058594 439.769531 C 810.121094 438.707031 810.214844 437.675781 810.339844 436.675781 C 810.460938 435.671875 810.613281 434.722656 810.796875 433.820312 C 810.976562 432.921875 811.179688 432.085938 811.410156 431.320312 C 811.640625 430.554688 811.890625 429.871094 812.160156 429.269531 C 812.429688 428.667969 812.714844 428.15625 813.015625 427.742188 C 813.316406 427.328125 813.625 427.015625 813.945312 426.804688 C 814.265625 426.59375 814.585938 426.488281 814.910156 426.488281 C 815.234375 426.488281 815.558594 426.59375 815.875 426.804688 C 816.195312 427.015625 816.503906 427.328125 816.804688 427.742188 C 817.105469 428.15625 817.390625 428.667969 817.660156 429.269531 C 817.929688 429.871094 818.179688 430.554688 818.410156 431.320312 C 818.640625 432.085938 818.84375 432.921875 819.023438 433.820312 C 819.207031 434.722656 819.359375 435.671875 819.484375 436.675781 C 819.605469 437.675781 819.699219 438.707031 819.765625 439.769531 C 819.828125 440.832031 819.859375 441.90625 819.859375 442.988281 Z M 819.859375 442.988281 " fill-opacity="1" fill-rule="nonzero"/><path fill="#ffffff" d="M 817.804688 442.988281 C 817.804688 443.628906 817.789062 444.257812 817.761719 444.886719 C 817.730469 445.511719 817.691406 446.117188 817.636719 446.707031 C 817.578125 447.296875 817.511719 447.855469 817.433594 448.386719 C 817.351562 448.917969 817.261719 449.40625 817.15625 449.859375 C 817.054688 450.308594 816.945312 450.714844 816.824219 451.066406 C 816.703125 451.421875 816.578125 451.722656 816.445312 451.964844 C 816.308594 452.210938 816.171875 452.394531 816.03125 452.519531 C 815.890625 452.640625 815.746094 452.703125 815.601562 452.703125 C 815.457031 452.703125 815.3125 452.640625 815.171875 452.519531 C 815.03125 452.394531 814.890625 452.210938 814.757812 451.964844 C 814.625 451.722656 814.5 451.421875 814.378906 451.066406 C 814.257812 450.714844 814.148438 450.308594 814.042969 449.859375 C 813.941406 449.40625 813.851562 448.917969 813.769531 448.386719 C 813.691406 447.855469 813.621094 447.296875 813.566406 446.707031 C 813.511719 446.117188 813.46875 445.511719 813.441406 444.886719 C 813.414062 444.257812 813.398438 443.628906 813.398438 442.988281 C 813.398438 442.351562 813.414062 441.71875 813.441406 441.09375 C 813.46875 440.46875 813.511719 439.859375 813.566406 439.273438 C 813.621094 438.683594 813.691406 438.121094 813.769531 437.59375 C 813.851562 437.0625 813.941406 436.570312 814.042969 436.121094 C 814.148438 435.667969 814.257812 435.265625 814.378906 434.910156 C 814.5 434.558594 814.625 434.257812 814.757812 434.015625 C 814.890625 433.769531 815.03125 433.585938 815.171875 433.460938 C 815.3125 433.335938 815.457031 433.273438 815.601562 433.273438 C 815.746094 433.273438 815.890625 433.335938 816.03125 433.460938 C 816.171875 433.585938 816.308594 433.769531 816.445312 434.015625 C 816.578125 434.257812 816.703125 434.558594 816.824219 434.910156 C 816.945312 435.265625 817.054688 435.667969 817.15625 436.121094 C 817.261719 436.570312 817.351562 437.0625 817.433594 437.59375 C 817.511719 438.121094 817.578125 438.683594 817.636719 439.273438 C 817.691406 439.859375 817.730469 440.46875 817.761719 441.09375 C 817.789062 441.71875 817.804688 442.351562 817.804688 442.988281 Z M 817.804688 442.988281 " fill-opacity="1" fill-rule="nonzero"/><path fill="#000000" d="M 816.792969 442.945312 C 816.792969 443.640625 816.761719 444.308594 816.699219 444.953125 C 816.640625 445.597656 816.554688 446.164062 816.441406 446.65625 C 816.332031 447.148438 816.203125 447.527344 816.054688 447.796875 C 815.910156 448.0625 815.757812 448.195312 815.601562 448.195312 C 815.441406 448.195312 815.292969 448.0625 815.144531 447.796875 C 815 447.527344 814.871094 447.148438 814.757812 446.65625 C 814.648438 446.164062 814.5625 445.597656 814.5 444.953125 C 814.441406 444.308594 814.410156 443.640625 814.410156 442.945312 C 814.410156 442.246094 814.441406 441.578125 814.5 440.933594 C 814.5625 440.289062 814.648438 439.722656 814.757812 439.230469 C 814.871094 438.738281 815 438.359375 815.144531 438.089844 C 815.292969 437.824219 815.441406 437.691406 815.601562 437.691406 C 815.757812 437.691406 815.910156 437.824219 816.054688 438.089844 C 816.203125 438.359375 816.332031 438.738281 816.441406 439.230469 C 816.554688 439.722656 816.640625 440.289062 816.699219 440.933594 C 816.761719 441.578125 816.792969 442.246094 816.792969 442.945312 Z M 816.792969 442.945312 " fill-opacity="1" fill-rule="nonzero"/><path fill="#000000" d="M 759.546875 307.90625 L 754.8125 350.773438 L 736.050781 351.328125 L 711.523438 352.03125 L 697.796875 352.4375 L 697.773438 352.4375 L 674.75 353.097656 L 629.40625 354.382812 L 640.074219 312.945312 C 640.070312 312.917969 640.078125 312.898438 640.09375 312.878906 L 650.117188 312.453125 L 650.140625 312.453125 L 670.335938 311.621094 L 681.539062 311.152344 L 702.828125 310.277344 Z M 759.546875 307.90625 " fill-opacity="1" fill-rule="nonzero"/><path fill="#000000" d="M 763.910156 311.542969 L 759.898438 352.375 L 764.929688 354.480469 Z M 763.910156 311.542969 " fill-opacity="1" fill-rule="nonzero"/><path fill="#ffffff" d="M 697.773438 352.4375 L 674.75 353.097656 L 650.140625 312.453125 L 670.339844 311.621094 Z M 697.773438 352.4375 " fill-opacity="0.5" fill-rule="nonzero"/><path fill="#ffffff" d="M 736.050781 351.328125 L 711.527344 352.03125 L 681.539062 311.152344 L 702.828125 310.277344 Z M 736.050781 351.328125 " fill-opacity="0.5" fill-rule="nonzero"/><path fill="#000000" d="M 791.992188 336.242188 L 791.992188 368.117188 L 771.496094 358.386719 L 771.347656 354.503906 L 769.910156 317.746094 L 791.265625 335.644531 Z M 791.992188 336.242188 " fill-opacity="1" fill-rule="nonzero"/><path fill="#000000" d="M 807.609375 348.683594 L 807.609375 376.183594 L 795.421875 370.082031 L 795.421875 338.738281 L 804.457031 346.101562 Z M 807.609375 348.683594 " fill-opacity="1" fill-rule="nonzero"/><path fill="#000000" d="M 822.214844 360.671875 L 822.214844 383.695312 L 810.839844 377.398438 L 810.820312 372.683594 L 810.671875 350.984375 L 821.808594 360.332031 Z M 822.214844 360.671875 " fill-opacity="1" fill-rule="nonzero"/><path fill="#1655b2" d="M 784.007812 350.640625 C 782.34375 356.472656 765.730469 358.011719 765.730469 358.011719 L 762.078125 354.742188 L 758.847656 351.835938 C 758.847656 351.835938 766.808594 342.488281 772.347656 342.488281 C 779.304688 342.488281 783.054688 342 784.109375 349.101562 C 784.1875 349.621094 784.15625 350.136719 784.007812 350.640625 Z M 784.007812 350.640625 " fill-opacity="1" fill-rule="nonzero"/><path fill="#ffc000" d="M 630.5625 382.5625 L 628.1875 394.722656 L 626.410156 403.855469 L 616.320312 405.542969 L 614.863281 395.152344 L 613.085938 382.605469 L 612.550781 378.765625 C 612.1875 376.207031 612.515625 373.738281 613.535156 371.363281 Z M 630.5625 382.5625 " fill-opacity="1" fill-rule="nonzero"/><path fill="#ffc000" d="M 751.707031 365.40625 L 749.285156 379.214844 L 746.007812 397.96875 L 738.40625 402.917969 L 723.753906 402.960938 L 722.660156 395.238281 L 720.734375 381.539062 L 739.285156 375.839844 Z M 751.707031 365.40625 " fill-opacity="1" fill-rule="nonzero"/><path fill="#ffffff" d="M 637.652344 384.183594 L 632.945312 404.71875 L 641.394531 414.304688 L 710.886719 413.035156 L 718.351562 402.804688 L 712.515625 382.621094 Z M 637.652344 384.183594 " fill-opacity="1" fill-rule="nonzero"/><path fill="#002149" d="M 616.800781 430.492188 L 618.433594 416.867188 L 632.945312 416.867188 L 637.652344 423.164062 L 717.707031 420.289062 L 722.332031 415.222656 L 746.144531 414.109375 L 751.191406 420.40625 L 761.375 423.535156 L 757.757812 439.351562 L 620.230469 441.292969 Z M 616.800781 430.492188 " fill-opacity="1" fill-rule="nonzero"/><path fill="#1655b2" d="M 641.945312 430.953125 L 641.945312 434.960938 L 718.351562 434.949219 L 718.351562 428.4375 Z M 641.945312 430.953125 " fill-opacity="1" fill-rule="nonzero"/><g clip-path="url(#5afe6387d0)"><g clip-path="url(#3773855253)"><path fill="#000000" d="M 640.371094 387.039062 L 637.652344 403.269531 L 641.945312 409.996094 L 708.792969 409.015625 L 714.046875 399.722656 L 709.199219 385.988281 Z M 640.371094 387.039062 " fill-opacity="0.5" fill-rule="nonzero"/></g></g><g clip-path="url(#8f1672b549)"><g clip-path="url(#b7da00305a)"><path fill="#000000" d="M 648.433594 386.652344 L 641.390625 386.757812 L 638.929688 389.386719 L 641.472656 392.183594 L 649.0625 392.070312 L 651.09375 389.203125 Z M 647.753906 391.027344 L 642.613281 391.101562 L 640.898438 389.40625 L 642.566406 387.800781 L 647.328125 387.730469 L 649.125 389.28125 Z M 647.753906 391.027344 " fill-opacity="1" fill-rule="nonzero"/></g></g><g clip-path="url(#93feeb0525)"><g clip-path="url(#50cc2ec96d)"><path fill="#000000" d="M 660.109375 386.476562 L 653.066406 386.582031 L 650.605469 389.210938 L 653.148438 392.007812 L 660.738281 391.894531 L 662.769531 389.03125 Z M 659.429688 390.851562 L 654.292969 390.929688 L 652.574219 389.230469 L 654.242188 387.628906 L 659.007812 387.554688 L 660.804688 389.109375 Z M 659.429688 390.851562 " fill-opacity="1" fill-rule="nonzero"/></g></g><g clip-path="url(#a09b13b1d5)"><g clip-path="url(#7c0d846e97)"><path fill="#000000" d="M 672.273438 386.296875 L 665.230469 386.402344 L 662.769531 389.03125 L 665.3125 391.828125 L 672.902344 391.714844 L 674.933594 388.851562 Z M 671.59375 390.671875 L 666.457031 390.75 L 664.738281 389.050781 L 666.40625 387.445312 L 671.171875 387.375 L 672.96875 388.925781 Z M 671.59375 390.671875 " fill-opacity="1" fill-rule="nonzero"/></g></g><g clip-path="url(#ab8225ae27)"><g clip-path="url(#38d6e8d52d)"><path fill="#000000" d="M 684.4375 386.117188 L 677.394531 386.21875 L 674.933594 388.851562 L 677.476562 391.644531 L 685.066406 391.53125 L 687.097656 388.667969 Z M 683.757812 390.492188 L 678.621094 390.566406 L 676.902344 388.867188 L 678.570312 387.265625 L 683.335938 387.195312 L 685.132812 388.746094 Z M 683.757812 390.492188 " fill-opacity="1" fill-rule="nonzero"/></g></g><g clip-path="url(#631a43b63d)"><g clip-path="url(#41ed43c1f1)"><path fill="#000000" d="M 696.601562 385.933594 L 689.558594 386.039062 L 687.097656 388.667969 L 689.640625 391.464844 L 697.230469 391.351562 L 699.261719 388.488281 Z M 695.921875 390.308594 L 690.785156 390.386719 L 689.066406 388.6875 L 690.734375 387.082031 L 695.5 387.011719 L 697.296875 388.566406 Z M 695.921875 390.308594 " fill-opacity="1" fill-rule="nonzero"/></g></g><g clip-path="url(#b9b2896fe4)"><g clip-path="url(#6bdbd71ebe)"><path fill="#000000" d="M 708.765625 385.753906 L 701.722656 385.859375 L 699.261719 388.488281 L 701.804688 391.285156 L 709.394531 391.171875 L 711.425781 388.304688 Z M 708.085938 390.128906 L 702.949219 390.203125 L 701.230469 388.507812 L 702.898438 386.902344 L 707.664062 386.832031 L 709.460938 388.382812 Z M 708.085938 390.128906 " fill-opacity="1" fill-rule="nonzero"/></g></g><g clip-path="url(#a445937c79)"><g clip-path="url(#720e66d20e)"><path fill="#000000" d="M 642.757812 391.914062 L 635.71875 392.019531 L 633.257812 394.648438 L 635.800781 397.445312 L 643.386719 397.332031 L 645.421875 394.46875 Z M 642.078125 396.289062 L 636.941406 396.367188 L 635.222656 394.667969 L 636.890625 393.0625 L 641.65625 392.992188 L 643.453125 394.546875 Z M 642.078125 396.289062 " fill-opacity="1" fill-rule="nonzero"/></g></g><g clip-path="url(#6c45c16531)"><g clip-path="url(#a61a48e977)"><path fill="#000000" d="M 654.4375 391.742188 L 647.394531 391.84375 L 644.933594 394.476562 L 647.476562 397.269531 L 655.066406 397.160156 L 657.097656 394.292969 Z M 653.753906 396.117188 L 648.617188 396.191406 L 646.902344 394.492188 L 648.570312 392.890625 L 653.332031 392.820312 L 655.128906 394.371094 Z M 653.753906 396.117188 " fill-opacity="1" fill-rule="nonzero"/></g></g><g clip-path="url(#13bc1ef814)"><g clip-path="url(#ef3e262cb1)"><path fill="#000000" d="M 666.601562 391.558594 L 659.558594 391.664062 L 657.097656 394.292969 L 659.640625 397.089844 L 667.230469 396.976562 L 669.261719 394.113281 Z M 665.917969 395.933594 L 660.78125 396.011719 L 659.066406 394.3125 L 660.734375 392.707031 L 665.496094 392.636719 L 667.292969 394.191406 Z M 665.917969 395.933594 " fill-opacity="1" fill-rule="nonzero"/></g></g><g clip-path="url(#40431cc920)"><g clip-path="url(#650b8360eb)"><path fill="#000000" d="M 678.765625 391.378906 L 671.722656 391.484375 L 669.261719 394.113281 L 671.804688 396.910156 L 679.394531 396.796875 L 681.425781 393.929688 Z M 678.082031 395.753906 L 672.945312 395.828125 L 671.230469 394.132812 L 672.898438 392.527344 L 677.660156 392.457031 L 679.457031 394.007812 Z M 678.082031 395.753906 " fill-opacity="1" fill-rule="nonzero"/></g></g><g clip-path="url(#f94ff9e582)"><g clip-path="url(#95c9f5e96e)"><path fill="#000000" d="M 690.929688 391.195312 L 683.886719 391.300781 L 681.425781 393.929688 L 683.96875 396.726562 L 691.558594 396.613281 L 693.589844 393.75 Z M 690.246094 395.570312 L 685.109375 395.648438 L 683.394531 393.949219 L 685.0625 392.347656 L 689.824219 392.277344 L 691.621094 393.828125 Z M 690.246094 395.570312 " fill-opacity="1" fill-rule="nonzero"/></g></g><g clip-path="url(#4570484403)"><g clip-path="url(#482ec7bea9)"><path fill="#000000" d="M 703.09375 391.015625 L 696.050781 391.121094 L 693.589844 393.75 L 696.132812 396.546875 L 703.722656 396.433594 L 705.753906 393.570312 Z M 702.410156 395.390625 L 697.273438 395.46875 L 695.558594 393.769531 L 697.226562 392.164062 L 701.988281 392.09375 L 703.785156 393.648438 Z M 702.410156 395.390625 " fill-opacity="1" fill-rule="nonzero"/></g></g><g clip-path="url(#af3687f2bf)"><g clip-path="url(#1d37b58426)"><path fill="#000000" d="M 714.847656 390.75 L 707.804688 390.851562 L 705.34375 393.484375 L 707.886719 396.277344 L 715.476562 396.167969 L 717.507812 393.300781 Z M 714.167969 395.125 L 709.03125 395.199219 L 707.3125 393.5 L 708.980469 391.898438 L 713.746094 391.828125 L 715.542969 393.378906 Z M 714.167969 395.125 " fill-opacity="1" fill-rule="nonzero"/></g></g><g clip-path="url(#a944ec4eaa)"><g clip-path="url(#b0e8e57671)"><path fill="#000000" d="M 643.769531 402.257812 L 636.726562 402.363281 L 634.265625 404.992188 L 636.808594 407.789062 L 644.398438 407.675781 L 646.429688 404.8125 Z M 643.089844 406.632812 L 637.953125 406.710938 L 636.234375 405.011719 L 637.902344 403.410156 L 642.667969 403.335938 L 644.464844 404.890625 Z M 643.089844 406.632812 " fill-opacity="1" fill-rule="nonzero"/></g></g><g clip-path="url(#6ee6299d6f)"><g clip-path="url(#b40103d2fd)"><path fill="#000000" d="M 655.445312 402.085938 L 648.40625 402.191406 L 645.945312 404.820312 L 648.488281 407.617188 L 656.074219 407.503906 L 658.109375 404.636719 Z M 654.765625 406.460938 L 649.628906 406.535156 L 647.910156 404.839844 L 649.578125 403.234375 L 654.34375 403.164062 L 656.140625 404.714844 Z M 654.765625 406.460938 " fill-opacity="1" fill-rule="nonzero"/></g></g><g clip-path="url(#bcd43a2240)"><g clip-path="url(#23d0c650a2)"><path fill="#000000" d="M 667.609375 401.902344 L 660.570312 402.007812 L 658.109375 404.636719 L 660.652344 407.433594 L 668.238281 407.320312 L 670.273438 404.457031 Z M 666.929688 406.277344 L 661.792969 406.355469 L 660.074219 404.65625 L 661.742188 403.054688 L 666.507812 402.980469 L 668.304688 404.535156 Z M 666.929688 406.277344 " fill-opacity="1" fill-rule="nonzero"/></g></g><g clip-path="url(#b4ce38d4cf)"><g clip-path="url(#df32334731)"><path fill="#000000" d="M 679.773438 401.722656 L 672.734375 401.828125 L 670.273438 404.457031 L 672.816406 407.253906 L 680.402344 407.140625 L 682.4375 404.277344 Z M 679.09375 406.097656 L 673.957031 406.175781 L 672.238281 404.476562 L 673.90625 402.871094 L 678.671875 402.800781 L 680.46875 404.351562 Z M 679.09375 406.097656 " fill-opacity="1" fill-rule="nonzero"/></g></g><g clip-path="url(#328d799c04)"><g clip-path="url(#1b8f87cc86)"><path fill="#000000" d="M 691.9375 401.542969 L 684.898438 401.644531 L 682.4375 404.277344 L 684.980469 407.074219 L 692.566406 406.960938 L 694.601562 404.09375 Z M 691.257812 405.917969 L 686.121094 405.992188 L 684.402344 404.292969 L 686.070312 402.691406 L 690.835938 402.621094 L 692.632812 404.171875 Z M 691.257812 405.917969 " fill-opacity="1" fill-rule="nonzero"/></g></g><g clip-path="url(#6e350bc736)"><g clip-path="url(#379f4aab6c)"><path fill="#000000" d="M 704.101562 401.359375 L 697.0625 401.464844 L 694.601562 404.09375 L 697.144531 406.890625 L 704.730469 406.777344 L 706.765625 403.914062 Z M 703.421875 405.734375 L 698.285156 405.8125 L 696.566406 404.113281 L 698.234375 402.507812 L 703 402.4375 L 704.796875 403.992188 Z M 703.421875 405.734375 " fill-opacity="1" fill-rule="nonzero"/></g></g><g clip-path="url(#54a6721511)"><g clip-path="url(#5874a92c2b)"><path fill="#000000" d="M 715.859375 401.09375 L 708.816406 401.199219 L 706.355469 403.828125 L 708.898438 406.625 L 716.488281 406.511719 L 718.519531 403.644531 Z M 715.179688 405.46875 L 710.039062 405.542969 L 708.324219 403.847656 L 709.992188 402.242188 L 714.753906 402.171875 L 716.550781 403.722656 Z M 715.179688 405.46875 " fill-opacity="1" fill-rule="nonzero"/></g></g><g clip-path="url(#2b37ffe5c1)"><g clip-path="url(#2f9fa04454)"><path fill="#000000" d="M 649.875 407.539062 L 642.835938 407.644531 L 640.375 410.273438 L 642.917969 413.070312 L 650.503906 412.957031 L 652.539062 410.09375 Z M 649.195312 411.914062 L 644.058594 411.992188 L 642.34375 410.292969 L 644.007812 408.6875 L 648.773438 408.617188 L 650.570312 410.171875 Z M 649.195312 411.914062 " fill-opacity="1" fill-rule="nonzero"/></g></g><g clip-path="url(#88fdb44ea2)"><g clip-path="url(#8275cd7e96)"><path fill="#000000" d="M 661.554688 407.367188 L 654.511719 407.46875 L 652.050781 410.101562 L 654.59375 412.898438 L 662.183594 412.785156 L 664.214844 409.917969 Z M 660.871094 411.742188 L 655.734375 411.816406 L 654.019531 410.117188 L 655.6875 408.515625 L 660.449219 408.445312 L 662.246094 409.996094 Z M 660.871094 411.742188 " fill-opacity="1" fill-rule="nonzero"/></g></g><g clip-path="url(#ac8d872f6c)"><g clip-path="url(#8daf74ec04)"><path fill="#000000" d="M 673.71875 407.183594 L 666.675781 407.289062 L 664.214844 409.917969 L 666.757812 412.714844 L 674.347656 412.601562 L 676.378906 409.738281 Z M 673.035156 411.558594 L 667.898438 411.636719 L 666.183594 409.9375 L 667.851562 408.332031 L 672.613281 408.261719 L 674.410156 409.816406 Z M 673.035156 411.558594 " fill-opacity="1" fill-rule="nonzero"/></g></g><g clip-path="url(#d397c3bda0)"><g clip-path="url(#5b356e0130)"><path fill="#000000" d="M 685.882812 407.003906 L 678.839844 407.109375 L 676.378906 409.738281 L 678.921875 412.535156 L 686.511719 412.421875 L 688.542969 409.554688 Z M 685.199219 411.378906 L 680.0625 411.453125 L 678.347656 409.757812 L 680.015625 408.152344 L 684.777344 408.082031 L 686.574219 409.632812 Z M 685.199219 411.378906 " fill-opacity="1" fill-rule="nonzero"/></g></g><g clip-path="url(#2549a88d62)"><g clip-path="url(#88d81db67d)"><path fill="#000000" d="M 698.046875 406.820312 L 691.003906 406.925781 L 688.542969 409.554688 L 691.085938 412.351562 L 698.675781 412.238281 L 700.707031 409.375 Z M 697.363281 411.199219 L 692.226562 411.273438 L 690.511719 409.574219 L 692.179688 407.972656 L 696.941406 407.902344 L 698.738281 409.453125 Z M 697.363281 411.199219 " fill-opacity="1" fill-rule="nonzero"/></g></g><g clip-path="url(#494ccb5560)"><g clip-path="url(#beb9265c9e)"><path fill="#000000" d="M 710.210938 406.640625 L 703.167969 406.746094 L 700.707031 409.375 L 703.25 412.171875 L 710.839844 412.058594 L 712.871094 409.195312 Z M 709.527344 411.015625 L 704.390625 411.09375 L 702.675781 409.394531 L 704.34375 407.789062 L 709.105469 407.71875 L 710.902344 409.273438 Z M 709.527344 411.015625 " fill-opacity="1" fill-rule="nonzero"/></g></g><g clip-path="url(#9e418f6b1f)"><g clip-path="url(#fe9341bc4c)"><path fill="#000000" d="M 637.289062 397.175781 L 630.25 397.28125 L 627.789062 399.910156 L 630.332031 402.707031 L 637.917969 402.59375 L 639.953125 399.730469 Z M 636.609375 401.550781 L 631.472656 401.628906 L 629.753906 399.929688 L 631.421875 398.328125 L 636.1875 398.253906 L 637.984375 399.808594 Z M 636.609375 401.550781 " fill-opacity="1" fill-rule="nonzero"/></g></g><g clip-path="url(#522a0f078a)"><g clip-path="url(#a7b4d72d1e)"><path fill="#000000" d="M 648.96875 397.003906 L 641.925781 397.109375 L 639.464844 399.738281 L 642.007812 402.535156 L 649.597656 402.421875 L 651.628906 399.558594 Z M 648.285156 401.378906 L 643.148438 401.453125 L 641.433594 399.757812 L 643.101562 398.152344 L 647.863281 398.082031 L 649.660156 399.632812 Z M 648.285156 401.378906 " fill-opacity="1" fill-rule="nonzero"/></g></g><g clip-path="url(#d218471d20)"><g clip-path="url(#0ebba485b9)"><path fill="#000000" d="M 661.132812 396.820312 L 654.089844 396.925781 L 651.628906 399.558594 L 654.171875 402.351562 L 661.761719 402.238281 L 663.792969 399.375 Z M 660.449219 401.199219 L 655.3125 401.273438 L 653.597656 399.574219 L 655.265625 397.972656 L 660.027344 397.902344 L 661.824219 399.453125 Z M 660.449219 401.199219 " fill-opacity="1" fill-rule="nonzero"/></g></g><g clip-path="url(#e669d8592c)"><g clip-path="url(#d83c089aa7)"><path fill="#000000" d="M 673.296875 396.640625 L 666.253906 396.746094 L 663.792969 399.375 L 666.335938 402.171875 L 673.925781 402.058594 L 675.957031 399.195312 Z M 672.613281 401.015625 L 667.476562 401.09375 L 665.761719 399.394531 L 667.429688 397.789062 L 672.191406 397.71875 L 673.988281 399.273438 Z M 672.613281 401.015625 " fill-opacity="1" fill-rule="nonzero"/></g></g><g clip-path="url(#67377e4934)"><g clip-path="url(#d74d5931ab)"><path fill="#000000" d="M 685.460938 396.460938 L 678.417969 396.566406 L 675.957031 399.195312 L 678.5 401.992188 L 686.089844 401.878906 L 688.121094 399.011719 Z M 684.777344 400.835938 L 679.640625 400.910156 L 677.925781 399.214844 L 679.59375 397.609375 L 684.355469 397.539062 L 686.152344 399.089844 Z M 684.777344 400.835938 " fill-opacity="1" fill-rule="nonzero"/></g></g><g clip-path="url(#06bd7088a5)"><g clip-path="url(#fec5ff9d75)"><path fill="#000000" d="M 697.625 396.277344 L 690.582031 396.382812 L 688.121094 399.011719 L 690.664062 401.808594 L 698.253906 401.695312 L 700.285156 398.832031 Z M 696.941406 400.652344 L 691.804688 400.730469 L 690.089844 399.03125 L 691.757812 397.429688 L 696.519531 397.355469 L 698.316406 398.910156 Z M 696.941406 400.652344 " fill-opacity="1" fill-rule="nonzero"/></g></g><g clip-path="url(#fc6bb465eb)"><g clip-path="url(#2ff2633f43)"><path fill="#000000" d="M 709.378906 396.011719 L 702.335938 396.117188 L 699.875 398.746094 L 702.417969 401.542969 L 710.007812 401.429688 L 712.039062 398.566406 Z M 708.699219 400.386719 L 703.5625 400.460938 L 701.84375 398.765625 L 703.511719 397.160156 L 708.277344 397.089844 L 710.074219 398.640625 Z M 708.699219 400.386719 " fill-opacity="1" fill-rule="nonzero"/></g></g><g clip-path="url(#84426af711)"><g clip-path="url(#41c63237e7)"><path fill="#000000" d="M 721.542969 396.011719 L 714.5 396.117188 L 712.039062 398.746094 L 714.582031 401.542969 L 722.171875 401.429688 L 724.203125 398.5625 Z M 720.863281 400.386719 L 715.726562 400.460938 L 714.007812 398.765625 L 715.675781 397.160156 L 720.441406 397.089844 L 722.238281 398.640625 Z M 720.863281 400.386719 " fill-opacity="1" fill-rule="nonzero"/></g></g><path fill="#ffc000" d="M 751.707031 365.40625 L 746.007812 397.96875 L 739.285156 375.839844 Z M 751.707031 365.40625 " fill-opacity="1" fill-rule="nonzero"/><g clip-path="url(#c1377e2e1a)"><g clip-path="url(#f3a77e165f)"><path fill="#58ab97" d="M -100.621094 -14.960938 L 506.707031 -14.960938 L 506.707031 600.894531 L -100.621094 600.894531 Z M -100.621094 -14.960938 " fill-opacity="1" fill-rule="nonzero"/></g></g><g clip-path="url(#263dd92ead)"><path fill="#3b6273" d="M 47.28125 107.148438 L 29.101562 118.914062 L 28.667969 327.507812 C 35.9375 326.085938 43.316406 324.847656 50.777344 323.8125 L 47.28125 107.148438 " fill-opacity="1" fill-rule="evenodd"/></g><g clip-path="url(#b2fe853df6)"><path fill="#22384f" d="M 47.394531 331.242188 L 47.28125 107.148438 L 177.796875 130.96875 L 177.796875 331.722656 L 47.394531 331.242188 " fill-opacity="1" fill-rule="evenodd"/></g><path fill="#f2ca6f" d="M 73.472656 304.050781 L 62.179688 302.445312 L 62.179688 281.636719 L 73.472656 283.234375 Z M 73.472656 261.257812 L 62.179688 259.660156 L 62.179688 238.84375 L 73.472656 240.449219 Z M 163.117188 161.804688 L 152.953125 159.875 L 152.953125 139.066406 L 163.117188 140.894531 Z M 140.652344 157.628906 L 130.378906 155.703125 L 130.378906 134.890625 L 140.652344 136.8125 Z M 118.1875 153.453125 L 107.792969 151.53125 L 107.792969 130.625 L 118.1875 132.640625 Z M 95.601562 149.378906 L 85.328125 147.359375 L 85.328125 126.546875 L 95.601562 128.464844 Z M 73.132812 145.300781 L 62.859375 143.179688 L 62.859375 122.367188 L 73.132812 124.484375 Z M 73.472656 224.28125 L 62.292969 222.769531 L 62.292969 201.960938 L 73.472656 203.566406 Z M 152.953125 188.0625 L 152.953125 176.914062 L 163.117188 178.644531 L 163.117188 189.917969 Z M 130.378906 183.941406 L 130.378906 172.648438 L 140.652344 174.667969 L 140.652344 185.820312 Z M 107.792969 179.816406 L 107.792969 168.472656 L 118.1875 170.492188 L 118.1875 181.714844 Z M 85.328125 185.089844 L 85.328125 164.300781 L 95.601562 166.316406 L 95.601562 178.4375 Z M 73.132812 183.054688 L 62.859375 180.9375 L 62.859375 160.125 L 73.132812 162.238281 L 73.132812 183.054688 " fill-opacity="1" fill-rule="evenodd"/><path fill="#3b6273" d="M 96.617188 177.78125 L 83.152344 186.496094 L 82.863281 320.621094 C 88.265625 320.289062 93.671875 320.058594 99.074219 319.933594 L 96.617188 177.78125 " fill-opacity="1" fill-rule="evenodd"/><path fill="#22384f" d="M 261.722656 362.214844 L -23.917969 429.1875 L -23.917969 342.148438 C 11.601562 328.820312 54.339844 321.21875 96.691406 320.003906 L 96.617188 177.78125 L 193.285156 195.429688 L 193.285156 329.609375 C 220.65625 336.574219 244.503906 347.34375 261.722656 362.214844 " fill-opacity="1" fill-rule="evenodd"/><g clip-path="url(#45325cd7c7)"><path fill="#f2ca6f" d="M 442.5625 478.945312 L -23.917969 478.820312 L -23.917969 429.1875 C 192.640625 303.902344 368.992188 346.226562 442.5625 478.945312 " fill-opacity="1" fill-rule="evenodd"/></g><path fill="#22384f" d="M 406.984375 210.953125 L 419.109375 218.804688 L 419.398438 349.71875 C 414.515625 349.707031 409.570312 349.863281 404.578125 350.183594 L 406.984375 210.953125 " fill-opacity="1" fill-rule="evenodd"/><path fill="#3b6273" d="M 406.910156 350.0625 L 406.984375 210.957031 L 319.945312 226.84375 L 319.945312 369.050781 C 348.59375 358.449219 378.519531 351.601562 406.910156 350.0625 " fill-opacity="1" fill-rule="evenodd"/><path fill="#f2ca6f" d="M 329.507812 348.488281 L 337.035156 347.488281 L 337.035156 333.542969 L 329.507812 334.609375 Z M 344.492188 346.609375 L 352.097656 345.605469 L 352.097656 331.730469 L 344.492188 332.730469 Z M 359.550781 345.183594 L 367.085938 344.117188 L 367.085938 330.230469 L 359.550781 331.304688 Z M 374.535156 343.691406 L 382.066406 342.6875 L 382.066406 328.742188 L 374.535156 329.808594 Z M 389.519531 342.261719 L 397.046875 341.191406 L 397.046875 327.316406 L 389.519531 328.382812 Z M 329.507812 320.019531 L 337.035156 318.957031 L 337.035156 305.074219 L 329.507812 306.074219 Z M 344.492188 318.140625 L 352.097656 317.136719 L 352.097656 303.195312 L 344.492188 304.199219 Z M 359.550781 316.648438 L 367.085938 315.582031 L 367.085938 301.699219 L 359.550781 302.769531 Z M 374.535156 315.15625 L 382.066406 314.152344 L 382.066406 300.273438 L 374.535156 301.277344 Z M 389.519531 313.726562 L 397.046875 312.660156 L 397.046875 298.78125 L 389.519531 299.847656 Z M 329.734375 247.398438 L 336.511719 246.117188 L 336.511719 232.238281 L 329.734375 233.457031 Z M 344.71875 244.617188 L 351.570312 243.335938 L 351.570312 229.457031 L 344.71875 230.738281 Z M 359.699219 241.832031 L 366.632812 240.550781 L 366.632812 226.609375 L 359.699219 227.953125 Z M 374.765625 239.117188 L 381.609375 237.769531 L 381.609375 223.886719 L 374.765625 225.171875 Z M 389.746094 236.394531 L 396.597656 234.984375 L 396.597656 221.101562 L 389.746094 222.515625 Z M 329.4375 295.226562 L 337.035156 294.230469 L 337.035156 280.347656 L 329.4375 281.414062 Z M 344.492188 293.351562 L 352.019531 292.285156 L 352.019531 278.53125 L 344.492188 279.601562 Z M 359.550781 291.925781 L 367.007812 290.855469 L 367.007812 277.105469 L 359.550781 278.113281 Z M 374.535156 290.496094 L 381.988281 289.488281 L 381.988281 275.609375 L 374.535156 276.679688 Z M 389.519531 289.066406 L 396.96875 288.0625 L 396.96875 274.179688 L 389.519531 275.25 Z M 329.734375 272.578125 L 336.511719 271.296875 L 336.511719 257.480469 L 329.734375 258.636719 Z M 344.71875 269.859375 L 351.570312 268.578125 L 351.570312 254.636719 L 344.71875 255.980469 Z M 359.699219 267.074219 L 366.632812 265.792969 L 366.632812 251.851562 L 359.699219 253.191406 Z M 374.765625 264.359375 L 381.609375 263.007812 L 381.609375 249.066406 L 374.765625 250.410156 Z M 389.746094 261.570312 L 396.597656 260.164062 L 396.597656 246.28125 L 389.746094 247.691406 L 389.746094 261.570312 " fill-opacity="1" fill-rule="evenodd"/><g clip-path="url(#a10dad5367)"><path fill="#58ab97" d="M 178.789062 478.945312 L 442.5625 478.945312 L 442.5625 351.152344 C 345.117188 338.855469 210.226562 407.613281 178.789062 478.945312 " fill-opacity="1" fill-rule="evenodd"/></g><path fill="#f2ca6f" d="M 174.300781 325.46875 L 174.300781 313.929688 L 182.664062 315.113281 L 182.664062 327.121094 C 179.90625 326.535156 177.117188 325.988281 174.300781 325.46875 Z M 157.578125 322.875 L 157.578125 311.914062 L 166.027344 313.03125 L 166.027344 324.078125 C 163.230469 323.644531 160.414062 323.246094 157.578125 322.875 Z M 140.941406 321.121094 L 140.941406 310.25 L 149.300781 311.441406 L 149.300781 321.902344 C 146.53125 321.609375 143.742188 321.347656 140.941406 321.121094 Z M 124.292969 320.125 L 124.292969 308.597656 L 132.65625 309.785156 L 132.65625 320.539062 C 129.878906 320.375 127.09375 320.230469 124.292969 320.125 Z M 107.65625 319.824219 L 107.65625 307.011719 L 116.023438 308.195312 L 116.023438 319.882812 C 113.238281 319.835938 110.449219 319.816406 107.65625 319.824219 Z M 182.664062 298.917969 L 174.300781 297.730469 L 174.300781 282.308594 L 182.664062 283.429688 Z M 166.027344 296.824219 L 157.578125 295.710938 L 157.578125 280.230469 L 166.027344 281.335938 Z M 149.300781 295.167969 L 140.941406 293.980469 L 140.941406 278.566406 L 149.300781 279.753906 Z M 132.65625 293.507812 L 124.292969 292.390625 L 124.292969 276.980469 L 132.65625 278.097656 Z M 116.023438 291.921875 L 107.65625 290.734375 L 107.65625 275.324219 L 116.023438 276.503906 Z M 182.417969 218.261719 L 174.890625 216.832031 L 174.890625 201.417969 L 182.417969 202.773438 Z M 165.773438 215.167969 L 158.164062 213.742188 L 158.164062 198.324219 L 165.773438 199.753906 Z M 149.132812 212.078125 L 141.441406 210.65625 L 141.441406 195.167969 L 149.132812 196.664062 Z M 132.40625 209.058594 L 124.800781 207.566406 L 124.800781 192.148438 L 132.40625 193.574219 Z M 115.765625 206.039062 L 108.160156 204.46875 L 108.160156 189.054688 L 115.765625 190.621094 Z M 182.753906 271.378906 L 174.300781 270.265625 L 174.300781 254.847656 L 182.753906 256.035156 Z M 166.027344 269.292969 L 157.660156 268.101562 L 157.660156 252.835938 L 166.027344 254.019531 Z M 149.300781 267.710938 L 141.023438 266.519531 L 141.023438 251.253906 L 149.300781 252.363281 Z M 132.65625 266.121094 L 124.378906 265.007812 L 124.378906 249.585938 L 132.65625 250.78125 Z M 116.023438 264.535156 L 107.742188 263.414062 L 107.742188 248.003906 L 116.023438 249.191406 Z M 182.417969 246.222656 L 174.890625 244.800781 L 174.890625 229.457031 L 182.417969 230.734375 Z M 165.773438 243.199219 L 158.164062 241.777344 L 158.164062 226.292969 L 165.773438 227.785156 Z M 149.132812 240.109375 L 141.441406 238.6875 L 141.441406 223.199219 L 149.132812 224.695312 Z M 132.40625 237.089844 L 124.800781 235.59375 L 124.800781 220.105469 L 132.40625 221.605469 Z M 115.765625 234 L 108.160156 232.429688 L 108.160156 217.015625 L 115.765625 218.585938 L 115.765625 234 " fill-opacity="1" fill-rule="evenodd"/></svg>