<svg xmlns="http://www.w3.org/2000/svg" xmlns:xlink="http://www.w3.org/1999/xlink" width="1920" zoomAndPan="magnify" viewBox="0 0 1440 809.999993" height="1080" preserveAspectRatio="xMidYMid meet" version="1.0"><defs><clipPath id="2b459ba38b"><path d="M 177.191406 140 L 1243 140 L 1243 651.476562 L 177.191406 651.476562 Z M 177.191406 140 " clip-rule="nonzero"/></clipPath><clipPath id="2ccf03d33b"><path d="M 177.191406 377 L 476 377 L 476 547 L 177.191406 547 Z M 177.191406 377 " clip-rule="nonzero"/></clipPath><clipPath id="5354608f98"><path d="M 178 162 L 1226 162 L 1226 651.476562 L 178 651.476562 Z M 178 162 " clip-rule="nonzero"/></clipPath></defs><g clip-path="url(#2b459ba38b)"><path fill="#000000" d="M 1213.253906 196.269531 C 1208.125 176.117188 1190.675781 161.519531 1169.953125 160.007812 C 1042.59375 150.667969 589.707031 121.324219 378.746094 159.371094 C 357.445312 163.222656 337.609375 172.839844 321.226562 186.992188 C 284.519531 218.699219 216.722656 279.363281 199.148438 309.304688 C 192.144531 321.222656 187.441406 347.542969 184.292969 379.058594 C 182.460938 397.125 181.144531 416.9375 180.207031 436.703125 C 179.207031 457.578125 178.632812 478.433594 178.292969 497.203125 C 178.015625 513.714844 177.910156 528.628906 177.910156 540.484375 C 177.910156 542.292969 178.082031 544.078125 178.398438 545.804688 C 178.464844 546.167969 178.550781 546.527344 178.632812 546.890625 C 181.507812 559.382812 192.722656 568.679688 206.085938 568.679688 L 300.324219 568.679688 C 303.347656 615.945312 335.265625 651.988281 375.480469 651.988281 L 407.101562 651.988281 C 447.316406 651.988281 479.210938 615.945312 482.234375 568.679688 L 527.957031 568.679688 C 530.984375 615.945312 562.898438 651.988281 603.113281 651.988281 L 634.734375 651.988281 C 674.949219 651.988281 706.84375 615.945312 709.867188 568.679688 L 755.589844 568.679688 C 758.613281 615.945312 790.53125 651.988281 830.746094 651.988281 L 862.367188 651.988281 C 902.582031 651.988281 934.476562 615.945312 937.5 568.679688 L 983.226562 568.679688 C 986.25 615.945312 1018.164062 651.988281 1058.382812 651.988281 L 1090 651.988281 C 1130.21875 651.988281 1162.113281 615.945312 1165.136719 568.679688 L 1197.996094 568.679688 C 1210.851562 568.679688 1222.085938 560.148438 1225.636719 547.804688 C 1225.722656 547.507812 1225.808594 547.1875 1225.894531 546.890625 C 1262.046875 420.554688 1230.40625 263.851562 1213.253906 196.269531 Z M 1213.253906 196.269531 " fill-opacity="1" fill-rule="nonzero"/></g><path fill="#56dbfc" d="M 1213.253906 196.269531 C 1208.125 176.117188 1190.675781 161.519531 1169.953125 160.007812 C 1042.59375 150.667969 589.707031 121.324219 378.746094 159.371094 C 357.445312 163.222656 337.609375 172.839844 321.226562 186.992188 C 284.519531 218.699219 216.722656 279.363281 199.148438 309.304688 C 192.144531 321.222656 187.441406 347.542969 184.292969 379.058594 C 186.402344 379.910156 188.335938 381.1875 189.933594 382.867188 L 204.082031 397.507812 C 205.632812 399.117188 206.8125 401.011719 207.589844 403.054688 C 207.898438 402.820312 208.261719 402.65625 208.675781 402.65625 L 357.355469 402.65625 C 357.777344 402.65625 358.144531 402.820312 358.453125 403.0625 C 359.238281 401.011719 360.421875 399.117188 361.972656 397.507812 L 376.101562 382.867188 C 379.207031 379.65625 383.464844 377.847656 387.933594 377.847656 L 473.746094 377.847656 C 473.746094 377.816406 473.730469 377.789062 473.734375 377.757812 C 474.445312 363.308594 475.28125 348.613281 476.351562 331.515625 C 477.941406 306.496094 485.558594 281.964844 498.375 260.582031 C 515.320312 232.34375 538.476562 203.53125 554.921875 184.328125 C 560.964844 177.269531 568.007812 171.195312 575.847656 166.265625 C 576.691406 165.734375 577.808594 165.988281 578.34375 166.835938 C 578.875 167.679688 578.617188 168.796875 577.769531 169.332031 C 570.242188 174.0625 563.476562 179.902344 557.667969 186.679688 C 541.316406 205.777344 518.296875 234.421875 501.480469 262.445312 C 488.957031 283.335938 481.519531 307.296875 479.964844 331.742188 C 478.894531 348.820312 478.0625 363.5 477.347656 377.933594 C 477.300781 378.902344 476.5 379.65625 475.542969 379.65625 C 475.511719 379.65625 475.480469 379.65625 475.453125 379.65625 C 474.601562 397.140625 473.832031 416.140625 473.351562 434.917969 C 474.347656 434.945312 475.136719 435.773438 475.113281 436.769531 C 473.300781 513.195312 477.660156 538.382812 481.636719 546.058594 C 481.773438 546.324219 481.816406 546.609375 481.816406 546.890625 L 546.121094 546.890625 C 551.441406 510.800781 569.933594 442.535156 633.941406 442.535156 C 685.074219 442.535156 701.355469 510.800781 706.375 546.890625 L 1012.734375 546.890625 C 1020.375 509.203125 1041.546875 435.855469 1090.660156 435.855469 C 1143.539062 435.855469 1147.6875 507.546875 1147.238281 546.890625 L 1225.886719 546.890625 C 1262.046875 420.554688 1230.40625 263.851562 1213.253906 196.269531 Z M 357.359375 379.65625 L 345.84375 379.65625 L 338.78125 391.65625 L 227.386719 391.65625 L 220.339844 379.65625 L 208.679688 379.65625 C 207.683594 379.65625 206.871094 378.84375 206.871094 377.847656 C 206.871094 376.847656 207.683594 376.039062 208.679688 376.039062 L 357.363281 376.039062 C 358.359375 376.039062 359.171875 376.847656 359.171875 377.847656 C 359.167969 378.84375 358.359375 379.65625 357.359375 379.65625 Z M 463.222656 302.789062 C 462.980469 302.941406 438.824219 318.316406 438.824219 354.535156 L 438.824219 362.589844 C 438.824219 363.589844 438.015625 364.398438 437.015625 364.398438 C 436.015625 364.398438 435.207031 363.589844 435.207031 362.589844 L 435.207031 354.535156 C 435.207031 316.210938 460.261719 300.363281 461.328125 299.707031 C 462.179688 299.183594 463.289062 299.449219 463.8125 300.300781 C 464.335938 301.148438 464.074219 302.261719 463.222656 302.789062 Z M 536.488281 178.972656 L 465.476562 275.175781 C 459.96875 282.636719 451.25 287.039062 441.980469 287.039062 L 248.910156 287.039062 C 242.949219 287.039062 239.910156 279.867188 244.078125 275.609375 C 265.078125 254.152344 294.207031 227.203125 329.570312 196.648438 C 344.335938 183.886719 362.128906 175.339844 381.019531 171.9375 C 424.839844 164.035156 461.632812 163.882812 528.015625 162.617188 C 536.527344 162.453125 541.542969 172.125 536.488281 178.972656 Z M 1008.6875 171.910156 L 1163.617188 171.910156 C 1176.664062 171.910156 1187.847656 181.230469 1190.199219 194.0625 L 1209.148438 297.484375 C 1210.753906 306.230469 1204.035156 314.292969 1195.140625 314.292969 L 1015.835938 314.292969 C 1009.84375 314.292969 1005.132812 309.152344 1005.695312 303.183594 C 1007.714844 281.828125 1010.332031 232.863281 998.773438 184.386719 C 997.257812 178.015625 1002.136719 171.910156 1008.6875 171.910156 Z M 1019.460938 362.589844 C 1019.460938 361.589844 1020.273438 360.78125 1021.273438 360.78125 L 1202.792969 360.78125 C 1203.789062 360.78125 1204.601562 361.589844 1204.601562 362.589844 C 1204.601562 363.589844 1203.789062 364.398438 1202.792969 364.398438 L 1021.273438 364.398438 C 1020.273438 364.398438 1019.460938 363.589844 1019.460938 362.589844 Z M 991.742188 316.375 C 992.746094 316.3125 993.597656 317.074219 993.65625 318.074219 C 993.734375 319.378906 1001.253906 449.488281 984.703125 505.214844 C 984.46875 506 983.75 506.507812 982.96875 506.507812 C 982.800781 506.507812 982.625 506.484375 982.453125 506.433594 C 981.496094 506.148438 980.949219 505.140625 981.234375 504.183594 C 997.605469 449.058594 990.121094 319.589844 990.042969 318.289062 C 989.984375 317.289062 990.746094 316.433594 991.742188 316.375 Z M 764.664062 349.265625 L 764.664062 320.957031 C 764.664062 319.957031 765.476562 319.144531 766.476562 319.144531 C 767.472656 319.144531 768.285156 319.957031 768.285156 320.957031 L 768.285156 349.265625 C 768.285156 350.265625 767.472656 351.074219 766.476562 351.074219 C 765.476562 351.074219 764.664062 350.265625 764.664062 349.265625 Z M 777.433594 362.589844 C 777.433594 361.589844 778.242188 360.78125 779.242188 360.78125 L 975.75 360.78125 C 976.75 360.78125 977.558594 361.589844 977.558594 362.589844 C 977.558594 363.589844 976.75 364.398438 975.75 364.398438 L 779.242188 364.398438 C 778.242188 364.398438 777.433594 363.589844 777.433594 362.589844 Z M 767.125 171.652344 L 962.515625 171.894531 C 970.460938 171.90625 977.335938 177.398438 979.15625 185.132812 C 989.757812 230.171875 988.191406 275.503906 986.304688 298.609375 C 985.578125 307.480469 978.171875 314.296875 969.269531 314.296875 L 795.25 314.296875 C 788.453125 314.296875 782.527344 309.664062 780.886719 303.066406 L 752.738281 190.039062 C 750.410156 180.6875 757.492188 171.640625 767.125 171.652344 Z M 731.675781 174.859375 C 732.652344 174.648438 733.617188 175.265625 733.828125 176.242188 C 734.21875 178.058594 772.597656 359.277344 741.597656 505.074219 C 741.417969 505.921875 740.664062 506.507812 739.828125 506.507812 C 739.703125 506.507812 739.578125 506.492188 739.449219 506.464844 C 738.472656 506.257812 737.847656 505.296875 738.054688 504.320312 C 768.890625 359.292969 730.675781 178.8125 730.285156 177.007812 C 730.078125 176.03125 730.699219 175.070312 731.675781 174.859375 Z M 565.933594 362.589844 C 565.933594 361.589844 566.746094 360.78125 567.746094 360.78125 L 732.058594 360.78125 C 733.054688 360.78125 733.867188 361.589844 733.867188 362.589844 C 733.867188 363.589844 733.054688 364.398438 732.058594 364.398438 L 567.746094 364.398438 C 566.746094 364.398438 565.933594 363.589844 565.933594 362.589844 Z M 726.652344 336.5 C 726.652344 337.496094 725.839844 338.308594 724.839844 338.308594 L 680.988281 338.308594 C 679.988281 338.308594 679.175781 337.5 679.175781 336.5 C 679.175781 335.496094 679.988281 334.6875 680.988281 334.6875 L 724.839844 334.6875 C 725.839844 334.6875 726.652344 335.496094 726.652344 336.5 Z M 509.210938 293.824219 C 515.597656 269.210938 535.167969 225.757812 594.996094 182.28125 C 604.472656 175.398438 615.871094 171.628906 627.585938 171.628906 L 692.921875 171.628906 C 704.421875 171.628906 713.742188 180.949219 713.742188 192.445312 L 713.742188 293.476562 C 713.742188 304.972656 704.421875 314.292969 692.921875 314.292969 L 524.949219 314.292969 C 514.25 314.292969 506.523438 304.175781 509.210938 293.824219 Z M 635.921875 404.085938 C 568.835938 400.335938 552.671875 463.042969 552.015625 465.714844 C 551.777344 466.683594 550.804688 467.277344 549.828125 467.039062 C 548.855469 466.800781 548.265625 465.824219 548.5 464.855469 C 548.667969 464.171875 566.085938 396.542969 636.125 400.472656 C 706.308594 404.402344 711.960938 481.875 712.011719 482.65625 C 712.074219 483.65625 711.316406 484.515625 710.320312 484.574219 C 710.28125 484.578125 710.242188 484.582031 710.203125 484.582031 C 709.257812 484.582031 708.460938 483.839844 708.398438 482.882812 C 708.203125 479.820312 702.878906 407.835938 635.921875 404.085938 Z M 990.007812 521.496094 L 750.699219 521.496094 C 742.65625 521.496094 734.710938 524.195312 728.328125 529.089844 L 714.84375 539.4375 C 714.515625 539.691406 714.128906 539.8125 713.742188 539.8125 C 713.199219 539.8125 712.664062 539.570312 712.304688 539.105469 C 711.695312 538.308594 711.84375 537.175781 712.640625 536.566406 L 726.125 526.214844 C 733.136719 520.839844 741.863281 517.875 750.699219 517.875 L 990.007812 517.875 C 991.007812 517.875 991.820312 518.683594 991.820312 519.683594 C 991.816406 520.683594 991.003906 521.496094 990.007812 521.496094 Z M 1091.960938 408.886719 C 1033.023438 405.582031 1018.449219 462.410156 1018.308594 462.984375 C 1018.070312 463.953125 1017.089844 464.550781 1016.121094 464.3125 C 1015.148438 464.078125 1014.554688 463.09375 1014.792969 462.125 C 1014.9375 461.519531 1030.324219 401.816406 1092.164062 405.273438 C 1154.144531 408.746094 1159.136719 477.148438 1159.179688 477.835938 C 1159.242188 478.832031 1158.484375 479.695312 1157.488281 479.753906 C 1157.449219 479.757812 1157.410156 479.761719 1157.371094 479.761719 C 1156.425781 479.761719 1155.628906 479.023438 1155.570312 478.066406 C 1155.398438 475.375 1150.714844 412.179688 1091.960938 408.886719 Z M 1222.777344 521.496094 L 1160.050781 521.496094 C 1159.050781 521.496094 1158.238281 520.683594 1158.238281 519.6875 C 1158.238281 518.683594 1159.050781 517.875 1160.050781 517.875 L 1222.777344 517.875 C 1223.773438 517.875 1224.585938 518.683594 1224.585938 519.6875 C 1224.589844 520.683594 1223.777344 521.496094 1222.777344 521.496094 Z M 355.546875 469.175781 L 210.492188 469.175781 L 210.492188 445.535156 L 355.546875 445.535156 Z M 208.679688 416.574219 L 208.679688 408.914062 C 208.679688 408.007812 208.59375 407.113281 208.445312 406.230469 C 208.527344 406.238281 208.597656 406.277344 208.679688 406.277344 L 220.339844 406.277344 L 227.382812 418.277344 L 338.78125 418.277344 L 345.84375 406.277344 L 357.355469 406.277344 C 357.441406 406.277344 357.511719 406.238281 357.59375 406.230469 C 357.449219 407.113281 357.355469 408.007812 357.355469 408.914062 L 357.355469 416.574219 C 356.359375 416.574219 355.546875 417.382812 355.546875 418.382812 L 355.546875 441.914062 L 210.492188 441.914062 L 210.492188 418.382812 C 210.492188 417.382812 209.679688 416.574219 208.679688 416.574219 Z M 285.179688 379.65625 L 273.179688 391.65625 L 261.179688 379.65625 Z M 421.863281 546.886719 C 419.835938 546.886719 417.894531 546.082031 416.464844 544.652344 L 407.609375 535.800781 C 406.179688 534.367188 405.375 532.425781 405.375 530.402344 L 405.375 504.835938 C 405.375 500.625 408.792969 497.207031 413.007812 497.207031 L 432.160156 497.207031 C 436.375 497.207031 439.792969 500.625 439.792969 504.835938 L 439.792969 539.257812 C 439.792969 543.472656 436.375 546.890625 432.160156 546.890625 L 478.03125 546.890625 C 472.261719 534.332031 470.0625 497.292969 471.5 436.707031 L 373.785156 436.707031 C 367.410156 436.707031 361.890625 433.054688 359.167969 427.746094 L 359.167969 443.722656 C 359.167969 443.722656 359.167969 443.722656 359.167969 443.726562 C 359.167969 443.726562 359.167969 443.730469 359.167969 443.730469 L 359.167969 469.179688 C 359.167969 470.179688 358.355469 470.988281 357.355469 470.988281 L 357.355469 486.308594 C 357.355469 497.542969 348.25 506.652344 337.035156 506.652344 L 229.003906 506.652344 C 217.789062 506.652344 208.679688 497.542969 208.679688 486.308594 L 208.679688 470.988281 C 207.683594 470.988281 206.871094 470.179688 206.871094 469.179688 L 206.871094 427.753906 C 204.152344 433.0625 198.640625 436.707031 192.253906 436.707031 L 180.210938 436.707031 C 179.210938 457.582031 178.632812 478.4375 178.292969 497.207031 L 183.335938 497.207031 C 187.550781 497.207031 190.957031 500.632812 190.957031 504.847656 L 190.957031 530.402344 C 190.957031 532.425781 190.171875 534.382812 188.722656 535.808594 L 179.871094 544.65625 C 179.421875 545.101562 178.933594 545.484375 178.398438 545.804688 C 178.464844 546.167969 178.550781 546.527344 178.632812 546.890625 Z M 206.871094 536.339844 C 206.871094 535.339844 207.679688 534.527344 208.679688 534.527344 L 357.359375 534.527344 C 358.359375 534.527344 359.167969 535.339844 359.167969 536.339844 C 359.167969 537.339844 358.359375 538.148438 357.359375 538.148438 L 208.679688 538.148438 C 207.679688 538.148438 206.871094 537.339844 206.871094 536.339844 Z M 206.871094 536.339844 " fill-opacity="1" fill-rule="nonzero"/><path fill="#efefef" d="M 1131.355469 561.316406 C 1131.355469 592.589844 1112.839844 617.9375 1090 617.9375 C 1067.160156 617.9375 1048.644531 592.589844 1048.644531 561.316406 C 1048.644531 530.046875 1067.160156 504.695312 1090 504.695312 C 1112.839844 504.695312 1131.355469 530.046875 1131.355469 561.316406 Z M 634.730469 504.695312 C 611.890625 504.695312 593.375 530.046875 593.375 561.316406 C 593.375 592.589844 611.890625 617.9375 634.730469 617.9375 C 657.570312 617.9375 676.082031 592.589844 676.082031 561.316406 C 676.082031 530.046875 657.570312 504.695312 634.730469 504.695312 Z M 452.394531 184.398438 L 454.613281 180.324219 C 455.386719 178.90625 454.300781 177.183594 452.6875 177.257812 C 452.453125 177.269531 452.21875 177.277344 451.984375 177.292969 C 448.085938 177.472656 444.566406 179.667969 442.699219 183.097656 L 441.988281 184.398438 L 441.839844 184.675781 L 395.597656 269.703125 C 394.476562 271.765625 395.96875 274.28125 398.316406 274.28125 C 401.519531 274.28125 404.464844 272.527344 405.996094 269.714844 L 452.242188 184.671875 Z M 481.804688 176.292969 C 478.5 176.375 475.273438 176.460938 472.117188 176.558594 C 468.292969 176.671875 464.832031 178.804688 463 182.15625 L 461.777344 184.394531 L 461.628906 184.671875 L 416.359375 267.914062 C 414.796875 270.785156 416.875 274.277344 420.140625 274.277344 C 431.074219 274.277344 441.128906 268.300781 446.355469 258.695312 L 486.609375 184.671875 L 486.761719 184.394531 C 488.777344 180.691406 486.019531 176.1875 481.804688 176.292969 Z M 610.980469 301.515625 L 625.570312 301.515625 C 627.246094 301.515625 628.785156 300.597656 629.582031 299.128906 L 631.945312 294.769531 L 633.5625 291.8125 L 687.351562 192.894531 C 689.4375 189.0625 686.660156 184.394531 682.296875 184.394531 C 672.863281 184.394531 664.1875 189.554688 659.683594 197.839844 L 608.582031 291.8125 L 606.964844 294.769531 C 605.3125 297.816406 607.515625 301.515625 610.980469 301.515625 Z M 804.457031 301.515625 L 805.855469 301.515625 C 818.238281 301.515625 829.632812 294.742188 835.550781 283.859375 L 885.507812 192.007812 C 887.332031 188.648438 884.90625 184.554688 881.082031 184.550781 L 862.597656 184.527344 C 860.746094 184.523438 859.042969 185.535156 858.15625 187.160156 L 800.023438 294.058594 C 798.195312 297.425781 800.628906 301.515625 804.457031 301.515625 Z M 843.136719 301.515625 L 851.394531 301.515625 C 853.472656 301.515625 855.382812 300.382812 856.378906 298.558594 L 916.722656 187.609375 C 917.464844 186.246094 916.476562 184.585938 914.925781 184.585938 L 907.507812 184.574219 C 903.566406 184.570312 899.933594 186.726562 898.050781 190.191406 L 840.195312 296.570312 C 838.984375 298.800781 840.597656 301.515625 843.136719 301.515625 Z M 1039.003906 301.515625 C 1043.734375 301.515625 1048.085938 298.925781 1050.339844 294.769531 L 1051.957031 291.8125 L 1107.863281 189.003906 C 1108.925781 187.050781 1107.515625 184.671875 1105.289062 184.671875 L 1101.558594 184.671875 C 1100.484375 184.671875 1099.496094 185.257812 1098.984375 186.203125 L 1041.554688 291.8125 L 1039.9375 294.773438 L 1037.582031 299.117188 C 1036.988281 300.199219 1037.773438 301.515625 1039.003906 301.515625 Z M 1059.722656 294.769531 C 1058.070312 297.8125 1060.277344 301.515625 1063.738281 301.515625 L 1073.371094 301.515625 C 1078.097656 301.515625 1082.449219 298.925781 1084.703125 294.769531 L 1086.320312 291.8125 L 1138.671875 195.546875 C 1141.335938 190.640625 1137.789062 184.671875 1132.207031 184.671875 L 1128.363281 184.671875 C 1122.964844 184.671875 1118 187.625 1115.417969 192.367188 L 1061.339844 291.8125 Z M 359.167969 404.464844 C 359.167969 405.382812 358.480469 406.109375 357.59375 406.230469 C 357.449219 407.113281 357.355469 408.007812 357.355469 408.914062 L 357.355469 416.574219 C 358.355469 416.574219 359.167969 417.382812 359.167969 418.382812 L 359.167969 427.746094 C 361.890625 433.058594 367.410156 436.707031 373.785156 436.707031 L 437.007812 436.707031 L 437.007812 377.847656 L 387.9375 377.847656 C 383.46875 377.847656 379.214844 379.65625 376.105469 382.867188 L 361.976562 397.507812 C 360.421875 399.117188 359.238281 401.011719 358.453125 403.0625 C 358.878906 403.394531 359.167969 403.886719 359.167969 404.464844 Z M 206.871094 427.753906 L 206.871094 418.382812 C 206.871094 417.386719 207.679688 416.574219 208.679688 416.574219 L 208.679688 408.914062 C 208.679688 408.007812 208.589844 407.113281 208.441406 406.230469 C 207.558594 406.109375 206.867188 405.382812 206.867188 404.464844 C 206.867188 403.882812 207.160156 403.386719 207.589844 403.054688 C 206.8125 401.011719 205.632812 399.117188 204.082031 397.507812 L 189.933594 382.867188 C 188.335938 381.183594 186.398438 379.910156 184.292969 379.058594 C 182.460938 397.125 181.144531 416.9375 180.207031 436.703125 L 192.25 436.703125 C 198.640625 436.703125 204.152344 433.0625 206.871094 427.753906 Z M 206.871094 427.753906 " fill-opacity="1" fill-rule="nonzero"/><g clip-path="url(#2ccf03d33b)"><path fill="#f86f03" d="M 437.007812 436.703125 L 437.007812 377.84375 L 473.75 377.84375 C 473.753906 378.804688 474.488281 379.605469 475.457031 379.652344 C 474.605469 397.140625 473.835938 416.140625 473.359375 434.917969 C 473.355469 434.917969 473.355469 434.917969 473.355469 434.917969 C 472.347656 434.882812 471.527344 435.683594 471.503906 436.683594 C 471.503906 436.691406 471.503906 436.699219 471.503906 436.703125 Z M 439.792969 539.253906 L 439.792969 504.835938 C 439.792969 500.621094 436.375 497.203125 432.160156 497.203125 L 413.007812 497.203125 C 408.792969 497.203125 405.375 500.621094 405.375 504.835938 L 405.375 530.398438 C 405.375 532.425781 406.179688 534.367188 407.609375 535.796875 L 416.464844 544.652344 C 417.894531 546.082031 419.835938 546.886719 421.863281 546.886719 L 432.160156 546.886719 C 436.375 546.886719 439.792969 543.472656 439.792969 539.253906 Z M 188.71875 535.800781 C 190.167969 534.378906 190.953125 532.417969 190.953125 530.394531 L 190.953125 504.839844 C 190.953125 500.625 187.550781 497.199219 183.335938 497.199219 L 178.292969 497.199219 C 178.015625 513.714844 177.910156 528.628906 177.910156 540.484375 C 177.910156 542.292969 178.082031 544.078125 178.398438 545.804688 C 178.933594 545.484375 179.421875 545.101562 179.871094 544.65625 Z M 188.71875 535.800781 " fill-opacity="1" fill-rule="nonzero"/></g><g clip-path="url(#5354608f98)"><path fill="#000000" d="M 528.015625 162.617188 C 461.632812 163.878906 424.835938 164.035156 381.019531 171.933594 C 362.128906 175.339844 344.339844 183.886719 329.570312 196.648438 C 294.207031 227.203125 265.078125 254.152344 244.078125 275.609375 C 239.910156 279.867188 242.949219 287.039062 248.910156 287.039062 L 441.980469 287.039062 C 451.25 287.039062 459.96875 282.636719 465.476562 275.175781 L 536.488281 178.972656 C 541.542969 172.125 536.527344 162.453125 528.015625 162.617188 Z M 398.316406 274.28125 C 395.96875 274.28125 394.476562 271.765625 395.597656 269.703125 L 441.839844 184.671875 L 441.988281 184.394531 L 442.699219 183.089844 C 444.566406 179.664062 448.085938 177.46875 451.984375 177.289062 C 452.21875 177.277344 452.453125 177.265625 452.6875 177.253906 C 454.300781 177.179688 455.386719 178.902344 454.613281 180.320312 L 452.394531 184.390625 L 452.242188 184.667969 L 405.996094 269.714844 C 404.46875 272.527344 401.519531 274.28125 398.316406 274.28125 Z M 486.757812 184.398438 L 486.609375 184.671875 L 446.351562 258.699219 C 441.128906 268.300781 431.074219 274.28125 420.140625 274.28125 C 416.875 274.28125 414.796875 270.785156 416.355469 267.914062 L 461.625 184.671875 L 461.773438 184.398438 L 462.996094 182.160156 C 464.828125 178.804688 468.292969 176.675781 472.113281 176.558594 C 475.269531 176.464844 478.496094 176.375 481.800781 176.296875 C 486.019531 176.1875 488.777344 180.691406 486.757812 184.398438 Z M 524.945312 314.292969 L 692.921875 314.292969 C 704.417969 314.292969 713.738281 304.972656 713.738281 293.476562 L 713.738281 192.445312 C 713.738281 180.953125 704.417969 171.628906 692.921875 171.628906 L 627.585938 171.628906 C 615.871094 171.628906 604.46875 175.398438 594.992188 182.28125 C 535.167969 225.757812 515.597656 269.210938 509.210938 293.824219 C 506.523438 304.175781 514.25 314.292969 524.945312 314.292969 Z M 606.964844 294.769531 L 608.582031 291.8125 L 659.683594 197.839844 C 664.1875 189.550781 672.863281 184.394531 682.296875 184.394531 C 686.660156 184.394531 689.4375 189.0625 687.351562 192.894531 L 633.5625 291.8125 L 631.945312 294.769531 L 629.582031 299.128906 C 628.785156 300.597656 627.242188 301.515625 625.570312 301.515625 L 610.980469 301.515625 C 607.515625 301.515625 605.3125 297.816406 606.964844 294.769531 Z M 780.886719 303.066406 C 782.53125 309.664062 788.453125 314.292969 795.253906 314.292969 L 969.273438 314.292969 C 978.171875 314.292969 985.582031 307.476562 986.304688 298.605469 C 988.191406 275.5 989.757812 230.167969 979.160156 185.132812 C 977.339844 177.394531 970.464844 171.902344 962.515625 171.890625 L 767.128906 171.652344 C 757.492188 171.640625 750.414062 180.6875 752.742188 190.035156 Z M 907.507812 184.574219 L 914.925781 184.582031 C 916.476562 184.585938 917.464844 186.246094 916.722656 187.609375 L 856.378906 298.554688 C 855.382812 300.378906 853.472656 301.515625 851.394531 301.515625 L 843.136719 301.515625 C 840.597656 301.515625 838.984375 298.796875 840.195312 296.566406 L 898.050781 190.1875 C 899.9375 186.722656 903.566406 184.570312 907.507812 184.574219 Z M 800.023438 294.058594 L 858.15625 187.160156 C 859.042969 185.535156 860.746094 184.523438 862.597656 184.527344 L 881.082031 184.550781 C 884.90625 184.554688 887.332031 188.648438 885.507812 192.007812 L 835.550781 283.859375 C 829.636719 294.742188 818.238281 301.515625 805.855469 301.515625 L 804.457031 301.515625 C 800.628906 301.515625 798.195312 297.425781 800.023438 294.058594 Z M 1005.699219 303.183594 C 1005.136719 309.152344 1009.84375 314.292969 1015.839844 314.292969 L 1195.140625 314.292969 C 1204.035156 314.292969 1210.753906 306.230469 1209.152344 297.484375 L 1190.203125 194.0625 C 1187.851562 181.230469 1176.667969 171.910156 1163.621094 171.910156 L 1008.6875 171.910156 C 1002.140625 171.910156 997.257812 178.011719 998.777344 184.382812 C 1010.332031 232.863281 1007.714844 281.828125 1005.699219 303.183594 Z M 1128.363281 184.671875 L 1132.207031 184.671875 C 1137.789062 184.671875 1141.339844 190.644531 1138.671875 195.546875 L 1086.320312 291.8125 L 1084.703125 294.773438 C 1082.449219 298.929688 1078.097656 301.519531 1073.371094 301.519531 L 1063.738281 301.519531 C 1060.277344 301.519531 1058.070312 297.816406 1059.722656 294.773438 L 1061.34375 291.8125 L 1115.421875 192.367188 C 1118 187.625 1122.964844 184.671875 1128.363281 184.671875 Z M 1037.578125 299.117188 L 1039.933594 294.769531 L 1041.550781 291.8125 L 1098.980469 186.199219 C 1099.492188 185.257812 1100.480469 184.667969 1101.554688 184.667969 L 1105.285156 184.667969 C 1107.507812 184.667969 1108.921875 187.046875 1107.859375 189 L 1051.957031 291.8125 L 1050.339844 294.773438 C 1048.085938 298.929688 1043.734375 301.519531 1039.003906 301.519531 C 1037.773438 301.515625 1036.988281 300.199219 1037.578125 299.117188 Z M 1147.246094 546.886719 C 1147.691406 507.542969 1143.542969 435.855469 1090.664062 435.855469 C 1041.550781 435.855469 1020.378906 509.203125 1012.738281 546.886719 L 706.382812 546.886719 C 701.359375 510.800781 685.082031 442.535156 633.949219 442.535156 C 569.941406 442.535156 551.449219 510.800781 546.128906 546.886719 L 481.820312 546.886719 C 481.820312 546.605469 481.78125 546.320312 481.640625 546.054688 C 477.664062 538.382812 473.304688 513.195312 475.121094 436.769531 C 475.144531 435.769531 474.355469 434.941406 473.359375 434.917969 C 473.355469 434.917969 473.355469 434.917969 473.355469 434.917969 C 472.347656 434.882812 471.527344 435.683594 471.503906 436.683594 C 471.503906 436.691406 471.503906 436.699219 471.503906 436.703125 C 470.066406 497.289062 472.265625 534.332031 478.03125 546.886719 L 178.632812 546.886719 C 181.507812 559.378906 192.722656 568.679688 206.085938 568.679688 L 300.324219 568.679688 C 303.347656 615.941406 335.265625 651.988281 375.480469 651.988281 L 407.101562 651.988281 C 447.316406 651.988281 479.210938 615.941406 482.234375 568.679688 L 527.957031 568.679688 C 530.984375 615.941406 562.898438 651.988281 603.113281 651.988281 L 634.734375 651.988281 C 674.949219 651.988281 706.84375 615.941406 709.867188 568.679688 L 755.589844 568.679688 C 758.613281 615.941406 790.53125 651.988281 830.746094 651.988281 L 862.367188 651.988281 C 902.582031 651.988281 934.476562 615.941406 937.5 568.679688 L 983.226562 568.679688 C 986.25 615.941406 1018.164062 651.988281 1058.382812 651.988281 L 1090 651.988281 C 1130.21875 651.988281 1162.113281 615.941406 1165.136719 568.679688 L 1197.996094 568.679688 C 1210.851562 568.679688 1222.085938 560.144531 1225.636719 547.804688 C 1225.722656 547.503906 1225.808594 547.1875 1225.894531 546.886719 Z M 634.730469 617.941406 C 611.890625 617.941406 593.375 592.589844 593.375 561.320312 C 593.375 530.046875 611.890625 504.699219 634.730469 504.699219 C 657.570312 504.699219 676.082031 530.046875 676.082031 561.320312 C 676.082031 592.589844 657.570312 617.941406 634.730469 617.941406 Z M 1090 617.941406 C 1067.160156 617.941406 1048.644531 592.589844 1048.644531 561.320312 C 1048.644531 530.046875 1067.160156 504.699219 1090 504.699219 C 1112.839844 504.699219 1131.355469 530.046875 1131.355469 561.320312 C 1131.355469 592.589844 1112.839844 617.941406 1090 617.941406 Z M 359.167969 377.847656 C 359.167969 378.84375 358.359375 379.65625 357.359375 379.65625 L 345.84375 379.65625 L 338.78125 391.65625 L 273.179688 391.65625 L 285.179688 379.65625 L 261.179688 379.65625 L 273.179688 391.65625 L 227.386719 391.65625 L 220.339844 379.65625 L 208.679688 379.65625 C 207.683594 379.65625 206.871094 378.84375 206.871094 377.847656 C 206.871094 376.847656 207.683594 376.039062 208.679688 376.039062 L 357.363281 376.039062 C 358.359375 376.035156 359.167969 376.847656 359.167969 377.847656 Z M 207.59375 403.054688 C 207.898438 402.820312 208.265625 402.65625 208.679688 402.65625 L 357.359375 402.65625 C 357.777344 402.65625 358.148438 402.820312 358.453125 403.0625 C 358.878906 403.394531 359.167969 403.882812 359.167969 404.464844 C 359.167969 405.382812 358.480469 406.109375 357.59375 406.230469 C 357.515625 406.238281 357.441406 406.277344 357.355469 406.277344 L 345.84375 406.277344 L 338.78125 418.277344 L 227.386719 418.277344 L 220.339844 406.277344 L 208.679688 406.277344 C 208.597656 406.277344 208.527344 406.238281 208.445312 406.230469 C 207.5625 406.109375 206.871094 405.382812 206.871094 404.464844 C 206.871094 403.882812 207.164062 403.386719 207.59375 403.054688 Z M 473.75 377.847656 C 473.75 377.816406 473.734375 377.789062 473.738281 377.757812 C 474.449219 363.308594 475.285156 348.613281 476.355469 331.515625 C 477.945312 306.496094 485.5625 281.964844 498.378906 260.582031 C 515.324219 232.34375 538.480469 203.53125 554.925781 184.328125 C 560.96875 177.269531 568.011719 171.195312 575.851562 166.265625 C 576.695312 165.734375 577.8125 165.988281 578.347656 166.835938 C 578.878906 167.679688 578.621094 168.796875 577.777344 169.332031 C 570.246094 174.0625 563.480469 179.902344 557.675781 186.679688 C 541.320312 205.777344 518.300781 234.421875 501.484375 262.445312 C 488.960938 283.335938 481.523438 307.296875 479.96875 331.742188 C 478.898438 348.820312 478.066406 363.5 477.351562 377.933594 C 477.304688 378.902344 476.503906 379.65625 475.546875 379.65625 C 475.515625 379.65625 475.484375 379.65625 475.457031 379.65625 L 475.453125 379.65625 C 474.488281 379.605469 473.753906 378.804688 473.75 377.847656 Z M 463.8125 300.296875 C 464.339844 301.148438 464.074219 302.261719 463.226562 302.789062 C 462.980469 302.9375 438.828125 318.3125 438.828125 354.53125 L 438.828125 362.585938 C 438.828125 363.585938 438.015625 364.398438 437.019531 364.398438 C 436.019531 364.398438 435.207031 363.585938 435.207031 362.585938 L 435.207031 354.53125 C 435.207031 316.207031 460.261719 300.363281 461.328125 299.707031 C 462.175781 299.183594 463.289062 299.449219 463.8125 300.296875 Z M 208.679688 538.148438 C 207.679688 538.148438 206.871094 537.339844 206.871094 536.339844 C 206.871094 535.339844 207.679688 534.527344 208.679688 534.527344 L 357.359375 534.527344 C 358.359375 534.527344 359.167969 535.339844 359.167969 536.339844 C 359.167969 537.339844 358.359375 538.148438 357.359375 538.148438 Z M 357.359375 416.574219 C 356.359375 416.574219 355.550781 417.382812 355.550781 418.382812 L 355.550781 441.914062 L 210.492188 441.914062 L 210.492188 418.382812 C 210.492188 417.386719 209.679688 416.574219 208.679688 416.574219 C 207.683594 416.574219 206.871094 417.382812 206.871094 418.382812 L 206.871094 469.179688 C 206.871094 470.175781 207.683594 470.988281 208.679688 470.988281 L 208.679688 486.308594 C 208.679688 497.542969 217.789062 506.652344 229.003906 506.652344 L 337.035156 506.652344 C 348.25 506.652344 357.355469 497.542969 357.355469 486.308594 L 357.355469 470.988281 C 358.355469 470.988281 359.167969 470.179688 359.167969 469.179688 L 359.167969 443.730469 C 359.167969 443.726562 359.167969 443.726562 359.167969 443.722656 C 359.167969 443.722656 359.167969 443.722656 359.167969 443.71875 L 359.167969 418.382812 C 359.167969 417.382812 358.359375 416.574219 357.359375 416.574219 Z M 210.492188 469.175781 L 210.492188 445.535156 L 355.546875 445.535156 L 355.546875 469.175781 Z M 708.398438 482.882812 C 708.203125 479.820312 702.878906 407.835938 635.921875 404.085938 C 568.835938 400.335938 552.671875 463.042969 552.015625 465.714844 C 551.777344 466.683594 550.804688 467.277344 549.828125 467.039062 C 548.855469 466.800781 548.265625 465.824219 548.5 464.855469 C 548.667969 464.171875 566.085938 396.542969 636.125 400.472656 C 706.308594 404.402344 711.960938 481.875 712.011719 482.65625 C 712.074219 483.65625 711.316406 484.515625 710.320312 484.574219 C 710.28125 484.578125 710.242188 484.582031 710.203125 484.582031 C 709.253906 484.582031 708.457031 483.839844 708.398438 482.882812 Z M 1155.570312 478.0625 C 1155.402344 475.375 1150.714844 412.179688 1091.964844 408.886719 C 1033.027344 405.582031 1018.453125 462.410156 1018.3125 462.984375 C 1018.074219 463.953125 1017.09375 464.550781 1016.125 464.3125 C 1015.152344 464.078125 1014.558594 463.09375 1014.792969 462.125 C 1014.941406 461.519531 1030.328125 401.816406 1092.164062 405.273438 C 1154.144531 408.746094 1159.140625 477.148438 1159.183594 477.835938 C 1159.246094 478.832031 1158.488281 479.695312 1157.488281 479.753906 C 1157.453125 479.757812 1157.414062 479.761719 1157.375 479.761719 C 1156.425781 479.757812 1155.632812 479.019531 1155.570312 478.0625 Z M 730.289062 177.007812 C 730.078125 176.03125 730.699219 175.070312 731.675781 174.859375 C 732.652344 174.648438 733.617188 175.265625 733.828125 176.242188 C 734.21875 178.058594 772.597656 359.277344 741.597656 505.074219 C 741.417969 505.921875 740.664062 506.507812 739.828125 506.507812 C 739.703125 506.507812 739.578125 506.492188 739.449219 506.464844 C 738.472656 506.257812 737.847656 505.296875 738.054688 504.320312 C 768.898438 359.292969 730.679688 178.8125 730.289062 177.007812 Z M 1202.792969 364.398438 L 1021.273438 364.398438 C 1020.273438 364.398438 1019.460938 363.589844 1019.460938 362.589844 C 1019.460938 361.589844 1020.273438 360.78125 1021.273438 360.78125 L 1202.792969 360.78125 C 1203.789062 360.78125 1204.601562 361.589844 1204.601562 362.589844 C 1204.601562 363.589844 1203.789062 364.398438 1202.792969 364.398438 Z M 779.246094 364.398438 C 778.246094 364.398438 777.433594 363.589844 777.433594 362.589844 C 777.433594 361.589844 778.246094 360.78125 779.246094 360.78125 L 975.753906 360.78125 C 976.75 360.78125 977.5625 361.589844 977.5625 362.589844 C 977.5625 363.589844 976.75 364.398438 975.753906 364.398438 Z M 732.058594 364.398438 L 567.746094 364.398438 C 566.746094 364.398438 565.933594 363.589844 565.933594 362.589844 C 565.933594 361.589844 566.746094 360.78125 567.746094 360.78125 L 732.058594 360.78125 C 733.054688 360.78125 733.867188 361.589844 733.867188 362.589844 C 733.867188 363.589844 733.058594 364.398438 732.058594 364.398438 Z M 990.042969 318.289062 C 989.984375 317.289062 990.746094 316.433594 991.742188 316.375 C 992.746094 316.3125 993.597656 317.074219 993.65625 318.074219 C 993.734375 319.378906 1001.253906 449.488281 984.703125 505.214844 C 984.46875 506 983.75 506.507812 982.96875 506.507812 C 982.800781 506.507812 982.625 506.484375 982.453125 506.433594 C 981.496094 506.148438 980.949219 505.140625 981.234375 504.183594 C 997.609375 449.058594 990.121094 319.589844 990.042969 318.289062 Z M 991.816406 519.6875 C 991.816406 520.683594 991.003906 521.496094 990.007812 521.496094 L 750.699219 521.496094 C 742.65625 521.496094 734.710938 524.195312 728.328125 529.089844 L 714.84375 539.4375 C 714.515625 539.691406 714.128906 539.8125 713.742188 539.8125 C 713.199219 539.8125 712.664062 539.570312 712.304688 539.105469 C 711.695312 538.308594 711.84375 537.175781 712.640625 536.566406 L 726.125 526.214844 C 733.136719 520.839844 741.863281 517.875 750.699219 517.875 L 990.007812 517.875 C 991.003906 517.875 991.816406 518.683594 991.816406 519.6875 Z M 1224.589844 519.6875 C 1224.589844 520.683594 1223.777344 521.496094 1222.777344 521.496094 L 1160.050781 521.496094 C 1159.050781 521.496094 1158.242188 520.683594 1158.242188 519.6875 C 1158.242188 518.683594 1159.050781 517.875 1160.050781 517.875 L 1222.777344 517.875 C 1223.777344 517.875 1224.589844 518.683594 1224.589844 519.6875 Z M 680.988281 334.6875 L 724.84375 334.6875 C 725.84375 334.6875 726.652344 335.496094 726.652344 336.5 C 726.652344 337.496094 725.84375 338.308594 724.84375 338.308594 L 680.988281 338.308594 C 679.992188 338.308594 679.179688 337.5 679.179688 336.5 C 679.175781 335.496094 679.988281 334.6875 680.988281 334.6875 Z M 766.476562 351.074219 C 765.476562 351.074219 764.664062 350.265625 764.664062 349.265625 L 764.664062 320.957031 C 764.664062 319.957031 765.476562 319.144531 766.476562 319.144531 C 767.472656 319.144531 768.285156 319.957031 768.285156 320.957031 L 768.285156 349.265625 C 768.285156 350.265625 767.472656 351.074219 766.476562 351.074219 Z M 766.476562 351.074219 " fill-opacity="1" fill-rule="nonzero"/></g></svg>