<?xml version="1.0" encoding="UTF-8"?>
<svg id="Capa_2" data-name="Capa 2" xmlns="http://www.w3.org/2000/svg" viewBox="0 0 199.37 102.94">
  <defs>
    <style>
      .cls-1 {
        fill: #f5f5dd;
        stroke-width: 0px;
      }
    </style>
  </defs>
  <g id="Capa_1-2" data-name="Capa 1">
    <g>
      <path class="cls-1" d="m16.76,59.12c-3.9-.49-6.25-1.56-7.61-2.83.1,2.05.39,3.9.88,5.66,2.34,9.27,15.32,20.69,28.4,9.86l.2.68c-2.44,2.93-6.74,6.05-11.81,6.93C12.27,82.05-1.69,71.42.17,55.02c1.27-11.81,8.2-17.37,14.93-19.62.78-.29,2.05-.68,3.71-.98h.29c.39-.1.88-.1,1.27-.19,2.93-.29,5.46,0,7.12.49,1.34.36,5.79,1.74,8.88,6.13.35.5,4.82,7.04,2.34,12.41-3.31,7.17-16.25,6.57-21.96,5.85Zm2.54-1.46c5.17.1,12.88-4.1,9.86-17.67-.78-3.61-3.32-4.59-5.95-4.49-.49.1-.97.1-1.46.2-.19.1-.39.1-.59.1-.49.1-.88.29-1.36.39-.49.19-.88.29-1.27.49-7.12,2.83-9.56,10.44-9.47,17.76,1.46,1.66,4.29,3.12,10.25,3.22Z"/>
      <path class="cls-1" d="m73.27,79.22c-6.34.49-13.66-3.71-17.18-11.52v19.03c.49,12.69,4.1,15.42,7.91,15.42v.78h-24.89v-.78c3.81,0,7.52-2.83,7.91-15.61v-36.21c-.39-12.88-4.1-15.61-7.91-15.61v-.78h11.71c2.63,0,4.78,1.95,5.17,4.39,4.88-3.71,11.22-5.56,18.15-3.71,7.9,2.15,13.37,8.1,15.42,14.05,4.49,12.78-.59,29.18-16.3,30.55Zm-4.98-42.65c-4.88-1.37-9.56.97-12.2,3.9v23.91c2.05,5.47,6.34,9.76,10.93,9.96,8.59.49,13.66-6.54,14.15-15.81.49-10.34-4.98-19.72-12.88-21.96Z"/>
      <path class="cls-1" d="m91.23,79.61v-.78c3.81,0,7.51-2.83,7.9-15.62v-12.88c-.39-12.88-4.1-15.61-7.9-15.61v-.78h11.71c2.93,0,5.27,2.34,5.27,5.27v24.2c.49,12.59,4.1,15.42,7.9,15.42v.78h-24.89Z"/>
      <path class="cls-1" d="m154.96,70.73l.49,1.17c-7.81,9.56-30.84,12.88-38.06-6.25-2.07-5.6-2-11.33-.17-16.38,2.51-6.91,7.55-10.52,9.44-11.73,1.92-1.23,6.72-4.3,12.64-3.71,2.37.24,7.07-.16,12.93,4.78,1.27,1.07,4.2,1.86,4.2,1.86,0,0-1.46,4.78-1.66,9.07h-.39c-.88-2.63-3.03-8.59-8.59-12.2-7.32-4.78-12.98-.19-14.93,1.76-.29.39-.59.68-.88.98-5.08,7.61-6.54,19.13-2.63,27.72,7.9,17.27,23.91,7.42,27.62,2.93Z"/>
      <path class="cls-1" d="m199.37,77.76c-4.1,2.93-12.69,2.73-13.27-2.15-.19-2.14-.29-4.39-.29-6.63-1.66,4.88-5.17,9.07-11.12,10.34-9.17,1.95-17.47-7.52-13.08-17.67,1.76-4,6.64-7.71,15.91-11.91,4.59-2.05,6.74-5.27,7.71-8.1-.1-.29-.1-.68-.19-1.08-1.17-5.17-8.69-8.49-12.49-1.76-1.36,2.44-2.24,5.85,1.46,10.34-2.34,1.27-4.68,2.64-7.03,3.9-7.32-6.44-1.08-19.42,11.03-19.42s16.69,6.83,17.08,16.69c.29,7.42-.29,5.66-.1,18.06.1,4.29,2.05,8.59,4.39,9.37Zm-13.57-10.93c.1-7.81.78-16-.19-23.13-2.15,6.83-11.42,7.22-15.23,19.52-2.24,7.12,9.17,19.42,15.42,3.61Z"/>
      <path class="cls-1" d="m101.37,21C107.82,5.54,123.77-.3,139.55.01c17.55.24,38.77,6.13,46.7,23.37,3.51,7.25,2.62,16.55-2.76,22.61,4.51-9.74,3.12-19.62-3.42-27.87C170.5,6.08,154.41,1.35,139.54.75c-16.61-.58-30.97,4.82-38.17,20.25h0Z"/>
      <polygon class="cls-1" points="101.29 22.17 103.12 25.53 106.47 27.36 103.12 29.19 101.29 32.54 99.46 29.19 96.1 27.36 99.46 25.53 101.29 22.17"/>
      <path class="cls-1" d="m18.38,29.86c0-.34,4.26.49,6.55-2.07,1.74-1.94,1.27-4.65,1.62-4.65.42,0,1.73,3.86-.13,6.15-2.38,2.93-8.04.95-8.03.57Z"/>
    </g>
  </g>
</svg>